G04 #@! TF.FileFunction,Legend,Bot*
%FSLAX46Y46*%
G04 Gerber Fmt 4.6, Leading zero omitted, Abs format (unit mm)*
G04 Created by KiCad (PCBNEW 4.0.1-stable) date 2016/05/21 17:47:10*
%MOMM*%
G01*
G04 APERTURE LIST*
%ADD10C,0.100000*%
%ADD11C,0.150000*%
%ADD12C,0.381000*%
%ADD13C,0.304800*%
%ADD14C,5.080000*%
%ADD15R,2.032000X1.727200*%
%ADD16O,2.032000X1.727200*%
%ADD17R,1.727200X2.032000*%
%ADD18O,1.727200X2.032000*%
%ADD19R,1.198880X1.699260*%
%ADD20O,1.198880X1.699260*%
%ADD21O,1.600000X1.600000*%
G04 APERTURE END LIST*
D10*
D11*
X140217560Y-78552520D02*
X141767560Y-78552520D01*
X140217560Y-79852520D02*
X140217560Y-78552520D01*
X141640560Y-84043520D02*
X141640560Y-89885520D01*
X141640560Y-89885520D02*
X141894560Y-89885520D01*
X141894560Y-89885520D02*
X141894560Y-84043520D01*
X141894560Y-84043520D02*
X141767560Y-84043520D01*
X141767560Y-84043520D02*
X141767560Y-89885520D01*
X141513560Y-81376520D02*
X141513560Y-80995520D01*
X142021560Y-81376520D02*
X142021560Y-80995520D01*
X144053560Y-81376520D02*
X144053560Y-80995520D01*
X144561560Y-81376520D02*
X144561560Y-80995520D01*
X146593560Y-81376520D02*
X146593560Y-80995520D01*
X147101560Y-81376520D02*
X147101560Y-80995520D01*
X143037560Y-83916520D02*
X140497560Y-83916520D01*
X142021560Y-90012520D02*
X142021560Y-83916520D01*
X141513560Y-90012520D02*
X142021560Y-90012520D01*
X141513560Y-83916520D02*
X141513560Y-90012520D01*
X143037560Y-81376520D02*
X143037560Y-83916520D01*
X140497560Y-81376520D02*
X143037560Y-81376520D01*
X140497560Y-81376520D02*
X140497560Y-83916520D01*
X145577560Y-81376520D02*
X145577560Y-83916520D01*
X145577560Y-81376520D02*
X148117560Y-81376520D01*
X146593560Y-83916520D02*
X146593560Y-90012520D01*
X146593560Y-90012520D02*
X147101560Y-90012520D01*
X147101560Y-90012520D02*
X147101560Y-83916520D01*
X148117560Y-83916520D02*
X145577560Y-83916520D01*
X145577560Y-83916520D02*
X143037560Y-83916520D01*
X144561560Y-90012520D02*
X144561560Y-83916520D01*
X144053560Y-90012520D02*
X144561560Y-90012520D01*
X144053560Y-83916520D02*
X144053560Y-90012520D01*
X145577560Y-81376520D02*
X145577560Y-83916520D01*
X143037560Y-81376520D02*
X145577560Y-81376520D01*
X143037560Y-81376520D02*
X143037560Y-83916520D01*
X148117560Y-81376520D02*
X148117560Y-83916520D01*
D12*
X122458480Y-88427560D02*
X122458480Y-90627200D01*
X122458480Y-90627200D02*
X122758200Y-90627200D01*
X122758200Y-90627200D02*
X122758200Y-88427560D01*
X120657620Y-86326980D02*
X120657620Y-90627200D01*
X121658380Y-86326980D02*
X121658380Y-90627200D01*
X120657620Y-86326980D02*
X121658380Y-86326980D01*
X119860060Y-88427560D02*
X119860060Y-86827360D01*
X118859300Y-88427560D02*
X119860060Y-88427560D01*
X118859300Y-86827360D02*
X118859300Y-88427560D01*
X119860060Y-86827360D02*
X118859300Y-86827360D01*
X123459240Y-86827360D02*
X122458480Y-86827360D01*
X122458480Y-86827360D02*
X122458480Y-88427560D01*
X122458480Y-88427560D02*
X123459240Y-88427560D01*
X123459240Y-88427560D02*
X123459240Y-86827360D01*
X118158260Y-84726780D02*
X124157740Y-84726780D01*
X118358920Y-82928460D02*
X118358920Y-84726780D01*
X123957080Y-82928460D02*
X123957080Y-84726780D01*
X124157740Y-90627200D02*
X118158260Y-90627200D01*
X118158260Y-90627200D02*
X118158260Y-82928460D01*
X118158260Y-82928460D02*
X118557040Y-82928460D01*
X118557040Y-82928460D02*
X118557040Y-84726780D01*
X123758960Y-84726780D02*
X123758960Y-82928460D01*
X123758960Y-82928460D02*
X124157740Y-82928460D01*
X124157740Y-82928460D02*
X124157740Y-90627200D01*
X129316480Y-88427560D02*
X129316480Y-90627200D01*
X129316480Y-90627200D02*
X129616200Y-90627200D01*
X129616200Y-90627200D02*
X129616200Y-88427560D01*
X127515620Y-86326980D02*
X127515620Y-90627200D01*
X128516380Y-86326980D02*
X128516380Y-90627200D01*
X127515620Y-86326980D02*
X128516380Y-86326980D01*
X126718060Y-88427560D02*
X126718060Y-86827360D01*
X125717300Y-88427560D02*
X126718060Y-88427560D01*
X125717300Y-86827360D02*
X125717300Y-88427560D01*
X126718060Y-86827360D02*
X125717300Y-86827360D01*
X130317240Y-86827360D02*
X129316480Y-86827360D01*
X129316480Y-86827360D02*
X129316480Y-88427560D01*
X129316480Y-88427560D02*
X130317240Y-88427560D01*
X130317240Y-88427560D02*
X130317240Y-86827360D01*
X125016260Y-84726780D02*
X131015740Y-84726780D01*
X125216920Y-82928460D02*
X125216920Y-84726780D01*
X130815080Y-82928460D02*
X130815080Y-84726780D01*
X131015740Y-90627200D02*
X125016260Y-90627200D01*
X125016260Y-90627200D02*
X125016260Y-82928460D01*
X125016260Y-82928460D02*
X125415040Y-82928460D01*
X125415040Y-82928460D02*
X125415040Y-84726780D01*
X130616960Y-84726780D02*
X130616960Y-82928460D01*
X130616960Y-82928460D02*
X131015740Y-82928460D01*
X131015740Y-82928460D02*
X131015740Y-90627200D01*
X136174480Y-88427560D02*
X136174480Y-90627200D01*
X136174480Y-90627200D02*
X136474200Y-90627200D01*
X136474200Y-90627200D02*
X136474200Y-88427560D01*
X134373620Y-86326980D02*
X134373620Y-90627200D01*
X135374380Y-86326980D02*
X135374380Y-90627200D01*
X134373620Y-86326980D02*
X135374380Y-86326980D01*
X133576060Y-88427560D02*
X133576060Y-86827360D01*
X132575300Y-88427560D02*
X133576060Y-88427560D01*
X132575300Y-86827360D02*
X132575300Y-88427560D01*
X133576060Y-86827360D02*
X132575300Y-86827360D01*
X137175240Y-86827360D02*
X136174480Y-86827360D01*
X136174480Y-86827360D02*
X136174480Y-88427560D01*
X136174480Y-88427560D02*
X137175240Y-88427560D01*
X137175240Y-88427560D02*
X137175240Y-86827360D01*
X131874260Y-84726780D02*
X137873740Y-84726780D01*
X132074920Y-82928460D02*
X132074920Y-84726780D01*
X137673080Y-82928460D02*
X137673080Y-84726780D01*
X137873740Y-90627200D02*
X131874260Y-90627200D01*
X131874260Y-90627200D02*
X131874260Y-82928460D01*
X131874260Y-82928460D02*
X132273040Y-82928460D01*
X132273040Y-82928460D02*
X132273040Y-84726780D01*
X137474960Y-84726780D02*
X137474960Y-82928460D01*
X137474960Y-82928460D02*
X137873740Y-82928460D01*
X137873740Y-82928460D02*
X137873740Y-90627200D01*
D11*
X99195000Y-90179000D02*
X99195000Y-88909000D01*
X114165000Y-90179000D02*
X114165000Y-88909000D01*
X114165000Y-52569000D02*
X114165000Y-53839000D01*
X99195000Y-52569000D02*
X99195000Y-53839000D01*
X99195000Y-90179000D02*
X114165000Y-90179000D01*
X99195000Y-52569000D02*
X114165000Y-52569000D01*
X99195000Y-88909000D02*
X98260000Y-88909000D01*
D12*
X121257060Y-79517240D02*
X121257060Y-79016860D01*
X121257060Y-79016860D02*
X121058940Y-79016860D01*
X121058940Y-79016860D02*
X121058940Y-79517240D01*
X118158260Y-76715620D02*
X118658640Y-76715620D01*
X118658640Y-78016100D02*
X118158260Y-78016100D01*
X123657360Y-78016100D02*
X124157740Y-78016100D01*
X123657360Y-76715620D02*
X124157740Y-76715620D01*
X121658380Y-75516740D02*
X121658380Y-76017120D01*
X121658380Y-76017120D02*
X123657360Y-76017120D01*
X123657360Y-76017120D02*
X123657360Y-79517240D01*
X123657360Y-79517240D02*
X118658640Y-79517240D01*
X118658640Y-79517240D02*
X118658640Y-76017120D01*
X118658640Y-76017120D02*
X120657620Y-76017120D01*
X120657620Y-76017120D02*
X120657620Y-75516740D01*
X124157740Y-75516740D02*
X124157740Y-80015080D01*
X118158260Y-75516740D02*
X118158260Y-80015080D01*
X122458480Y-75516740D02*
X122458480Y-75316080D01*
X122458480Y-75316080D02*
X122758200Y-75316080D01*
X122758200Y-75316080D02*
X122758200Y-75516740D01*
X118158260Y-75516740D02*
X124157740Y-75516740D01*
X124157740Y-80015080D02*
X118158260Y-80015080D01*
X128115060Y-79517240D02*
X128115060Y-79016860D01*
X128115060Y-79016860D02*
X127916940Y-79016860D01*
X127916940Y-79016860D02*
X127916940Y-79517240D01*
X125016260Y-76715620D02*
X125516640Y-76715620D01*
X125516640Y-78016100D02*
X125016260Y-78016100D01*
X130515360Y-78016100D02*
X131015740Y-78016100D01*
X130515360Y-76715620D02*
X131015740Y-76715620D01*
X128516380Y-75516740D02*
X128516380Y-76017120D01*
X128516380Y-76017120D02*
X130515360Y-76017120D01*
X130515360Y-76017120D02*
X130515360Y-79517240D01*
X130515360Y-79517240D02*
X125516640Y-79517240D01*
X125516640Y-79517240D02*
X125516640Y-76017120D01*
X125516640Y-76017120D02*
X127515620Y-76017120D01*
X127515620Y-76017120D02*
X127515620Y-75516740D01*
X131015740Y-75516740D02*
X131015740Y-80015080D01*
X125016260Y-75516740D02*
X125016260Y-80015080D01*
X129316480Y-75516740D02*
X129316480Y-75316080D01*
X129316480Y-75316080D02*
X129616200Y-75316080D01*
X129616200Y-75316080D02*
X129616200Y-75516740D01*
X125016260Y-75516740D02*
X131015740Y-75516740D01*
X131015740Y-80015080D02*
X125016260Y-80015080D01*
X134973060Y-79517240D02*
X134973060Y-79016860D01*
X134973060Y-79016860D02*
X134774940Y-79016860D01*
X134774940Y-79016860D02*
X134774940Y-79517240D01*
X131874260Y-76715620D02*
X132374640Y-76715620D01*
X132374640Y-78016100D02*
X131874260Y-78016100D01*
X137373360Y-78016100D02*
X137873740Y-78016100D01*
X137373360Y-76715620D02*
X137873740Y-76715620D01*
X135374380Y-75516740D02*
X135374380Y-76017120D01*
X135374380Y-76017120D02*
X137373360Y-76017120D01*
X137373360Y-76017120D02*
X137373360Y-79517240D01*
X137373360Y-79517240D02*
X132374640Y-79517240D01*
X132374640Y-79517240D02*
X132374640Y-76017120D01*
X132374640Y-76017120D02*
X134373620Y-76017120D01*
X134373620Y-76017120D02*
X134373620Y-75516740D01*
X137873740Y-75516740D02*
X137873740Y-80015080D01*
X131874260Y-75516740D02*
X131874260Y-80015080D01*
X136174480Y-75516740D02*
X136174480Y-75316080D01*
X136174480Y-75316080D02*
X136474200Y-75316080D01*
X136474200Y-75316080D02*
X136474200Y-75516740D01*
X131874260Y-75516740D02*
X137873740Y-75516740D01*
X137873740Y-80015080D02*
X131874260Y-80015080D01*
X121257060Y-71389240D02*
X121257060Y-70888860D01*
X121257060Y-70888860D02*
X121058940Y-70888860D01*
X121058940Y-70888860D02*
X121058940Y-71389240D01*
X118158260Y-68587620D02*
X118658640Y-68587620D01*
X118658640Y-69888100D02*
X118158260Y-69888100D01*
X123657360Y-69888100D02*
X124157740Y-69888100D01*
X123657360Y-68587620D02*
X124157740Y-68587620D01*
X121658380Y-67388740D02*
X121658380Y-67889120D01*
X121658380Y-67889120D02*
X123657360Y-67889120D01*
X123657360Y-67889120D02*
X123657360Y-71389240D01*
X123657360Y-71389240D02*
X118658640Y-71389240D01*
X118658640Y-71389240D02*
X118658640Y-67889120D01*
X118658640Y-67889120D02*
X120657620Y-67889120D01*
X120657620Y-67889120D02*
X120657620Y-67388740D01*
X124157740Y-67388740D02*
X124157740Y-71887080D01*
X118158260Y-67388740D02*
X118158260Y-71887080D01*
X122458480Y-67388740D02*
X122458480Y-67188080D01*
X122458480Y-67188080D02*
X122758200Y-67188080D01*
X122758200Y-67188080D02*
X122758200Y-67388740D01*
X118158260Y-67388740D02*
X124157740Y-67388740D01*
X124157740Y-71887080D02*
X118158260Y-71887080D01*
X128115060Y-71389240D02*
X128115060Y-70888860D01*
X128115060Y-70888860D02*
X127916940Y-70888860D01*
X127916940Y-70888860D02*
X127916940Y-71389240D01*
X125016260Y-68587620D02*
X125516640Y-68587620D01*
X125516640Y-69888100D02*
X125016260Y-69888100D01*
X130515360Y-69888100D02*
X131015740Y-69888100D01*
X130515360Y-68587620D02*
X131015740Y-68587620D01*
X128516380Y-67388740D02*
X128516380Y-67889120D01*
X128516380Y-67889120D02*
X130515360Y-67889120D01*
X130515360Y-67889120D02*
X130515360Y-71389240D01*
X130515360Y-71389240D02*
X125516640Y-71389240D01*
X125516640Y-71389240D02*
X125516640Y-67889120D01*
X125516640Y-67889120D02*
X127515620Y-67889120D01*
X127515620Y-67889120D02*
X127515620Y-67388740D01*
X131015740Y-67388740D02*
X131015740Y-71887080D01*
X125016260Y-67388740D02*
X125016260Y-71887080D01*
X129316480Y-67388740D02*
X129316480Y-67188080D01*
X129316480Y-67188080D02*
X129616200Y-67188080D01*
X129616200Y-67188080D02*
X129616200Y-67388740D01*
X125016260Y-67388740D02*
X131015740Y-67388740D01*
X131015740Y-71887080D02*
X125016260Y-71887080D01*
X134993380Y-71396860D02*
X134993380Y-70896480D01*
X134993380Y-70896480D02*
X134795260Y-70896480D01*
X134795260Y-70896480D02*
X134795260Y-71396860D01*
X131894580Y-68595240D02*
X132394960Y-68595240D01*
X132394960Y-69895720D02*
X131894580Y-69895720D01*
X137393680Y-69895720D02*
X137894060Y-69895720D01*
X137393680Y-68595240D02*
X137894060Y-68595240D01*
X135394700Y-67396360D02*
X135394700Y-67896740D01*
X135394700Y-67896740D02*
X137393680Y-67896740D01*
X137393680Y-67896740D02*
X137393680Y-71396860D01*
X137393680Y-71396860D02*
X132394960Y-71396860D01*
X132394960Y-71396860D02*
X132394960Y-67896740D01*
X132394960Y-67896740D02*
X134393940Y-67896740D01*
X134393940Y-67896740D02*
X134393940Y-67396360D01*
X137894060Y-67396360D02*
X137894060Y-71894700D01*
X131894580Y-67396360D02*
X131894580Y-71894700D01*
X136194800Y-67396360D02*
X136194800Y-67195700D01*
X136194800Y-67195700D02*
X136494520Y-67195700D01*
X136494520Y-67195700D02*
X136494520Y-67396360D01*
X131894580Y-67396360D02*
X137894060Y-67396360D01*
X137894060Y-71894700D02*
X131894580Y-71894700D01*
X142006320Y-71340980D02*
X142006320Y-70840600D01*
X142006320Y-70840600D02*
X141808200Y-70840600D01*
X141808200Y-70840600D02*
X141808200Y-71340980D01*
X138907520Y-68539360D02*
X139407900Y-68539360D01*
X139407900Y-69839840D02*
X138907520Y-69839840D01*
X144406620Y-69839840D02*
X144907000Y-69839840D01*
X144406620Y-68539360D02*
X144907000Y-68539360D01*
X142407640Y-67340480D02*
X142407640Y-67840860D01*
X142407640Y-67840860D02*
X144406620Y-67840860D01*
X144406620Y-67840860D02*
X144406620Y-71340980D01*
X144406620Y-71340980D02*
X139407900Y-71340980D01*
X139407900Y-71340980D02*
X139407900Y-67840860D01*
X139407900Y-67840860D02*
X141406880Y-67840860D01*
X141406880Y-67840860D02*
X141406880Y-67340480D01*
X144907000Y-67340480D02*
X144907000Y-71838820D01*
X138907520Y-67340480D02*
X138907520Y-71838820D01*
X143207740Y-67340480D02*
X143207740Y-67139820D01*
X143207740Y-67139820D02*
X143507460Y-67139820D01*
X143507460Y-67139820D02*
X143507460Y-67340480D01*
X138907520Y-67340480D02*
X144907000Y-67340480D01*
X144907000Y-71838820D02*
X138907520Y-71838820D01*
X124904500Y-58752740D02*
X116903500Y-58752740D01*
X117403880Y-62753240D02*
X124404120Y-62753240D01*
X124904500Y-63251080D02*
X116903500Y-63251080D01*
X121805700Y-62252860D02*
X121805700Y-62753240D01*
X122003820Y-62252860D02*
X121805700Y-62252860D01*
X122003820Y-62753240D02*
X122003820Y-62252860D01*
X120004840Y-62753240D02*
X120004840Y-62252860D01*
X120004840Y-62252860D02*
X119806720Y-62252860D01*
X119806720Y-62252860D02*
X119806720Y-62753240D01*
X116903500Y-59951620D02*
X117403880Y-59951620D01*
X117403880Y-61252100D02*
X116903500Y-61252100D01*
X124404120Y-61252100D02*
X124904500Y-61252100D01*
X124404120Y-59951620D02*
X124904500Y-59951620D01*
X122405140Y-58752740D02*
X122405140Y-59253120D01*
X122405140Y-59253120D02*
X124404120Y-59253120D01*
X124404120Y-59253120D02*
X124404120Y-62753240D01*
X117403880Y-62753240D02*
X117403880Y-59253120D01*
X117403880Y-59253120D02*
X119402860Y-59253120D01*
X119402860Y-59253120D02*
X119402860Y-58752740D01*
X124904500Y-58752740D02*
X124904500Y-63251080D01*
X116903500Y-58752740D02*
X116903500Y-63251080D01*
X123205240Y-58752740D02*
X123205240Y-58552080D01*
X123205240Y-58552080D02*
X123504960Y-58552080D01*
X123504960Y-58552080D02*
X123504960Y-58752740D01*
X134048500Y-58752740D02*
X126047500Y-58752740D01*
X126547880Y-62753240D02*
X133548120Y-62753240D01*
X134048500Y-63251080D02*
X126047500Y-63251080D01*
X130949700Y-62252860D02*
X130949700Y-62753240D01*
X131147820Y-62252860D02*
X130949700Y-62252860D01*
X131147820Y-62753240D02*
X131147820Y-62252860D01*
X129148840Y-62753240D02*
X129148840Y-62252860D01*
X129148840Y-62252860D02*
X128950720Y-62252860D01*
X128950720Y-62252860D02*
X128950720Y-62753240D01*
X126047500Y-59951620D02*
X126547880Y-59951620D01*
X126547880Y-61252100D02*
X126047500Y-61252100D01*
X133548120Y-61252100D02*
X134048500Y-61252100D01*
X133548120Y-59951620D02*
X134048500Y-59951620D01*
X131549140Y-58752740D02*
X131549140Y-59253120D01*
X131549140Y-59253120D02*
X133548120Y-59253120D01*
X133548120Y-59253120D02*
X133548120Y-62753240D01*
X126547880Y-62753240D02*
X126547880Y-59253120D01*
X126547880Y-59253120D02*
X128546860Y-59253120D01*
X128546860Y-59253120D02*
X128546860Y-58752740D01*
X134048500Y-58752740D02*
X134048500Y-63251080D01*
X126047500Y-58752740D02*
X126047500Y-63251080D01*
X132349240Y-58752740D02*
X132349240Y-58552080D01*
X132349240Y-58552080D02*
X132648960Y-58552080D01*
X132648960Y-58552080D02*
X132648960Y-58752740D01*
X143192500Y-58752740D02*
X135191500Y-58752740D01*
X135691880Y-62753240D02*
X142692120Y-62753240D01*
X143192500Y-63251080D02*
X135191500Y-63251080D01*
X140093700Y-62252860D02*
X140093700Y-62753240D01*
X140291820Y-62252860D02*
X140093700Y-62252860D01*
X140291820Y-62753240D02*
X140291820Y-62252860D01*
X138292840Y-62753240D02*
X138292840Y-62252860D01*
X138292840Y-62252860D02*
X138094720Y-62252860D01*
X138094720Y-62252860D02*
X138094720Y-62753240D01*
X135191500Y-59951620D02*
X135691880Y-59951620D01*
X135691880Y-61252100D02*
X135191500Y-61252100D01*
X142692120Y-61252100D02*
X143192500Y-61252100D01*
X142692120Y-59951620D02*
X143192500Y-59951620D01*
X140693140Y-58752740D02*
X140693140Y-59253120D01*
X140693140Y-59253120D02*
X142692120Y-59253120D01*
X142692120Y-59253120D02*
X142692120Y-62753240D01*
X135691880Y-62753240D02*
X135691880Y-59253120D01*
X135691880Y-59253120D02*
X137690860Y-59253120D01*
X137690860Y-59253120D02*
X137690860Y-58752740D01*
X143192500Y-58752740D02*
X143192500Y-63251080D01*
X135191500Y-58752740D02*
X135191500Y-63251080D01*
X141493240Y-58752740D02*
X141493240Y-58552080D01*
X141493240Y-58552080D02*
X141792960Y-58552080D01*
X141792960Y-58552080D02*
X141792960Y-58752740D01*
X147119340Y-62743080D02*
X147119340Y-62242700D01*
X147119340Y-62242700D02*
X146921220Y-62242700D01*
X146921220Y-62242700D02*
X146921220Y-62743080D01*
X144020540Y-59941460D02*
X144520920Y-59941460D01*
X144520920Y-61241940D02*
X144020540Y-61241940D01*
X149519640Y-61241940D02*
X150020020Y-61241940D01*
X149519640Y-59941460D02*
X150020020Y-59941460D01*
X147520660Y-58742580D02*
X147520660Y-59242960D01*
X147520660Y-59242960D02*
X149519640Y-59242960D01*
X149519640Y-59242960D02*
X149519640Y-62743080D01*
X149519640Y-62743080D02*
X144520920Y-62743080D01*
X144520920Y-62743080D02*
X144520920Y-59242960D01*
X144520920Y-59242960D02*
X146519900Y-59242960D01*
X146519900Y-59242960D02*
X146519900Y-58742580D01*
X150020020Y-58742580D02*
X150020020Y-63240920D01*
X144020540Y-58742580D02*
X144020540Y-63240920D01*
X148320760Y-58742580D02*
X148320760Y-58541920D01*
X148320760Y-58541920D02*
X148620480Y-58541920D01*
X148620480Y-58541920D02*
X148620480Y-58742580D01*
X144020540Y-58742580D02*
X150020020Y-58742580D01*
X150020020Y-63240920D02*
X144020540Y-63240920D01*
D11*
X137119941Y-79090615D02*
X136119941Y-79090615D01*
X137119941Y-79662044D01*
X136119941Y-79662044D01*
X137119941Y-80662044D02*
X137119941Y-80090615D01*
X137119941Y-80376329D02*
X136119941Y-80376329D01*
X136262798Y-80281091D01*
X136358036Y-80185853D01*
X136405655Y-80090615D01*
D13*
X122282857Y-82218349D02*
X122282857Y-80694349D01*
X121702285Y-80694349D01*
X121557143Y-80766920D01*
X121484571Y-80839491D01*
X121412000Y-80984634D01*
X121412000Y-81202349D01*
X121484571Y-81347491D01*
X121557143Y-81420063D01*
X121702285Y-81492634D01*
X122282857Y-81492634D01*
X119960571Y-82218349D02*
X120831428Y-82218349D01*
X120396000Y-82218349D02*
X120396000Y-80694349D01*
X120541143Y-80912063D01*
X120686285Y-81057206D01*
X120831428Y-81129777D01*
X129140857Y-82218349D02*
X129140857Y-80694349D01*
X128560285Y-80694349D01*
X128415143Y-80766920D01*
X128342571Y-80839491D01*
X128270000Y-80984634D01*
X128270000Y-81202349D01*
X128342571Y-81347491D01*
X128415143Y-81420063D01*
X128560285Y-81492634D01*
X129140857Y-81492634D01*
X127689428Y-80839491D02*
X127616857Y-80766920D01*
X127471714Y-80694349D01*
X127108857Y-80694349D01*
X126963714Y-80766920D01*
X126891143Y-80839491D01*
X126818571Y-80984634D01*
X126818571Y-81129777D01*
X126891143Y-81347491D01*
X127762000Y-82218349D01*
X126818571Y-82218349D01*
X135998857Y-82218349D02*
X135998857Y-80694349D01*
X135418285Y-80694349D01*
X135273143Y-80766920D01*
X135200571Y-80839491D01*
X135128000Y-80984634D01*
X135128000Y-81202349D01*
X135200571Y-81347491D01*
X135273143Y-81420063D01*
X135418285Y-81492634D01*
X135998857Y-81492634D01*
X134620000Y-80694349D02*
X133676571Y-80694349D01*
X134184571Y-81274920D01*
X133966857Y-81274920D01*
X133821714Y-81347491D01*
X133749143Y-81420063D01*
X133676571Y-81565206D01*
X133676571Y-81928063D01*
X133749143Y-82073206D01*
X133821714Y-82145777D01*
X133966857Y-82218349D01*
X134402285Y-82218349D01*
X134547428Y-82145777D01*
X134620000Y-82073206D01*
D11*
X107162505Y-88911181D02*
X107162505Y-89720705D01*
X107114886Y-89815943D01*
X107067267Y-89863562D01*
X106972029Y-89911181D01*
X106781552Y-89911181D01*
X106686314Y-89863562D01*
X106638695Y-89815943D01*
X106591076Y-89720705D01*
X106591076Y-88911181D01*
X105591076Y-89911181D02*
X106162505Y-89911181D01*
X105876791Y-89911181D02*
X105876791Y-88911181D01*
X105972029Y-89054038D01*
X106067267Y-89149276D01*
X106162505Y-89196895D01*
D13*
X122282857Y-74905689D02*
X122282857Y-73381689D01*
X121702285Y-73381689D01*
X121557143Y-73454260D01*
X121484571Y-73526831D01*
X121412000Y-73671974D01*
X121412000Y-73889689D01*
X121484571Y-74034831D01*
X121557143Y-74107403D01*
X121702285Y-74179974D01*
X122282857Y-74179974D01*
X120105714Y-73889689D02*
X120105714Y-74905689D01*
X120468571Y-73309117D02*
X120831428Y-74397689D01*
X119888000Y-74397689D01*
X129140857Y-74905689D02*
X129140857Y-73381689D01*
X128560285Y-73381689D01*
X128415143Y-73454260D01*
X128342571Y-73526831D01*
X128270000Y-73671974D01*
X128270000Y-73889689D01*
X128342571Y-74034831D01*
X128415143Y-74107403D01*
X128560285Y-74179974D01*
X129140857Y-74179974D01*
X126891143Y-73381689D02*
X127616857Y-73381689D01*
X127689428Y-74107403D01*
X127616857Y-74034831D01*
X127471714Y-73962260D01*
X127108857Y-73962260D01*
X126963714Y-74034831D01*
X126891143Y-74107403D01*
X126818571Y-74252546D01*
X126818571Y-74615403D01*
X126891143Y-74760546D01*
X126963714Y-74833117D01*
X127108857Y-74905689D01*
X127471714Y-74905689D01*
X127616857Y-74833117D01*
X127689428Y-74760546D01*
X135998857Y-74905689D02*
X135998857Y-73381689D01*
X135418285Y-73381689D01*
X135273143Y-73454260D01*
X135200571Y-73526831D01*
X135128000Y-73671974D01*
X135128000Y-73889689D01*
X135200571Y-74034831D01*
X135273143Y-74107403D01*
X135418285Y-74179974D01*
X135998857Y-74179974D01*
X133821714Y-73381689D02*
X134112000Y-73381689D01*
X134257143Y-73454260D01*
X134329714Y-73526831D01*
X134474857Y-73744546D01*
X134547428Y-74034831D01*
X134547428Y-74615403D01*
X134474857Y-74760546D01*
X134402285Y-74833117D01*
X134257143Y-74905689D01*
X133966857Y-74905689D01*
X133821714Y-74833117D01*
X133749143Y-74760546D01*
X133676571Y-74615403D01*
X133676571Y-74252546D01*
X133749143Y-74107403D01*
X133821714Y-74034831D01*
X133966857Y-73962260D01*
X134257143Y-73962260D01*
X134402285Y-74034831D01*
X134474857Y-74107403D01*
X134547428Y-74252546D01*
X122282857Y-66777689D02*
X122282857Y-65253689D01*
X121702285Y-65253689D01*
X121557143Y-65326260D01*
X121484571Y-65398831D01*
X121412000Y-65543974D01*
X121412000Y-65761689D01*
X121484571Y-65906831D01*
X121557143Y-65979403D01*
X121702285Y-66051974D01*
X122282857Y-66051974D01*
X120904000Y-65253689D02*
X119888000Y-65253689D01*
X120541143Y-66777689D01*
X129140857Y-66777689D02*
X129140857Y-65253689D01*
X128560285Y-65253689D01*
X128415143Y-65326260D01*
X128342571Y-65398831D01*
X128270000Y-65543974D01*
X128270000Y-65761689D01*
X128342571Y-65906831D01*
X128415143Y-65979403D01*
X128560285Y-66051974D01*
X129140857Y-66051974D01*
X127399143Y-65906831D02*
X127544285Y-65834260D01*
X127616857Y-65761689D01*
X127689428Y-65616546D01*
X127689428Y-65543974D01*
X127616857Y-65398831D01*
X127544285Y-65326260D01*
X127399143Y-65253689D01*
X127108857Y-65253689D01*
X126963714Y-65326260D01*
X126891143Y-65398831D01*
X126818571Y-65543974D01*
X126818571Y-65616546D01*
X126891143Y-65761689D01*
X126963714Y-65834260D01*
X127108857Y-65906831D01*
X127399143Y-65906831D01*
X127544285Y-65979403D01*
X127616857Y-66051974D01*
X127689428Y-66197117D01*
X127689428Y-66487403D01*
X127616857Y-66632546D01*
X127544285Y-66705117D01*
X127399143Y-66777689D01*
X127108857Y-66777689D01*
X126963714Y-66705117D01*
X126891143Y-66632546D01*
X126818571Y-66487403D01*
X126818571Y-66197117D01*
X126891143Y-66051974D01*
X126963714Y-65979403D01*
X127108857Y-65906831D01*
X136019177Y-66785309D02*
X136019177Y-65261309D01*
X135438605Y-65261309D01*
X135293463Y-65333880D01*
X135220891Y-65406451D01*
X135148320Y-65551594D01*
X135148320Y-65769309D01*
X135220891Y-65914451D01*
X135293463Y-65987023D01*
X135438605Y-66059594D01*
X136019177Y-66059594D01*
X134422605Y-66785309D02*
X134132320Y-66785309D01*
X133987177Y-66712737D01*
X133914605Y-66640166D01*
X133769463Y-66422451D01*
X133696891Y-66132166D01*
X133696891Y-65551594D01*
X133769463Y-65406451D01*
X133842034Y-65333880D01*
X133987177Y-65261309D01*
X134277463Y-65261309D01*
X134422605Y-65333880D01*
X134495177Y-65406451D01*
X134567748Y-65551594D01*
X134567748Y-65914451D01*
X134495177Y-66059594D01*
X134422605Y-66132166D01*
X134277463Y-66204737D01*
X133987177Y-66204737D01*
X133842034Y-66132166D01*
X133769463Y-66059594D01*
X133696891Y-65914451D01*
X143757832Y-66729429D02*
X143757832Y-65205429D01*
X143177260Y-65205429D01*
X143032118Y-65278000D01*
X142959546Y-65350571D01*
X142886975Y-65495714D01*
X142886975Y-65713429D01*
X142959546Y-65858571D01*
X143032118Y-65931143D01*
X143177260Y-66003714D01*
X143757832Y-66003714D01*
X141435546Y-66729429D02*
X142306403Y-66729429D01*
X141870975Y-66729429D02*
X141870975Y-65205429D01*
X142016118Y-65423143D01*
X142161260Y-65568286D01*
X142306403Y-65640857D01*
X140492117Y-65205429D02*
X140346974Y-65205429D01*
X140201831Y-65278000D01*
X140129260Y-65350571D01*
X140056689Y-65495714D01*
X139984117Y-65786000D01*
X139984117Y-66148857D01*
X140056689Y-66439143D01*
X140129260Y-66584286D01*
X140201831Y-66656857D01*
X140346974Y-66729429D01*
X140492117Y-66729429D01*
X140637260Y-66656857D01*
X140709831Y-66584286D01*
X140782403Y-66439143D01*
X140854974Y-66148857D01*
X140854974Y-65786000D01*
X140782403Y-65495714D01*
X140709831Y-65350571D01*
X140637260Y-65278000D01*
X140492117Y-65205429D01*
X122754572Y-58141689D02*
X122754572Y-56617689D01*
X122174000Y-56617689D01*
X122028858Y-56690260D01*
X121956286Y-56762831D01*
X121883715Y-56907974D01*
X121883715Y-57125689D01*
X121956286Y-57270831D01*
X122028858Y-57343403D01*
X122174000Y-57415974D01*
X122754572Y-57415974D01*
X120432286Y-58141689D02*
X121303143Y-58141689D01*
X120867715Y-58141689D02*
X120867715Y-56617689D01*
X121012858Y-56835403D01*
X121158000Y-56980546D01*
X121303143Y-57053117D01*
X118980857Y-58141689D02*
X119851714Y-58141689D01*
X119416286Y-58141689D02*
X119416286Y-56617689D01*
X119561429Y-56835403D01*
X119706571Y-56980546D01*
X119851714Y-57053117D01*
X131898572Y-58141689D02*
X131898572Y-56617689D01*
X131318000Y-56617689D01*
X131172858Y-56690260D01*
X131100286Y-56762831D01*
X131027715Y-56907974D01*
X131027715Y-57125689D01*
X131100286Y-57270831D01*
X131172858Y-57343403D01*
X131318000Y-57415974D01*
X131898572Y-57415974D01*
X129576286Y-58141689D02*
X130447143Y-58141689D01*
X130011715Y-58141689D02*
X130011715Y-56617689D01*
X130156858Y-56835403D01*
X130302000Y-56980546D01*
X130447143Y-57053117D01*
X128995714Y-56762831D02*
X128923143Y-56690260D01*
X128778000Y-56617689D01*
X128415143Y-56617689D01*
X128270000Y-56690260D01*
X128197429Y-56762831D01*
X128124857Y-56907974D01*
X128124857Y-57053117D01*
X128197429Y-57270831D01*
X129068286Y-58141689D01*
X128124857Y-58141689D01*
X141042572Y-58141689D02*
X141042572Y-56617689D01*
X140462000Y-56617689D01*
X140316858Y-56690260D01*
X140244286Y-56762831D01*
X140171715Y-56907974D01*
X140171715Y-57125689D01*
X140244286Y-57270831D01*
X140316858Y-57343403D01*
X140462000Y-57415974D01*
X141042572Y-57415974D01*
X138720286Y-58141689D02*
X139591143Y-58141689D01*
X139155715Y-58141689D02*
X139155715Y-56617689D01*
X139300858Y-56835403D01*
X139446000Y-56980546D01*
X139591143Y-57053117D01*
X138212286Y-56617689D02*
X137268857Y-56617689D01*
X137776857Y-57198260D01*
X137559143Y-57198260D01*
X137414000Y-57270831D01*
X137341429Y-57343403D01*
X137268857Y-57488546D01*
X137268857Y-57851403D01*
X137341429Y-57996546D01*
X137414000Y-58069117D01*
X137559143Y-58141689D01*
X137994571Y-58141689D01*
X138139714Y-58069117D01*
X138212286Y-57996546D01*
X148870852Y-58131529D02*
X148870852Y-56607529D01*
X148290280Y-56607529D01*
X148145138Y-56680100D01*
X148072566Y-56752671D01*
X147999995Y-56897814D01*
X147999995Y-57115529D01*
X148072566Y-57260671D01*
X148145138Y-57333243D01*
X148290280Y-57405814D01*
X148870852Y-57405814D01*
X146548566Y-58131529D02*
X147419423Y-58131529D01*
X146983995Y-58131529D02*
X146983995Y-56607529D01*
X147129138Y-56825243D01*
X147274280Y-56970386D01*
X147419423Y-57042957D01*
X145242280Y-57115529D02*
X145242280Y-58131529D01*
X145605137Y-56534957D02*
X145967994Y-57623529D01*
X145024566Y-57623529D01*
%LPC*%
D14*
X153301700Y-87896700D03*
X153301700Y-53797200D03*
D15*
X90678000Y-60686950D03*
D16*
X90678000Y-63226950D03*
X90678000Y-65766950D03*
X90678000Y-68306950D03*
X90678000Y-70846950D03*
X90678000Y-73386950D03*
X90678000Y-75926950D03*
X90678000Y-78466950D03*
X90678000Y-81006950D03*
D17*
X141767560Y-79852520D03*
D18*
X144307560Y-79852520D03*
X146847560Y-79852520D03*
D19*
X122158760Y-84328000D03*
D20*
X120157240Y-84328000D03*
D19*
X129016760Y-84328000D03*
D20*
X127015240Y-84328000D03*
D19*
X135874760Y-84328000D03*
D20*
X133873240Y-84328000D03*
D21*
X99060000Y-87884000D03*
X99060000Y-85344000D03*
X99060000Y-82804000D03*
X99060000Y-80264000D03*
X99060000Y-77724000D03*
X99060000Y-75184000D03*
X99060000Y-72644000D03*
X99060000Y-70104000D03*
X99060000Y-67564000D03*
X99060000Y-65024000D03*
X99060000Y-62484000D03*
X99060000Y-59944000D03*
X99060000Y-57404000D03*
X99060000Y-54864000D03*
X114300000Y-54864000D03*
X114300000Y-57404000D03*
X114300000Y-59944000D03*
X114300000Y-62484000D03*
X114300000Y-65024000D03*
X114300000Y-67564000D03*
X114300000Y-70104000D03*
X114300000Y-72644000D03*
X114300000Y-75184000D03*
X114300000Y-77724000D03*
X114300000Y-80264000D03*
X114300000Y-82804000D03*
X114300000Y-85344000D03*
X114300000Y-87884000D03*
D14*
X91897200Y-53797200D03*
X91897200Y-87896700D03*
D19*
X122158760Y-77216000D03*
D20*
X120157240Y-77216000D03*
D19*
X129016760Y-77216000D03*
D20*
X127015240Y-77216000D03*
D19*
X135874760Y-77216000D03*
D20*
X133873240Y-77216000D03*
D19*
X122158760Y-69088000D03*
D20*
X120157240Y-69088000D03*
D19*
X129016760Y-69088000D03*
D20*
X127015240Y-69088000D03*
D19*
X135895080Y-69095620D03*
D20*
X133893560Y-69095620D03*
D19*
X142908020Y-69039740D03*
D20*
X140906500Y-69039740D03*
D19*
X122905520Y-60452000D03*
D20*
X118902480Y-60452000D03*
X120904000Y-60452000D03*
D19*
X132049520Y-60452000D03*
D20*
X128046480Y-60452000D03*
X130048000Y-60452000D03*
D19*
X141193520Y-60452000D03*
D20*
X137190480Y-60452000D03*
X139192000Y-60452000D03*
D19*
X148021040Y-60441840D03*
D20*
X146019520Y-60441840D03*
D15*
X154520900Y-65766950D03*
D16*
X154520900Y-68306950D03*
X154520900Y-70846950D03*
X154520900Y-73386950D03*
X154520900Y-75926950D03*
M02*
