G04 #@! TF.FileFunction,Soldermask,Top*
%FSLAX46Y46*%
G04 Gerber Fmt 4.6, Leading zero omitted, Abs format (unit mm)*
G04 Created by KiCad (PCBNEW 4.0.1-stable) date 2016/05/21 17:47:10*
%MOMM*%
G01*
G04 APERTURE LIST*
%ADD10C,0.100000*%
%ADD11C,5.080000*%
%ADD12R,2.032000X1.727200*%
%ADD13O,2.032000X1.727200*%
%ADD14R,1.727200X2.032000*%
%ADD15O,1.727200X2.032000*%
%ADD16R,1.198880X1.699260*%
%ADD17O,1.198880X1.699260*%
%ADD18O,1.600000X1.600000*%
G04 APERTURE END LIST*
D10*
D11*
X153301700Y-87896700D03*
X153301700Y-53797200D03*
D12*
X90678000Y-60686950D03*
D13*
X90678000Y-63226950D03*
X90678000Y-65766950D03*
X90678000Y-68306950D03*
X90678000Y-70846950D03*
X90678000Y-73386950D03*
X90678000Y-75926950D03*
X90678000Y-78466950D03*
X90678000Y-81006950D03*
D14*
X141767560Y-79852520D03*
D15*
X144307560Y-79852520D03*
X146847560Y-79852520D03*
D16*
X122158760Y-84328000D03*
D17*
X120157240Y-84328000D03*
D16*
X129016760Y-84328000D03*
D17*
X127015240Y-84328000D03*
D16*
X135874760Y-84328000D03*
D17*
X133873240Y-84328000D03*
D18*
X99060000Y-87884000D03*
X99060000Y-85344000D03*
X99060000Y-82804000D03*
X99060000Y-80264000D03*
X99060000Y-77724000D03*
X99060000Y-75184000D03*
X99060000Y-72644000D03*
X99060000Y-70104000D03*
X99060000Y-67564000D03*
X99060000Y-65024000D03*
X99060000Y-62484000D03*
X99060000Y-59944000D03*
X99060000Y-57404000D03*
X99060000Y-54864000D03*
X114300000Y-54864000D03*
X114300000Y-57404000D03*
X114300000Y-59944000D03*
X114300000Y-62484000D03*
X114300000Y-65024000D03*
X114300000Y-67564000D03*
X114300000Y-70104000D03*
X114300000Y-72644000D03*
X114300000Y-75184000D03*
X114300000Y-77724000D03*
X114300000Y-80264000D03*
X114300000Y-82804000D03*
X114300000Y-85344000D03*
X114300000Y-87884000D03*
D11*
X91897200Y-53797200D03*
X91897200Y-87896700D03*
D16*
X122158760Y-77216000D03*
D17*
X120157240Y-77216000D03*
D16*
X129016760Y-77216000D03*
D17*
X127015240Y-77216000D03*
D16*
X135874760Y-77216000D03*
D17*
X133873240Y-77216000D03*
D16*
X122158760Y-69088000D03*
D17*
X120157240Y-69088000D03*
D16*
X129016760Y-69088000D03*
D17*
X127015240Y-69088000D03*
D16*
X135895080Y-69095620D03*
D17*
X133893560Y-69095620D03*
D16*
X142908020Y-69039740D03*
D17*
X140906500Y-69039740D03*
D16*
X122905520Y-60452000D03*
D17*
X118902480Y-60452000D03*
X120904000Y-60452000D03*
D16*
X132049520Y-60452000D03*
D17*
X128046480Y-60452000D03*
X130048000Y-60452000D03*
D16*
X141193520Y-60452000D03*
D17*
X137190480Y-60452000D03*
X139192000Y-60452000D03*
D16*
X148021040Y-60441840D03*
D17*
X146019520Y-60441840D03*
D12*
X154520900Y-65766950D03*
D13*
X154520900Y-68306950D03*
X154520900Y-70846950D03*
X154520900Y-73386950D03*
X154520900Y-75926950D03*
M02*
