G04 #@! TF.FileFunction,Copper,L2,Bot,Signal*
%FSLAX46Y46*%
G04 Gerber Fmt 4.6, Leading zero omitted, Abs format (unit mm)*
G04 Created by KiCad (PCBNEW 4.0.1-stable) date 2016/05/21 17:47:10*
%MOMM*%
G01*
G04 APERTURE LIST*
%ADD10C,0.100000*%
%ADD11C,5.080000*%
%ADD12R,2.032000X1.727200*%
%ADD13O,2.032000X1.727200*%
%ADD14R,1.727200X2.032000*%
%ADD15O,1.727200X2.032000*%
%ADD16R,1.198880X1.699260*%
%ADD17O,1.198880X1.699260*%
%ADD18O,1.600000X1.600000*%
%ADD19C,0.800000*%
%ADD20C,0.250000*%
%ADD21C,0.254000*%
G04 APERTURE END LIST*
D10*
D11*
X153301700Y-87896700D03*
X153301700Y-53797200D03*
D12*
X90678000Y-60686950D03*
D13*
X90678000Y-63226950D03*
X90678000Y-65766950D03*
X90678000Y-68306950D03*
X90678000Y-70846950D03*
X90678000Y-73386950D03*
X90678000Y-75926950D03*
X90678000Y-78466950D03*
X90678000Y-81006950D03*
D14*
X141767560Y-79852520D03*
D15*
X144307560Y-79852520D03*
X146847560Y-79852520D03*
D16*
X122158760Y-84328000D03*
D17*
X120157240Y-84328000D03*
D16*
X129016760Y-84328000D03*
D17*
X127015240Y-84328000D03*
D16*
X135874760Y-84328000D03*
D17*
X133873240Y-84328000D03*
D18*
X99060000Y-87884000D03*
X99060000Y-85344000D03*
X99060000Y-82804000D03*
X99060000Y-80264000D03*
X99060000Y-77724000D03*
X99060000Y-75184000D03*
X99060000Y-72644000D03*
X99060000Y-70104000D03*
X99060000Y-67564000D03*
X99060000Y-65024000D03*
X99060000Y-62484000D03*
X99060000Y-59944000D03*
X99060000Y-57404000D03*
X99060000Y-54864000D03*
X114300000Y-54864000D03*
X114300000Y-57404000D03*
X114300000Y-59944000D03*
X114300000Y-62484000D03*
X114300000Y-65024000D03*
X114300000Y-67564000D03*
X114300000Y-70104000D03*
X114300000Y-72644000D03*
X114300000Y-75184000D03*
X114300000Y-77724000D03*
X114300000Y-80264000D03*
X114300000Y-82804000D03*
X114300000Y-85344000D03*
X114300000Y-87884000D03*
D11*
X91897200Y-53797200D03*
X91897200Y-87896700D03*
D16*
X122158760Y-77216000D03*
D17*
X120157240Y-77216000D03*
D16*
X129016760Y-77216000D03*
D17*
X127015240Y-77216000D03*
D16*
X135874760Y-77216000D03*
D17*
X133873240Y-77216000D03*
D16*
X122158760Y-69088000D03*
D17*
X120157240Y-69088000D03*
D16*
X129016760Y-69088000D03*
D17*
X127015240Y-69088000D03*
D16*
X135895080Y-69095620D03*
D17*
X133893560Y-69095620D03*
D16*
X142908020Y-69039740D03*
D17*
X140906500Y-69039740D03*
D16*
X122905520Y-60452000D03*
D17*
X118902480Y-60452000D03*
X120904000Y-60452000D03*
D16*
X132049520Y-60452000D03*
D17*
X128046480Y-60452000D03*
X130048000Y-60452000D03*
D16*
X141193520Y-60452000D03*
D17*
X137190480Y-60452000D03*
X139192000Y-60452000D03*
D16*
X148021040Y-60441840D03*
D17*
X146019520Y-60441840D03*
D12*
X154520900Y-65766950D03*
D13*
X154520900Y-68306950D03*
X154520900Y-70846950D03*
X154520900Y-73386950D03*
X154520900Y-75926950D03*
D19*
X94234000Y-60706000D03*
X104825800Y-65227200D03*
X144703800Y-64693800D03*
X111125000Y-66294000D03*
X134620000Y-55753000D03*
D20*
X98806000Y-59944000D02*
X92983050Y-65766950D01*
X92983050Y-65766950D02*
X90678000Y-65766950D01*
X90678000Y-68306950D02*
X91967050Y-68306950D01*
X109728000Y-57404000D02*
X114300000Y-57404000D01*
X103378000Y-63754000D02*
X109728000Y-57404000D01*
X96520000Y-63754000D02*
X103378000Y-63754000D01*
X91967050Y-68306950D02*
X96520000Y-63754000D01*
X90678000Y-68306950D02*
X90697050Y-68306950D01*
X90678000Y-68306950D02*
X90678000Y-68249800D01*
X114300000Y-59944000D02*
X108458000Y-59944000D01*
X95230950Y-66294000D02*
X90678000Y-70846950D01*
X102108000Y-66294000D02*
X95230950Y-66294000D01*
X108458000Y-59944000D02*
X102108000Y-66294000D01*
X114300000Y-59944000D02*
X114249200Y-59944000D01*
X94234000Y-60706000D02*
X97536000Y-57404000D01*
X97536000Y-57404000D02*
X99060000Y-57404000D01*
X90678000Y-75926950D02*
X90697050Y-75926950D01*
X90697050Y-75926950D02*
X97891600Y-68732400D01*
X98044000Y-68707000D02*
X98044000Y-68732400D01*
X98018600Y-68732400D02*
X98044000Y-68707000D01*
X97891600Y-68732400D02*
X98018600Y-68732400D01*
X98044000Y-68732400D02*
X101320600Y-68732400D01*
X101320600Y-68732400D02*
X104825800Y-65227200D01*
X144307560Y-79852520D02*
X145516600Y-78643480D01*
X145516600Y-65506600D02*
X145516600Y-78643480D01*
X144703800Y-64693800D02*
X145516600Y-65506600D01*
X99060000Y-85344000D02*
X110134400Y-85344000D01*
X110134400Y-85344000D02*
X111379000Y-84099400D01*
X111379000Y-84099400D02*
X117525800Y-84099400D01*
X117525800Y-84099400D02*
X118694200Y-82931000D01*
X118694200Y-82931000D02*
X120761760Y-82931000D01*
X120761760Y-82931000D02*
X122158760Y-84328000D01*
X99060000Y-82804000D02*
X110363000Y-82804000D01*
X110363000Y-82804000D02*
X111658400Y-81508600D01*
X111658400Y-81508600D02*
X126197360Y-81508600D01*
X126197360Y-81508600D02*
X129016760Y-84328000D01*
X99060000Y-80264000D02*
X110413800Y-80264000D01*
X110413800Y-80264000D02*
X111683800Y-78994000D01*
X111683800Y-78994000D02*
X115697000Y-78994000D01*
X115697000Y-78994000D02*
X117398800Y-80695800D01*
X117398800Y-80695800D02*
X132242560Y-80695800D01*
X132242560Y-80695800D02*
X135874760Y-84328000D01*
X99060000Y-77724000D02*
X109880400Y-77724000D01*
X109880400Y-77724000D02*
X111048800Y-76555600D01*
X111048800Y-76555600D02*
X115900200Y-76555600D01*
X115900200Y-76555600D02*
X117957600Y-78613000D01*
X117957600Y-78613000D02*
X120761760Y-78613000D01*
X120761760Y-78613000D02*
X122158760Y-77216000D01*
X99060000Y-75184000D02*
X110312200Y-75184000D01*
X110312200Y-75184000D02*
X111531400Y-73964800D01*
X111531400Y-73964800D02*
X125765560Y-73964800D01*
X125765560Y-73964800D02*
X129016760Y-77216000D01*
X99060000Y-72644000D02*
X110312200Y-72644000D01*
X110312200Y-72644000D02*
X111658400Y-71297800D01*
X111658400Y-71297800D02*
X116027200Y-71297800D01*
X116027200Y-71297800D02*
X117805200Y-73075800D01*
X117805200Y-73075800D02*
X131734560Y-73075800D01*
X131734560Y-73075800D02*
X135874760Y-77216000D01*
X122158760Y-69088000D02*
X122158760Y-69072760D01*
X122158760Y-69072760D02*
X120650000Y-67564000D01*
X120650000Y-67564000D02*
X116332000Y-67564000D01*
X116332000Y-67564000D02*
X115062000Y-68834000D01*
X115062000Y-68834000D02*
X103124000Y-68834000D01*
X103124000Y-68834000D02*
X101854000Y-70104000D01*
X101854000Y-70104000D02*
X99060000Y-70104000D01*
X111125000Y-66294000D02*
X122301000Y-66294000D01*
X122301000Y-66294000D02*
X126746000Y-66294000D01*
X126746000Y-66294000D02*
X127889000Y-66294000D01*
X127889000Y-66294000D02*
X128905000Y-67310000D01*
X128905000Y-67310000D02*
X128905000Y-68976240D01*
X135895080Y-66934080D02*
X135895080Y-69095620D01*
X134620000Y-65659000D02*
X135895080Y-66934080D01*
X134620000Y-55753000D02*
X134620000Y-65659000D01*
X99060000Y-62484000D02*
X100914200Y-62484000D01*
X100914200Y-62484000D02*
X110693200Y-52705000D01*
X110693200Y-52705000D02*
X136855200Y-52705000D01*
X136855200Y-52705000D02*
X142908020Y-58757820D01*
X142908020Y-58757820D02*
X142908020Y-69039740D01*
X114300000Y-82804000D02*
X112776000Y-82804000D01*
X96259650Y-84048600D02*
X90678000Y-78466950D01*
X112776000Y-82804000D02*
X111455200Y-82804000D01*
X110210600Y-84048600D02*
X96393000Y-84048600D01*
X111455200Y-82804000D02*
X110210600Y-84048600D01*
X96393000Y-84048600D02*
X96259650Y-84048600D01*
D21*
G36*
X150611635Y-51996359D02*
X150127252Y-53162883D01*
X150126150Y-54425976D01*
X150608496Y-55593343D01*
X151500859Y-56487265D01*
X152667383Y-56971648D01*
X153930476Y-56972750D01*
X155097843Y-56490404D01*
X155906000Y-55683656D01*
X155906000Y-64387005D01*
X155788790Y-64306919D01*
X155536900Y-64255910D01*
X153504900Y-64255910D01*
X153269583Y-64300188D01*
X153053459Y-64439260D01*
X152908469Y-64651460D01*
X152857460Y-64903350D01*
X152857460Y-66630550D01*
X152901738Y-66865867D01*
X153040810Y-67081991D01*
X153253010Y-67226981D01*
X153294339Y-67235350D01*
X153276485Y-67247280D01*
X152951629Y-67733461D01*
X152837555Y-68306950D01*
X152951629Y-68880439D01*
X153276485Y-69366620D01*
X153591266Y-69576950D01*
X153276485Y-69787280D01*
X152951629Y-70273461D01*
X152837555Y-70846950D01*
X152951629Y-71420439D01*
X153276485Y-71906620D01*
X153591266Y-72116950D01*
X153276485Y-72327280D01*
X152951629Y-72813461D01*
X152837555Y-73386950D01*
X152951629Y-73960439D01*
X153276485Y-74446620D01*
X153591266Y-74656950D01*
X153276485Y-74867280D01*
X152951629Y-75353461D01*
X152837555Y-75926950D01*
X152951629Y-76500439D01*
X153276485Y-76986620D01*
X153762666Y-77311476D01*
X154336155Y-77425550D01*
X154705645Y-77425550D01*
X155279134Y-77311476D01*
X155765315Y-76986620D01*
X155906000Y-76776070D01*
X155906000Y-86011498D01*
X155102541Y-85206635D01*
X153936017Y-84722252D01*
X152672924Y-84721150D01*
X151505557Y-85203496D01*
X150611635Y-86095859D01*
X150127252Y-87262383D01*
X150126150Y-88525476D01*
X150608496Y-89692843D01*
X151123653Y-90208900D01*
X94075013Y-90208900D01*
X94587265Y-89697541D01*
X95071648Y-88531017D01*
X95071907Y-88233039D01*
X97668096Y-88233039D01*
X97828959Y-88621423D01*
X98204866Y-89036389D01*
X98710959Y-89275914D01*
X98933000Y-89154629D01*
X98933000Y-88011000D01*
X99187000Y-88011000D01*
X99187000Y-89154629D01*
X99409041Y-89275914D01*
X99915134Y-89036389D01*
X100291041Y-88621423D01*
X100451904Y-88233039D01*
X100329915Y-88011000D01*
X99187000Y-88011000D01*
X98933000Y-88011000D01*
X97790085Y-88011000D01*
X97668096Y-88233039D01*
X95071907Y-88233039D01*
X95072750Y-87267924D01*
X94590404Y-86100557D01*
X93698041Y-85206635D01*
X92531517Y-84722252D01*
X91268424Y-84721150D01*
X90101057Y-85203496D01*
X89207135Y-86095859D01*
X89204000Y-86103409D01*
X89204000Y-81723022D01*
X89433585Y-82066620D01*
X89919766Y-82391476D01*
X90493255Y-82505550D01*
X90862745Y-82505550D01*
X91436234Y-82391476D01*
X91922415Y-82066620D01*
X92247271Y-81580439D01*
X92325152Y-81188904D01*
X95722249Y-84586001D01*
X95968811Y-84750748D01*
X96259650Y-84808600D01*
X97703385Y-84808600D01*
X97596887Y-85344000D01*
X97706120Y-85893151D01*
X98017189Y-86358698D01*
X98421703Y-86628986D01*
X98204866Y-86731611D01*
X97828959Y-87146577D01*
X97668096Y-87534961D01*
X97790085Y-87757000D01*
X98933000Y-87757000D01*
X98933000Y-87737000D01*
X99187000Y-87737000D01*
X99187000Y-87757000D01*
X100329915Y-87757000D01*
X100451904Y-87534961D01*
X100291041Y-87146577D01*
X99915134Y-86731611D01*
X99698297Y-86628986D01*
X100102811Y-86358698D01*
X100272995Y-86104000D01*
X110134400Y-86104000D01*
X110425239Y-86046148D01*
X110671801Y-85881401D01*
X111693802Y-84859400D01*
X112933280Y-84859400D01*
X112836887Y-85344000D01*
X112946120Y-85893151D01*
X113257189Y-86358698D01*
X113639275Y-86614000D01*
X113257189Y-86869302D01*
X112946120Y-87334849D01*
X112836887Y-87884000D01*
X112946120Y-88433151D01*
X113257189Y-88898698D01*
X113722736Y-89209767D01*
X114271887Y-89319000D01*
X114328113Y-89319000D01*
X114877264Y-89209767D01*
X115342811Y-88898698D01*
X115653880Y-88433151D01*
X115763113Y-87884000D01*
X115653880Y-87334849D01*
X115342811Y-86869302D01*
X114960725Y-86614000D01*
X115342811Y-86358698D01*
X115653880Y-85893151D01*
X115763113Y-85344000D01*
X115666720Y-84859400D01*
X117525800Y-84859400D01*
X117816639Y-84801548D01*
X118042529Y-84650613D01*
X118912495Y-84650613D01*
X119034961Y-85121443D01*
X119328283Y-85509568D01*
X119747807Y-85755899D01*
X119839719Y-85771095D01*
X120030240Y-85646357D01*
X120030240Y-84455000D01*
X119075240Y-84455000D01*
X118912495Y-84650613D01*
X118042529Y-84650613D01*
X118063201Y-84636801D01*
X118989090Y-83710912D01*
X118912495Y-84005387D01*
X119075240Y-84201000D01*
X120030240Y-84201000D01*
X120030240Y-84181000D01*
X120284240Y-84181000D01*
X120284240Y-84201000D01*
X120304240Y-84201000D01*
X120304240Y-84455000D01*
X120284240Y-84455000D01*
X120284240Y-85646357D01*
X120474761Y-85771095D01*
X120566673Y-85755899D01*
X120986197Y-85509568D01*
X121003554Y-85486602D01*
X121095230Y-85629071D01*
X121307430Y-85774061D01*
X121559320Y-85825070D01*
X122758200Y-85825070D01*
X122993517Y-85780792D01*
X123209641Y-85641720D01*
X123354631Y-85429520D01*
X123405640Y-85177630D01*
X123405640Y-84650613D01*
X125770495Y-84650613D01*
X125892961Y-85121443D01*
X126186283Y-85509568D01*
X126605807Y-85755899D01*
X126697719Y-85771095D01*
X126888240Y-85646357D01*
X126888240Y-84455000D01*
X125933240Y-84455000D01*
X125770495Y-84650613D01*
X123405640Y-84650613D01*
X123405640Y-83478370D01*
X123361362Y-83243053D01*
X123222290Y-83026929D01*
X123010090Y-82881939D01*
X122758200Y-82830930D01*
X121736492Y-82830930D01*
X121299161Y-82393599D01*
X121112086Y-82268600D01*
X125882558Y-82268600D01*
X126548001Y-82934043D01*
X126186283Y-83146432D01*
X125892961Y-83534557D01*
X125770495Y-84005387D01*
X125933240Y-84201000D01*
X126888240Y-84201000D01*
X126888240Y-84181000D01*
X127142240Y-84181000D01*
X127142240Y-84201000D01*
X127162240Y-84201000D01*
X127162240Y-84455000D01*
X127142240Y-84455000D01*
X127142240Y-85646357D01*
X127332761Y-85771095D01*
X127424673Y-85755899D01*
X127844197Y-85509568D01*
X127861554Y-85486602D01*
X127953230Y-85629071D01*
X128165430Y-85774061D01*
X128417320Y-85825070D01*
X129616200Y-85825070D01*
X129851517Y-85780792D01*
X130067641Y-85641720D01*
X130212631Y-85429520D01*
X130263640Y-85177630D01*
X130263640Y-84650613D01*
X132628495Y-84650613D01*
X132750961Y-85121443D01*
X133044283Y-85509568D01*
X133463807Y-85755899D01*
X133555719Y-85771095D01*
X133746240Y-85646357D01*
X133746240Y-84455000D01*
X132791240Y-84455000D01*
X132628495Y-84650613D01*
X130263640Y-84650613D01*
X130263640Y-83478370D01*
X130219362Y-83243053D01*
X130080290Y-83026929D01*
X129868090Y-82881939D01*
X129616200Y-82830930D01*
X128594492Y-82830930D01*
X127219362Y-81455800D01*
X131927758Y-81455800D01*
X133406001Y-82934043D01*
X133044283Y-83146432D01*
X132750961Y-83534557D01*
X132628495Y-84005387D01*
X132791240Y-84201000D01*
X133746240Y-84201000D01*
X133746240Y-84181000D01*
X134000240Y-84181000D01*
X134000240Y-84201000D01*
X134020240Y-84201000D01*
X134020240Y-84455000D01*
X134000240Y-84455000D01*
X134000240Y-85646357D01*
X134190761Y-85771095D01*
X134282673Y-85755899D01*
X134702197Y-85509568D01*
X134719554Y-85486602D01*
X134811230Y-85629071D01*
X135023430Y-85774061D01*
X135275320Y-85825070D01*
X136474200Y-85825070D01*
X136709517Y-85780792D01*
X136925641Y-85641720D01*
X137070631Y-85429520D01*
X137121640Y-85177630D01*
X137121640Y-83478370D01*
X137077362Y-83243053D01*
X136938290Y-83026929D01*
X136726090Y-82881939D01*
X136474200Y-82830930D01*
X135452493Y-82830930D01*
X132779961Y-80158399D01*
X132533399Y-79993652D01*
X132242560Y-79935800D01*
X117713602Y-79935800D01*
X116234401Y-78456599D01*
X115987839Y-78291852D01*
X115697000Y-78234000D01*
X115661668Y-78234000D01*
X115763113Y-77724000D01*
X115705833Y-77436035D01*
X117420199Y-79150401D01*
X117666761Y-79315148D01*
X117957600Y-79373000D01*
X120761760Y-79373000D01*
X121052599Y-79315148D01*
X121299161Y-79150401D01*
X121613042Y-78836520D01*
X140256520Y-78836520D01*
X140256520Y-80868520D01*
X140300798Y-81103837D01*
X140439870Y-81319961D01*
X140652070Y-81464951D01*
X140903960Y-81515960D01*
X142631160Y-81515960D01*
X142866477Y-81471682D01*
X143082601Y-81332610D01*
X143227591Y-81120410D01*
X143235960Y-81079081D01*
X143247890Y-81096935D01*
X143734071Y-81421791D01*
X144307560Y-81535865D01*
X144881049Y-81421791D01*
X145367230Y-81096935D01*
X145574021Y-80787451D01*
X145945524Y-81203252D01*
X146472769Y-81457229D01*
X146488534Y-81459878D01*
X146720560Y-81338737D01*
X146720560Y-79979520D01*
X146974560Y-79979520D01*
X146974560Y-81338737D01*
X147206586Y-81459878D01*
X147222351Y-81457229D01*
X147749596Y-81203252D01*
X148139514Y-80766840D01*
X148332744Y-80214433D01*
X148188484Y-79979520D01*
X146974560Y-79979520D01*
X146720560Y-79979520D01*
X146700560Y-79979520D01*
X146700560Y-79725520D01*
X146720560Y-79725520D01*
X146720560Y-78366303D01*
X146974560Y-78366303D01*
X146974560Y-79725520D01*
X148188484Y-79725520D01*
X148332744Y-79490607D01*
X148139514Y-78938200D01*
X147749596Y-78501788D01*
X147222351Y-78247811D01*
X147206586Y-78245162D01*
X146974560Y-78366303D01*
X146720560Y-78366303D01*
X146488534Y-78245162D01*
X146472769Y-78247811D01*
X146276600Y-78342307D01*
X146276600Y-65506600D01*
X146218748Y-65215761D01*
X146054001Y-64969199D01*
X145738835Y-64654033D01*
X145738979Y-64488829D01*
X145581742Y-64108285D01*
X145290846Y-63816881D01*
X144910577Y-63658980D01*
X144498829Y-63658621D01*
X144118285Y-63815858D01*
X143826881Y-64106754D01*
X143668980Y-64487023D01*
X143668621Y-64898771D01*
X143825858Y-65279315D01*
X144116754Y-65570719D01*
X144497023Y-65728620D01*
X144663964Y-65728766D01*
X144756600Y-65821402D01*
X144756600Y-78258495D01*
X144307560Y-78169175D01*
X143734071Y-78283249D01*
X143247890Y-78608105D01*
X143238317Y-78622433D01*
X143234322Y-78601203D01*
X143095250Y-78385079D01*
X142883050Y-78240089D01*
X142631160Y-78189080D01*
X140903960Y-78189080D01*
X140668643Y-78233358D01*
X140452519Y-78372430D01*
X140307529Y-78584630D01*
X140256520Y-78836520D01*
X121613042Y-78836520D01*
X121736492Y-78713070D01*
X122758200Y-78713070D01*
X122993517Y-78668792D01*
X123209641Y-78529720D01*
X123354631Y-78317520D01*
X123405640Y-78065630D01*
X123405640Y-77538613D01*
X125770495Y-77538613D01*
X125892961Y-78009443D01*
X126186283Y-78397568D01*
X126605807Y-78643899D01*
X126697719Y-78659095D01*
X126888240Y-78534357D01*
X126888240Y-77343000D01*
X125933240Y-77343000D01*
X125770495Y-77538613D01*
X123405640Y-77538613D01*
X123405640Y-76366370D01*
X123361362Y-76131053D01*
X123222290Y-75914929D01*
X123010090Y-75769939D01*
X122758200Y-75718930D01*
X121559320Y-75718930D01*
X121324003Y-75763208D01*
X121107879Y-75902280D01*
X121002681Y-76056243D01*
X120986197Y-76034432D01*
X120566673Y-75788101D01*
X120474761Y-75772905D01*
X120284240Y-75897643D01*
X120284240Y-77089000D01*
X120304240Y-77089000D01*
X120304240Y-77343000D01*
X120284240Y-77343000D01*
X120284240Y-77363000D01*
X120030240Y-77363000D01*
X120030240Y-77343000D01*
X119075240Y-77343000D01*
X118912495Y-77538613D01*
X118994269Y-77853000D01*
X118272402Y-77853000D01*
X117312789Y-76893387D01*
X118912495Y-76893387D01*
X119075240Y-77089000D01*
X120030240Y-77089000D01*
X120030240Y-75897643D01*
X119839719Y-75772905D01*
X119747807Y-75788101D01*
X119328283Y-76034432D01*
X119034961Y-76422557D01*
X118912495Y-76893387D01*
X117312789Y-76893387D01*
X116437601Y-76018199D01*
X116191039Y-75853452D01*
X115900200Y-75795600D01*
X115612153Y-75795600D01*
X115653880Y-75733151D01*
X115763113Y-75184000D01*
X115671772Y-74724800D01*
X125450758Y-74724800D01*
X126548001Y-75822043D01*
X126186283Y-76034432D01*
X125892961Y-76422557D01*
X125770495Y-76893387D01*
X125933240Y-77089000D01*
X126888240Y-77089000D01*
X126888240Y-77069000D01*
X127142240Y-77069000D01*
X127142240Y-77089000D01*
X127162240Y-77089000D01*
X127162240Y-77343000D01*
X127142240Y-77343000D01*
X127142240Y-78534357D01*
X127332761Y-78659095D01*
X127424673Y-78643899D01*
X127844197Y-78397568D01*
X127861554Y-78374602D01*
X127953230Y-78517071D01*
X128165430Y-78662061D01*
X128417320Y-78713070D01*
X129616200Y-78713070D01*
X129851517Y-78668792D01*
X130067641Y-78529720D01*
X130212631Y-78317520D01*
X130263640Y-78065630D01*
X130263640Y-77538613D01*
X132628495Y-77538613D01*
X132750961Y-78009443D01*
X133044283Y-78397568D01*
X133463807Y-78643899D01*
X133555719Y-78659095D01*
X133746240Y-78534357D01*
X133746240Y-77343000D01*
X132791240Y-77343000D01*
X132628495Y-77538613D01*
X130263640Y-77538613D01*
X130263640Y-76366370D01*
X130219362Y-76131053D01*
X130080290Y-75914929D01*
X129868090Y-75769939D01*
X129616200Y-75718930D01*
X128594492Y-75718930D01*
X126711362Y-73835800D01*
X131419758Y-73835800D01*
X133406001Y-75822043D01*
X133044283Y-76034432D01*
X132750961Y-76422557D01*
X132628495Y-76893387D01*
X132791240Y-77089000D01*
X133746240Y-77089000D01*
X133746240Y-77069000D01*
X134000240Y-77069000D01*
X134000240Y-77089000D01*
X134020240Y-77089000D01*
X134020240Y-77343000D01*
X134000240Y-77343000D01*
X134000240Y-78534357D01*
X134190761Y-78659095D01*
X134282673Y-78643899D01*
X134702197Y-78397568D01*
X134719554Y-78374602D01*
X134811230Y-78517071D01*
X135023430Y-78662061D01*
X135275320Y-78713070D01*
X136474200Y-78713070D01*
X136709517Y-78668792D01*
X136925641Y-78529720D01*
X137070631Y-78317520D01*
X137121640Y-78065630D01*
X137121640Y-76366370D01*
X137077362Y-76131053D01*
X136938290Y-75914929D01*
X136726090Y-75769939D01*
X136474200Y-75718930D01*
X135452492Y-75718930D01*
X132271961Y-72538399D01*
X132025399Y-72373652D01*
X131734560Y-72315800D01*
X118120002Y-72315800D01*
X116564601Y-70760399D01*
X116318039Y-70595652D01*
X116027200Y-70537800D01*
X115676825Y-70537800D01*
X115763113Y-70104000D01*
X115653880Y-69554849D01*
X115557505Y-69410613D01*
X118912495Y-69410613D01*
X119034961Y-69881443D01*
X119328283Y-70269568D01*
X119747807Y-70515899D01*
X119839719Y-70531095D01*
X120030240Y-70406357D01*
X120030240Y-69215000D01*
X119075240Y-69215000D01*
X118912495Y-69410613D01*
X115557505Y-69410613D01*
X115552323Y-69402858D01*
X115599401Y-69371401D01*
X116646802Y-68324000D01*
X119027303Y-68324000D01*
X118912495Y-68765387D01*
X119075240Y-68961000D01*
X120030240Y-68961000D01*
X120030240Y-68941000D01*
X120284240Y-68941000D01*
X120284240Y-68961000D01*
X120304240Y-68961000D01*
X120304240Y-69215000D01*
X120284240Y-69215000D01*
X120284240Y-70406357D01*
X120474761Y-70531095D01*
X120566673Y-70515899D01*
X120986197Y-70269568D01*
X121003554Y-70246602D01*
X121095230Y-70389071D01*
X121307430Y-70534061D01*
X121559320Y-70585070D01*
X122758200Y-70585070D01*
X122993517Y-70540792D01*
X123209641Y-70401720D01*
X123354631Y-70189520D01*
X123405640Y-69937630D01*
X123405640Y-69410613D01*
X125770495Y-69410613D01*
X125892961Y-69881443D01*
X126186283Y-70269568D01*
X126605807Y-70515899D01*
X126697719Y-70531095D01*
X126888240Y-70406357D01*
X126888240Y-69215000D01*
X125933240Y-69215000D01*
X125770495Y-69410613D01*
X123405640Y-69410613D01*
X123405640Y-68765387D01*
X125770495Y-68765387D01*
X125933240Y-68961000D01*
X126888240Y-68961000D01*
X126888240Y-67769643D01*
X126697719Y-67644905D01*
X126605807Y-67660101D01*
X126186283Y-67906432D01*
X125892961Y-68294557D01*
X125770495Y-68765387D01*
X123405640Y-68765387D01*
X123405640Y-68238370D01*
X123361362Y-68003053D01*
X123222290Y-67786929D01*
X123010090Y-67641939D01*
X122758200Y-67590930D01*
X121751732Y-67590930D01*
X121214802Y-67054000D01*
X127574198Y-67054000D01*
X128145000Y-67624802D01*
X128145000Y-67659019D01*
X127965879Y-67774280D01*
X127860681Y-67928243D01*
X127844197Y-67906432D01*
X127424673Y-67660101D01*
X127332761Y-67644905D01*
X127142240Y-67769643D01*
X127142240Y-68961000D01*
X127162240Y-68961000D01*
X127162240Y-69215000D01*
X127142240Y-69215000D01*
X127142240Y-70406357D01*
X127332761Y-70531095D01*
X127424673Y-70515899D01*
X127844197Y-70269568D01*
X127861554Y-70246602D01*
X127953230Y-70389071D01*
X128165430Y-70534061D01*
X128417320Y-70585070D01*
X129616200Y-70585070D01*
X129851517Y-70540792D01*
X130067641Y-70401720D01*
X130212631Y-70189520D01*
X130263640Y-69937630D01*
X130263640Y-69418233D01*
X132648815Y-69418233D01*
X132771281Y-69889063D01*
X133064603Y-70277188D01*
X133484127Y-70523519D01*
X133576039Y-70538715D01*
X133766560Y-70413977D01*
X133766560Y-69222620D01*
X132811560Y-69222620D01*
X132648815Y-69418233D01*
X130263640Y-69418233D01*
X130263640Y-68773007D01*
X132648815Y-68773007D01*
X132811560Y-68968620D01*
X133766560Y-68968620D01*
X133766560Y-67777263D01*
X133576039Y-67652525D01*
X133484127Y-67667721D01*
X133064603Y-67914052D01*
X132771281Y-68302177D01*
X132648815Y-68773007D01*
X130263640Y-68773007D01*
X130263640Y-68238370D01*
X130219362Y-68003053D01*
X130080290Y-67786929D01*
X129868090Y-67641939D01*
X129665000Y-67600812D01*
X129665000Y-67310000D01*
X129607148Y-67019161D01*
X129442401Y-66772599D01*
X128426401Y-65756599D01*
X128179839Y-65591852D01*
X127889000Y-65534000D01*
X115661668Y-65534000D01*
X115763113Y-65024000D01*
X115653880Y-64474849D01*
X115342811Y-64009302D01*
X114960725Y-63754000D01*
X115342811Y-63498698D01*
X115653880Y-63033151D01*
X115763113Y-62484000D01*
X115653880Y-61934849D01*
X115342811Y-61469302D01*
X114960725Y-61214000D01*
X115342811Y-60958698D01*
X115653880Y-60493151D01*
X115717616Y-60172724D01*
X117668040Y-60172724D01*
X117668040Y-60731276D01*
X117762006Y-61203676D01*
X118029599Y-61604157D01*
X118430080Y-61871750D01*
X118902480Y-61965716D01*
X119374880Y-61871750D01*
X119775361Y-61604157D01*
X119905558Y-61409304D01*
X120075043Y-61633568D01*
X120494567Y-61879899D01*
X120586479Y-61895095D01*
X120777000Y-61770357D01*
X120777000Y-60579000D01*
X120757000Y-60579000D01*
X120757000Y-60325000D01*
X120777000Y-60325000D01*
X120777000Y-59133643D01*
X121031000Y-59133643D01*
X121031000Y-60325000D01*
X121051000Y-60325000D01*
X121051000Y-60579000D01*
X121031000Y-60579000D01*
X121031000Y-61770357D01*
X121221521Y-61895095D01*
X121313433Y-61879899D01*
X121732957Y-61633568D01*
X121750314Y-61610602D01*
X121841990Y-61753071D01*
X122054190Y-61898061D01*
X122306080Y-61949070D01*
X123504960Y-61949070D01*
X123740277Y-61904792D01*
X123956401Y-61765720D01*
X124101391Y-61553520D01*
X124152400Y-61301630D01*
X124152400Y-60172724D01*
X126812040Y-60172724D01*
X126812040Y-60731276D01*
X126906006Y-61203676D01*
X127173599Y-61604157D01*
X127574080Y-61871750D01*
X128046480Y-61965716D01*
X128518880Y-61871750D01*
X128919361Y-61604157D01*
X129049558Y-61409304D01*
X129219043Y-61633568D01*
X129638567Y-61879899D01*
X129730479Y-61895095D01*
X129921000Y-61770357D01*
X129921000Y-60579000D01*
X129901000Y-60579000D01*
X129901000Y-60325000D01*
X129921000Y-60325000D01*
X129921000Y-59133643D01*
X130175000Y-59133643D01*
X130175000Y-60325000D01*
X130195000Y-60325000D01*
X130195000Y-60579000D01*
X130175000Y-60579000D01*
X130175000Y-61770357D01*
X130365521Y-61895095D01*
X130457433Y-61879899D01*
X130876957Y-61633568D01*
X130894314Y-61610602D01*
X130985990Y-61753071D01*
X131198190Y-61898061D01*
X131450080Y-61949070D01*
X132648960Y-61949070D01*
X132884277Y-61904792D01*
X133100401Y-61765720D01*
X133245391Y-61553520D01*
X133296400Y-61301630D01*
X133296400Y-59602370D01*
X133252122Y-59367053D01*
X133113050Y-59150929D01*
X132900850Y-59005939D01*
X132648960Y-58954930D01*
X131450080Y-58954930D01*
X131214763Y-58999208D01*
X130998639Y-59138280D01*
X130893441Y-59292243D01*
X130876957Y-59270432D01*
X130457433Y-59024101D01*
X130365521Y-59008905D01*
X130175000Y-59133643D01*
X129921000Y-59133643D01*
X129730479Y-59008905D01*
X129638567Y-59024101D01*
X129219043Y-59270432D01*
X129049558Y-59494696D01*
X128919361Y-59299843D01*
X128518880Y-59032250D01*
X128046480Y-58938284D01*
X127574080Y-59032250D01*
X127173599Y-59299843D01*
X126906006Y-59700324D01*
X126812040Y-60172724D01*
X124152400Y-60172724D01*
X124152400Y-59602370D01*
X124108122Y-59367053D01*
X123969050Y-59150929D01*
X123756850Y-59005939D01*
X123504960Y-58954930D01*
X122306080Y-58954930D01*
X122070763Y-58999208D01*
X121854639Y-59138280D01*
X121749441Y-59292243D01*
X121732957Y-59270432D01*
X121313433Y-59024101D01*
X121221521Y-59008905D01*
X121031000Y-59133643D01*
X120777000Y-59133643D01*
X120586479Y-59008905D01*
X120494567Y-59024101D01*
X120075043Y-59270432D01*
X119905558Y-59494696D01*
X119775361Y-59299843D01*
X119374880Y-59032250D01*
X118902480Y-58938284D01*
X118430080Y-59032250D01*
X118029599Y-59299843D01*
X117762006Y-59700324D01*
X117668040Y-60172724D01*
X115717616Y-60172724D01*
X115763113Y-59944000D01*
X115653880Y-59394849D01*
X115342811Y-58929302D01*
X114960725Y-58674000D01*
X115342811Y-58418698D01*
X115653880Y-57953151D01*
X115763113Y-57404000D01*
X115653880Y-56854849D01*
X115342811Y-56389302D01*
X114960725Y-56134000D01*
X115224170Y-55957971D01*
X133584821Y-55957971D01*
X133742058Y-56338515D01*
X133860000Y-56456663D01*
X133860000Y-65659000D01*
X133917852Y-65949839D01*
X134082599Y-66196401D01*
X135135080Y-67248882D01*
X135135080Y-67628761D01*
X135060323Y-67642828D01*
X134844199Y-67781900D01*
X134739001Y-67935863D01*
X134722517Y-67914052D01*
X134302993Y-67667721D01*
X134211081Y-67652525D01*
X134020560Y-67777263D01*
X134020560Y-68968620D01*
X134040560Y-68968620D01*
X134040560Y-69222620D01*
X134020560Y-69222620D01*
X134020560Y-70413977D01*
X134211081Y-70538715D01*
X134302993Y-70523519D01*
X134722517Y-70277188D01*
X134739874Y-70254222D01*
X134831550Y-70396691D01*
X135043750Y-70541681D01*
X135295640Y-70592690D01*
X136494520Y-70592690D01*
X136729837Y-70548412D01*
X136945961Y-70409340D01*
X137090951Y-70197140D01*
X137141960Y-69945250D01*
X137141960Y-69362353D01*
X139661755Y-69362353D01*
X139784221Y-69833183D01*
X140077543Y-70221308D01*
X140497067Y-70467639D01*
X140588979Y-70482835D01*
X140779500Y-70358097D01*
X140779500Y-69166740D01*
X139824500Y-69166740D01*
X139661755Y-69362353D01*
X137141960Y-69362353D01*
X137141960Y-68717127D01*
X139661755Y-68717127D01*
X139824500Y-68912740D01*
X140779500Y-68912740D01*
X140779500Y-67721383D01*
X140588979Y-67596645D01*
X140497067Y-67611841D01*
X140077543Y-67858172D01*
X139784221Y-68246297D01*
X139661755Y-68717127D01*
X137141960Y-68717127D01*
X137141960Y-68245990D01*
X137097682Y-68010673D01*
X136958610Y-67794549D01*
X136746410Y-67649559D01*
X136655080Y-67631064D01*
X136655080Y-66934080D01*
X136597228Y-66643241D01*
X136597228Y-66643240D01*
X136432481Y-66396679D01*
X135380000Y-65344198D01*
X135380000Y-60172724D01*
X135956040Y-60172724D01*
X135956040Y-60731276D01*
X136050006Y-61203676D01*
X136317599Y-61604157D01*
X136718080Y-61871750D01*
X137190480Y-61965716D01*
X137662880Y-61871750D01*
X138063361Y-61604157D01*
X138193558Y-61409304D01*
X138363043Y-61633568D01*
X138782567Y-61879899D01*
X138874479Y-61895095D01*
X139065000Y-61770357D01*
X139065000Y-60579000D01*
X139045000Y-60579000D01*
X139045000Y-60325000D01*
X139065000Y-60325000D01*
X139065000Y-59133643D01*
X138874479Y-59008905D01*
X138782567Y-59024101D01*
X138363043Y-59270432D01*
X138193558Y-59494696D01*
X138063361Y-59299843D01*
X137662880Y-59032250D01*
X137190480Y-58938284D01*
X136718080Y-59032250D01*
X136317599Y-59299843D01*
X136050006Y-59700324D01*
X135956040Y-60172724D01*
X135380000Y-60172724D01*
X135380000Y-56456761D01*
X135496919Y-56340046D01*
X135654820Y-55959777D01*
X135655179Y-55548029D01*
X135497942Y-55167485D01*
X135207046Y-54876081D01*
X134826777Y-54718180D01*
X134415029Y-54717821D01*
X134034485Y-54875058D01*
X133743081Y-55165954D01*
X133585180Y-55546223D01*
X133584821Y-55957971D01*
X115224170Y-55957971D01*
X115342811Y-55878698D01*
X115653880Y-55413151D01*
X115763113Y-54864000D01*
X115653880Y-54314849D01*
X115342811Y-53849302D01*
X114877264Y-53538233D01*
X114509097Y-53465000D01*
X136540398Y-53465000D01*
X142148020Y-59072622D01*
X142148020Y-59076432D01*
X142044850Y-59005939D01*
X141792960Y-58954930D01*
X140594080Y-58954930D01*
X140358763Y-58999208D01*
X140142639Y-59138280D01*
X140037441Y-59292243D01*
X140020957Y-59270432D01*
X139601433Y-59024101D01*
X139509521Y-59008905D01*
X139319000Y-59133643D01*
X139319000Y-60325000D01*
X139339000Y-60325000D01*
X139339000Y-60579000D01*
X139319000Y-60579000D01*
X139319000Y-61770357D01*
X139509521Y-61895095D01*
X139601433Y-61879899D01*
X140020957Y-61633568D01*
X140038314Y-61610602D01*
X140129990Y-61753071D01*
X140342190Y-61898061D01*
X140594080Y-61949070D01*
X141792960Y-61949070D01*
X142028277Y-61904792D01*
X142148020Y-61827739D01*
X142148020Y-67572881D01*
X142073263Y-67586948D01*
X141857139Y-67726020D01*
X141751941Y-67879983D01*
X141735457Y-67858172D01*
X141315933Y-67611841D01*
X141224021Y-67596645D01*
X141033500Y-67721383D01*
X141033500Y-68912740D01*
X141053500Y-68912740D01*
X141053500Y-69166740D01*
X141033500Y-69166740D01*
X141033500Y-70358097D01*
X141224021Y-70482835D01*
X141315933Y-70467639D01*
X141735457Y-70221308D01*
X141752814Y-70198342D01*
X141844490Y-70340811D01*
X142056690Y-70485801D01*
X142308580Y-70536810D01*
X143507460Y-70536810D01*
X143742777Y-70492532D01*
X143958901Y-70353460D01*
X144103891Y-70141260D01*
X144154900Y-69889370D01*
X144154900Y-68190110D01*
X144110622Y-67954793D01*
X143971550Y-67738669D01*
X143759350Y-67593679D01*
X143668020Y-67575184D01*
X143668020Y-60764453D01*
X144774775Y-60764453D01*
X144897241Y-61235283D01*
X145190563Y-61623408D01*
X145610087Y-61869739D01*
X145701999Y-61884935D01*
X145892520Y-61760197D01*
X145892520Y-60568840D01*
X144937520Y-60568840D01*
X144774775Y-60764453D01*
X143668020Y-60764453D01*
X143668020Y-60119227D01*
X144774775Y-60119227D01*
X144937520Y-60314840D01*
X145892520Y-60314840D01*
X145892520Y-59123483D01*
X146146520Y-59123483D01*
X146146520Y-60314840D01*
X146166520Y-60314840D01*
X146166520Y-60568840D01*
X146146520Y-60568840D01*
X146146520Y-61760197D01*
X146337041Y-61884935D01*
X146428953Y-61869739D01*
X146848477Y-61623408D01*
X146865834Y-61600442D01*
X146957510Y-61742911D01*
X147169710Y-61887901D01*
X147421600Y-61938910D01*
X148620480Y-61938910D01*
X148855797Y-61894632D01*
X149071921Y-61755560D01*
X149216911Y-61543360D01*
X149267920Y-61291470D01*
X149267920Y-59592210D01*
X149223642Y-59356893D01*
X149084570Y-59140769D01*
X148872370Y-58995779D01*
X148620480Y-58944770D01*
X147421600Y-58944770D01*
X147186283Y-58989048D01*
X146970159Y-59128120D01*
X146864961Y-59282083D01*
X146848477Y-59260272D01*
X146428953Y-59013941D01*
X146337041Y-58998745D01*
X146146520Y-59123483D01*
X145892520Y-59123483D01*
X145701999Y-58998745D01*
X145610087Y-59013941D01*
X145190563Y-59260272D01*
X144897241Y-59648397D01*
X144774775Y-60119227D01*
X143668020Y-60119227D01*
X143668020Y-58757820D01*
X143610168Y-58466981D01*
X143445421Y-58220419D01*
X137392601Y-52167599D01*
X137146039Y-52002852D01*
X136855200Y-51945000D01*
X110693200Y-51945000D01*
X110450614Y-51993254D01*
X110402360Y-52002852D01*
X110155799Y-52167599D01*
X100599398Y-61724000D01*
X100272995Y-61724000D01*
X100102811Y-61469302D01*
X99720725Y-61214000D01*
X100102811Y-60958698D01*
X100413880Y-60493151D01*
X100523113Y-59944000D01*
X100413880Y-59394849D01*
X100102811Y-58929302D01*
X99720725Y-58674000D01*
X100102811Y-58418698D01*
X100413880Y-57953151D01*
X100523113Y-57404000D01*
X100413880Y-56854849D01*
X100102811Y-56389302D01*
X99720725Y-56134000D01*
X100102811Y-55878698D01*
X100413880Y-55413151D01*
X100523113Y-54864000D01*
X100413880Y-54314849D01*
X100102811Y-53849302D01*
X99637264Y-53538233D01*
X99088113Y-53429000D01*
X99031887Y-53429000D01*
X98482736Y-53538233D01*
X98017189Y-53849302D01*
X97706120Y-54314849D01*
X97596887Y-54864000D01*
X97706120Y-55413151D01*
X98017189Y-55878698D01*
X98399275Y-56134000D01*
X98017189Y-56389302D01*
X97847005Y-56644000D01*
X97536000Y-56644000D01*
X97245160Y-56701852D01*
X96998599Y-56866599D01*
X94194233Y-59670965D01*
X94029029Y-59670821D01*
X93648485Y-59828058D01*
X93357081Y-60118954D01*
X93199180Y-60499223D01*
X93198821Y-60910971D01*
X93356058Y-61291515D01*
X93646954Y-61582919D01*
X94027223Y-61740820D01*
X94438971Y-61741179D01*
X94819515Y-61583942D01*
X95110919Y-61293046D01*
X95268820Y-60912777D01*
X95268966Y-60745836D01*
X97848526Y-58166276D01*
X98017189Y-58418698D01*
X98399275Y-58674000D01*
X98017189Y-58929302D01*
X97706120Y-59394849D01*
X97596887Y-59944000D01*
X97619171Y-60056027D01*
X92668248Y-65006950D01*
X92122648Y-65006950D01*
X91922415Y-64707280D01*
X91612931Y-64500489D01*
X92028732Y-64128986D01*
X92282709Y-63601741D01*
X92285358Y-63585976D01*
X92164217Y-63353950D01*
X90805000Y-63353950D01*
X90805000Y-63373950D01*
X90551000Y-63373950D01*
X90551000Y-63353950D01*
X90531000Y-63353950D01*
X90531000Y-63099950D01*
X90551000Y-63099950D01*
X90551000Y-63079950D01*
X90805000Y-63079950D01*
X90805000Y-63099950D01*
X92164217Y-63099950D01*
X92285358Y-62867924D01*
X92282709Y-62852159D01*
X92028732Y-62324914D01*
X91853155Y-62168043D01*
X91929317Y-62153712D01*
X92145441Y-62014640D01*
X92290431Y-61802440D01*
X92341440Y-61550550D01*
X92341440Y-59823350D01*
X92297162Y-59588033D01*
X92158090Y-59371909D01*
X91945890Y-59226919D01*
X91694000Y-59175910D01*
X89662000Y-59175910D01*
X89426683Y-59220188D01*
X89210559Y-59359260D01*
X89204000Y-59368859D01*
X89204000Y-55593347D01*
X90096359Y-56487265D01*
X91262883Y-56971648D01*
X92525976Y-56972750D01*
X93693343Y-56490404D01*
X94587265Y-55598041D01*
X95071648Y-54431517D01*
X95072750Y-53168424D01*
X94590404Y-52001057D01*
X94075247Y-51485000D01*
X151123887Y-51485000D01*
X150611635Y-51996359D01*
X150611635Y-51996359D01*
G37*
X150611635Y-51996359D02*
X150127252Y-53162883D01*
X150126150Y-54425976D01*
X150608496Y-55593343D01*
X151500859Y-56487265D01*
X152667383Y-56971648D01*
X153930476Y-56972750D01*
X155097843Y-56490404D01*
X155906000Y-55683656D01*
X155906000Y-64387005D01*
X155788790Y-64306919D01*
X155536900Y-64255910D01*
X153504900Y-64255910D01*
X153269583Y-64300188D01*
X153053459Y-64439260D01*
X152908469Y-64651460D01*
X152857460Y-64903350D01*
X152857460Y-66630550D01*
X152901738Y-66865867D01*
X153040810Y-67081991D01*
X153253010Y-67226981D01*
X153294339Y-67235350D01*
X153276485Y-67247280D01*
X152951629Y-67733461D01*
X152837555Y-68306950D01*
X152951629Y-68880439D01*
X153276485Y-69366620D01*
X153591266Y-69576950D01*
X153276485Y-69787280D01*
X152951629Y-70273461D01*
X152837555Y-70846950D01*
X152951629Y-71420439D01*
X153276485Y-71906620D01*
X153591266Y-72116950D01*
X153276485Y-72327280D01*
X152951629Y-72813461D01*
X152837555Y-73386950D01*
X152951629Y-73960439D01*
X153276485Y-74446620D01*
X153591266Y-74656950D01*
X153276485Y-74867280D01*
X152951629Y-75353461D01*
X152837555Y-75926950D01*
X152951629Y-76500439D01*
X153276485Y-76986620D01*
X153762666Y-77311476D01*
X154336155Y-77425550D01*
X154705645Y-77425550D01*
X155279134Y-77311476D01*
X155765315Y-76986620D01*
X155906000Y-76776070D01*
X155906000Y-86011498D01*
X155102541Y-85206635D01*
X153936017Y-84722252D01*
X152672924Y-84721150D01*
X151505557Y-85203496D01*
X150611635Y-86095859D01*
X150127252Y-87262383D01*
X150126150Y-88525476D01*
X150608496Y-89692843D01*
X151123653Y-90208900D01*
X94075013Y-90208900D01*
X94587265Y-89697541D01*
X95071648Y-88531017D01*
X95071907Y-88233039D01*
X97668096Y-88233039D01*
X97828959Y-88621423D01*
X98204866Y-89036389D01*
X98710959Y-89275914D01*
X98933000Y-89154629D01*
X98933000Y-88011000D01*
X99187000Y-88011000D01*
X99187000Y-89154629D01*
X99409041Y-89275914D01*
X99915134Y-89036389D01*
X100291041Y-88621423D01*
X100451904Y-88233039D01*
X100329915Y-88011000D01*
X99187000Y-88011000D01*
X98933000Y-88011000D01*
X97790085Y-88011000D01*
X97668096Y-88233039D01*
X95071907Y-88233039D01*
X95072750Y-87267924D01*
X94590404Y-86100557D01*
X93698041Y-85206635D01*
X92531517Y-84722252D01*
X91268424Y-84721150D01*
X90101057Y-85203496D01*
X89207135Y-86095859D01*
X89204000Y-86103409D01*
X89204000Y-81723022D01*
X89433585Y-82066620D01*
X89919766Y-82391476D01*
X90493255Y-82505550D01*
X90862745Y-82505550D01*
X91436234Y-82391476D01*
X91922415Y-82066620D01*
X92247271Y-81580439D01*
X92325152Y-81188904D01*
X95722249Y-84586001D01*
X95968811Y-84750748D01*
X96259650Y-84808600D01*
X97703385Y-84808600D01*
X97596887Y-85344000D01*
X97706120Y-85893151D01*
X98017189Y-86358698D01*
X98421703Y-86628986D01*
X98204866Y-86731611D01*
X97828959Y-87146577D01*
X97668096Y-87534961D01*
X97790085Y-87757000D01*
X98933000Y-87757000D01*
X98933000Y-87737000D01*
X99187000Y-87737000D01*
X99187000Y-87757000D01*
X100329915Y-87757000D01*
X100451904Y-87534961D01*
X100291041Y-87146577D01*
X99915134Y-86731611D01*
X99698297Y-86628986D01*
X100102811Y-86358698D01*
X100272995Y-86104000D01*
X110134400Y-86104000D01*
X110425239Y-86046148D01*
X110671801Y-85881401D01*
X111693802Y-84859400D01*
X112933280Y-84859400D01*
X112836887Y-85344000D01*
X112946120Y-85893151D01*
X113257189Y-86358698D01*
X113639275Y-86614000D01*
X113257189Y-86869302D01*
X112946120Y-87334849D01*
X112836887Y-87884000D01*
X112946120Y-88433151D01*
X113257189Y-88898698D01*
X113722736Y-89209767D01*
X114271887Y-89319000D01*
X114328113Y-89319000D01*
X114877264Y-89209767D01*
X115342811Y-88898698D01*
X115653880Y-88433151D01*
X115763113Y-87884000D01*
X115653880Y-87334849D01*
X115342811Y-86869302D01*
X114960725Y-86614000D01*
X115342811Y-86358698D01*
X115653880Y-85893151D01*
X115763113Y-85344000D01*
X115666720Y-84859400D01*
X117525800Y-84859400D01*
X117816639Y-84801548D01*
X118042529Y-84650613D01*
X118912495Y-84650613D01*
X119034961Y-85121443D01*
X119328283Y-85509568D01*
X119747807Y-85755899D01*
X119839719Y-85771095D01*
X120030240Y-85646357D01*
X120030240Y-84455000D01*
X119075240Y-84455000D01*
X118912495Y-84650613D01*
X118042529Y-84650613D01*
X118063201Y-84636801D01*
X118989090Y-83710912D01*
X118912495Y-84005387D01*
X119075240Y-84201000D01*
X120030240Y-84201000D01*
X120030240Y-84181000D01*
X120284240Y-84181000D01*
X120284240Y-84201000D01*
X120304240Y-84201000D01*
X120304240Y-84455000D01*
X120284240Y-84455000D01*
X120284240Y-85646357D01*
X120474761Y-85771095D01*
X120566673Y-85755899D01*
X120986197Y-85509568D01*
X121003554Y-85486602D01*
X121095230Y-85629071D01*
X121307430Y-85774061D01*
X121559320Y-85825070D01*
X122758200Y-85825070D01*
X122993517Y-85780792D01*
X123209641Y-85641720D01*
X123354631Y-85429520D01*
X123405640Y-85177630D01*
X123405640Y-84650613D01*
X125770495Y-84650613D01*
X125892961Y-85121443D01*
X126186283Y-85509568D01*
X126605807Y-85755899D01*
X126697719Y-85771095D01*
X126888240Y-85646357D01*
X126888240Y-84455000D01*
X125933240Y-84455000D01*
X125770495Y-84650613D01*
X123405640Y-84650613D01*
X123405640Y-83478370D01*
X123361362Y-83243053D01*
X123222290Y-83026929D01*
X123010090Y-82881939D01*
X122758200Y-82830930D01*
X121736492Y-82830930D01*
X121299161Y-82393599D01*
X121112086Y-82268600D01*
X125882558Y-82268600D01*
X126548001Y-82934043D01*
X126186283Y-83146432D01*
X125892961Y-83534557D01*
X125770495Y-84005387D01*
X125933240Y-84201000D01*
X126888240Y-84201000D01*
X126888240Y-84181000D01*
X127142240Y-84181000D01*
X127142240Y-84201000D01*
X127162240Y-84201000D01*
X127162240Y-84455000D01*
X127142240Y-84455000D01*
X127142240Y-85646357D01*
X127332761Y-85771095D01*
X127424673Y-85755899D01*
X127844197Y-85509568D01*
X127861554Y-85486602D01*
X127953230Y-85629071D01*
X128165430Y-85774061D01*
X128417320Y-85825070D01*
X129616200Y-85825070D01*
X129851517Y-85780792D01*
X130067641Y-85641720D01*
X130212631Y-85429520D01*
X130263640Y-85177630D01*
X130263640Y-84650613D01*
X132628495Y-84650613D01*
X132750961Y-85121443D01*
X133044283Y-85509568D01*
X133463807Y-85755899D01*
X133555719Y-85771095D01*
X133746240Y-85646357D01*
X133746240Y-84455000D01*
X132791240Y-84455000D01*
X132628495Y-84650613D01*
X130263640Y-84650613D01*
X130263640Y-83478370D01*
X130219362Y-83243053D01*
X130080290Y-83026929D01*
X129868090Y-82881939D01*
X129616200Y-82830930D01*
X128594492Y-82830930D01*
X127219362Y-81455800D01*
X131927758Y-81455800D01*
X133406001Y-82934043D01*
X133044283Y-83146432D01*
X132750961Y-83534557D01*
X132628495Y-84005387D01*
X132791240Y-84201000D01*
X133746240Y-84201000D01*
X133746240Y-84181000D01*
X134000240Y-84181000D01*
X134000240Y-84201000D01*
X134020240Y-84201000D01*
X134020240Y-84455000D01*
X134000240Y-84455000D01*
X134000240Y-85646357D01*
X134190761Y-85771095D01*
X134282673Y-85755899D01*
X134702197Y-85509568D01*
X134719554Y-85486602D01*
X134811230Y-85629071D01*
X135023430Y-85774061D01*
X135275320Y-85825070D01*
X136474200Y-85825070D01*
X136709517Y-85780792D01*
X136925641Y-85641720D01*
X137070631Y-85429520D01*
X137121640Y-85177630D01*
X137121640Y-83478370D01*
X137077362Y-83243053D01*
X136938290Y-83026929D01*
X136726090Y-82881939D01*
X136474200Y-82830930D01*
X135452493Y-82830930D01*
X132779961Y-80158399D01*
X132533399Y-79993652D01*
X132242560Y-79935800D01*
X117713602Y-79935800D01*
X116234401Y-78456599D01*
X115987839Y-78291852D01*
X115697000Y-78234000D01*
X115661668Y-78234000D01*
X115763113Y-77724000D01*
X115705833Y-77436035D01*
X117420199Y-79150401D01*
X117666761Y-79315148D01*
X117957600Y-79373000D01*
X120761760Y-79373000D01*
X121052599Y-79315148D01*
X121299161Y-79150401D01*
X121613042Y-78836520D01*
X140256520Y-78836520D01*
X140256520Y-80868520D01*
X140300798Y-81103837D01*
X140439870Y-81319961D01*
X140652070Y-81464951D01*
X140903960Y-81515960D01*
X142631160Y-81515960D01*
X142866477Y-81471682D01*
X143082601Y-81332610D01*
X143227591Y-81120410D01*
X143235960Y-81079081D01*
X143247890Y-81096935D01*
X143734071Y-81421791D01*
X144307560Y-81535865D01*
X144881049Y-81421791D01*
X145367230Y-81096935D01*
X145574021Y-80787451D01*
X145945524Y-81203252D01*
X146472769Y-81457229D01*
X146488534Y-81459878D01*
X146720560Y-81338737D01*
X146720560Y-79979520D01*
X146974560Y-79979520D01*
X146974560Y-81338737D01*
X147206586Y-81459878D01*
X147222351Y-81457229D01*
X147749596Y-81203252D01*
X148139514Y-80766840D01*
X148332744Y-80214433D01*
X148188484Y-79979520D01*
X146974560Y-79979520D01*
X146720560Y-79979520D01*
X146700560Y-79979520D01*
X146700560Y-79725520D01*
X146720560Y-79725520D01*
X146720560Y-78366303D01*
X146974560Y-78366303D01*
X146974560Y-79725520D01*
X148188484Y-79725520D01*
X148332744Y-79490607D01*
X148139514Y-78938200D01*
X147749596Y-78501788D01*
X147222351Y-78247811D01*
X147206586Y-78245162D01*
X146974560Y-78366303D01*
X146720560Y-78366303D01*
X146488534Y-78245162D01*
X146472769Y-78247811D01*
X146276600Y-78342307D01*
X146276600Y-65506600D01*
X146218748Y-65215761D01*
X146054001Y-64969199D01*
X145738835Y-64654033D01*
X145738979Y-64488829D01*
X145581742Y-64108285D01*
X145290846Y-63816881D01*
X144910577Y-63658980D01*
X144498829Y-63658621D01*
X144118285Y-63815858D01*
X143826881Y-64106754D01*
X143668980Y-64487023D01*
X143668621Y-64898771D01*
X143825858Y-65279315D01*
X144116754Y-65570719D01*
X144497023Y-65728620D01*
X144663964Y-65728766D01*
X144756600Y-65821402D01*
X144756600Y-78258495D01*
X144307560Y-78169175D01*
X143734071Y-78283249D01*
X143247890Y-78608105D01*
X143238317Y-78622433D01*
X143234322Y-78601203D01*
X143095250Y-78385079D01*
X142883050Y-78240089D01*
X142631160Y-78189080D01*
X140903960Y-78189080D01*
X140668643Y-78233358D01*
X140452519Y-78372430D01*
X140307529Y-78584630D01*
X140256520Y-78836520D01*
X121613042Y-78836520D01*
X121736492Y-78713070D01*
X122758200Y-78713070D01*
X122993517Y-78668792D01*
X123209641Y-78529720D01*
X123354631Y-78317520D01*
X123405640Y-78065630D01*
X123405640Y-77538613D01*
X125770495Y-77538613D01*
X125892961Y-78009443D01*
X126186283Y-78397568D01*
X126605807Y-78643899D01*
X126697719Y-78659095D01*
X126888240Y-78534357D01*
X126888240Y-77343000D01*
X125933240Y-77343000D01*
X125770495Y-77538613D01*
X123405640Y-77538613D01*
X123405640Y-76366370D01*
X123361362Y-76131053D01*
X123222290Y-75914929D01*
X123010090Y-75769939D01*
X122758200Y-75718930D01*
X121559320Y-75718930D01*
X121324003Y-75763208D01*
X121107879Y-75902280D01*
X121002681Y-76056243D01*
X120986197Y-76034432D01*
X120566673Y-75788101D01*
X120474761Y-75772905D01*
X120284240Y-75897643D01*
X120284240Y-77089000D01*
X120304240Y-77089000D01*
X120304240Y-77343000D01*
X120284240Y-77343000D01*
X120284240Y-77363000D01*
X120030240Y-77363000D01*
X120030240Y-77343000D01*
X119075240Y-77343000D01*
X118912495Y-77538613D01*
X118994269Y-77853000D01*
X118272402Y-77853000D01*
X117312789Y-76893387D01*
X118912495Y-76893387D01*
X119075240Y-77089000D01*
X120030240Y-77089000D01*
X120030240Y-75897643D01*
X119839719Y-75772905D01*
X119747807Y-75788101D01*
X119328283Y-76034432D01*
X119034961Y-76422557D01*
X118912495Y-76893387D01*
X117312789Y-76893387D01*
X116437601Y-76018199D01*
X116191039Y-75853452D01*
X115900200Y-75795600D01*
X115612153Y-75795600D01*
X115653880Y-75733151D01*
X115763113Y-75184000D01*
X115671772Y-74724800D01*
X125450758Y-74724800D01*
X126548001Y-75822043D01*
X126186283Y-76034432D01*
X125892961Y-76422557D01*
X125770495Y-76893387D01*
X125933240Y-77089000D01*
X126888240Y-77089000D01*
X126888240Y-77069000D01*
X127142240Y-77069000D01*
X127142240Y-77089000D01*
X127162240Y-77089000D01*
X127162240Y-77343000D01*
X127142240Y-77343000D01*
X127142240Y-78534357D01*
X127332761Y-78659095D01*
X127424673Y-78643899D01*
X127844197Y-78397568D01*
X127861554Y-78374602D01*
X127953230Y-78517071D01*
X128165430Y-78662061D01*
X128417320Y-78713070D01*
X129616200Y-78713070D01*
X129851517Y-78668792D01*
X130067641Y-78529720D01*
X130212631Y-78317520D01*
X130263640Y-78065630D01*
X130263640Y-77538613D01*
X132628495Y-77538613D01*
X132750961Y-78009443D01*
X133044283Y-78397568D01*
X133463807Y-78643899D01*
X133555719Y-78659095D01*
X133746240Y-78534357D01*
X133746240Y-77343000D01*
X132791240Y-77343000D01*
X132628495Y-77538613D01*
X130263640Y-77538613D01*
X130263640Y-76366370D01*
X130219362Y-76131053D01*
X130080290Y-75914929D01*
X129868090Y-75769939D01*
X129616200Y-75718930D01*
X128594492Y-75718930D01*
X126711362Y-73835800D01*
X131419758Y-73835800D01*
X133406001Y-75822043D01*
X133044283Y-76034432D01*
X132750961Y-76422557D01*
X132628495Y-76893387D01*
X132791240Y-77089000D01*
X133746240Y-77089000D01*
X133746240Y-77069000D01*
X134000240Y-77069000D01*
X134000240Y-77089000D01*
X134020240Y-77089000D01*
X134020240Y-77343000D01*
X134000240Y-77343000D01*
X134000240Y-78534357D01*
X134190761Y-78659095D01*
X134282673Y-78643899D01*
X134702197Y-78397568D01*
X134719554Y-78374602D01*
X134811230Y-78517071D01*
X135023430Y-78662061D01*
X135275320Y-78713070D01*
X136474200Y-78713070D01*
X136709517Y-78668792D01*
X136925641Y-78529720D01*
X137070631Y-78317520D01*
X137121640Y-78065630D01*
X137121640Y-76366370D01*
X137077362Y-76131053D01*
X136938290Y-75914929D01*
X136726090Y-75769939D01*
X136474200Y-75718930D01*
X135452492Y-75718930D01*
X132271961Y-72538399D01*
X132025399Y-72373652D01*
X131734560Y-72315800D01*
X118120002Y-72315800D01*
X116564601Y-70760399D01*
X116318039Y-70595652D01*
X116027200Y-70537800D01*
X115676825Y-70537800D01*
X115763113Y-70104000D01*
X115653880Y-69554849D01*
X115557505Y-69410613D01*
X118912495Y-69410613D01*
X119034961Y-69881443D01*
X119328283Y-70269568D01*
X119747807Y-70515899D01*
X119839719Y-70531095D01*
X120030240Y-70406357D01*
X120030240Y-69215000D01*
X119075240Y-69215000D01*
X118912495Y-69410613D01*
X115557505Y-69410613D01*
X115552323Y-69402858D01*
X115599401Y-69371401D01*
X116646802Y-68324000D01*
X119027303Y-68324000D01*
X118912495Y-68765387D01*
X119075240Y-68961000D01*
X120030240Y-68961000D01*
X120030240Y-68941000D01*
X120284240Y-68941000D01*
X120284240Y-68961000D01*
X120304240Y-68961000D01*
X120304240Y-69215000D01*
X120284240Y-69215000D01*
X120284240Y-70406357D01*
X120474761Y-70531095D01*
X120566673Y-70515899D01*
X120986197Y-70269568D01*
X121003554Y-70246602D01*
X121095230Y-70389071D01*
X121307430Y-70534061D01*
X121559320Y-70585070D01*
X122758200Y-70585070D01*
X122993517Y-70540792D01*
X123209641Y-70401720D01*
X123354631Y-70189520D01*
X123405640Y-69937630D01*
X123405640Y-69410613D01*
X125770495Y-69410613D01*
X125892961Y-69881443D01*
X126186283Y-70269568D01*
X126605807Y-70515899D01*
X126697719Y-70531095D01*
X126888240Y-70406357D01*
X126888240Y-69215000D01*
X125933240Y-69215000D01*
X125770495Y-69410613D01*
X123405640Y-69410613D01*
X123405640Y-68765387D01*
X125770495Y-68765387D01*
X125933240Y-68961000D01*
X126888240Y-68961000D01*
X126888240Y-67769643D01*
X126697719Y-67644905D01*
X126605807Y-67660101D01*
X126186283Y-67906432D01*
X125892961Y-68294557D01*
X125770495Y-68765387D01*
X123405640Y-68765387D01*
X123405640Y-68238370D01*
X123361362Y-68003053D01*
X123222290Y-67786929D01*
X123010090Y-67641939D01*
X122758200Y-67590930D01*
X121751732Y-67590930D01*
X121214802Y-67054000D01*
X127574198Y-67054000D01*
X128145000Y-67624802D01*
X128145000Y-67659019D01*
X127965879Y-67774280D01*
X127860681Y-67928243D01*
X127844197Y-67906432D01*
X127424673Y-67660101D01*
X127332761Y-67644905D01*
X127142240Y-67769643D01*
X127142240Y-68961000D01*
X127162240Y-68961000D01*
X127162240Y-69215000D01*
X127142240Y-69215000D01*
X127142240Y-70406357D01*
X127332761Y-70531095D01*
X127424673Y-70515899D01*
X127844197Y-70269568D01*
X127861554Y-70246602D01*
X127953230Y-70389071D01*
X128165430Y-70534061D01*
X128417320Y-70585070D01*
X129616200Y-70585070D01*
X129851517Y-70540792D01*
X130067641Y-70401720D01*
X130212631Y-70189520D01*
X130263640Y-69937630D01*
X130263640Y-69418233D01*
X132648815Y-69418233D01*
X132771281Y-69889063D01*
X133064603Y-70277188D01*
X133484127Y-70523519D01*
X133576039Y-70538715D01*
X133766560Y-70413977D01*
X133766560Y-69222620D01*
X132811560Y-69222620D01*
X132648815Y-69418233D01*
X130263640Y-69418233D01*
X130263640Y-68773007D01*
X132648815Y-68773007D01*
X132811560Y-68968620D01*
X133766560Y-68968620D01*
X133766560Y-67777263D01*
X133576039Y-67652525D01*
X133484127Y-67667721D01*
X133064603Y-67914052D01*
X132771281Y-68302177D01*
X132648815Y-68773007D01*
X130263640Y-68773007D01*
X130263640Y-68238370D01*
X130219362Y-68003053D01*
X130080290Y-67786929D01*
X129868090Y-67641939D01*
X129665000Y-67600812D01*
X129665000Y-67310000D01*
X129607148Y-67019161D01*
X129442401Y-66772599D01*
X128426401Y-65756599D01*
X128179839Y-65591852D01*
X127889000Y-65534000D01*
X115661668Y-65534000D01*
X115763113Y-65024000D01*
X115653880Y-64474849D01*
X115342811Y-64009302D01*
X114960725Y-63754000D01*
X115342811Y-63498698D01*
X115653880Y-63033151D01*
X115763113Y-62484000D01*
X115653880Y-61934849D01*
X115342811Y-61469302D01*
X114960725Y-61214000D01*
X115342811Y-60958698D01*
X115653880Y-60493151D01*
X115717616Y-60172724D01*
X117668040Y-60172724D01*
X117668040Y-60731276D01*
X117762006Y-61203676D01*
X118029599Y-61604157D01*
X118430080Y-61871750D01*
X118902480Y-61965716D01*
X119374880Y-61871750D01*
X119775361Y-61604157D01*
X119905558Y-61409304D01*
X120075043Y-61633568D01*
X120494567Y-61879899D01*
X120586479Y-61895095D01*
X120777000Y-61770357D01*
X120777000Y-60579000D01*
X120757000Y-60579000D01*
X120757000Y-60325000D01*
X120777000Y-60325000D01*
X120777000Y-59133643D01*
X121031000Y-59133643D01*
X121031000Y-60325000D01*
X121051000Y-60325000D01*
X121051000Y-60579000D01*
X121031000Y-60579000D01*
X121031000Y-61770357D01*
X121221521Y-61895095D01*
X121313433Y-61879899D01*
X121732957Y-61633568D01*
X121750314Y-61610602D01*
X121841990Y-61753071D01*
X122054190Y-61898061D01*
X122306080Y-61949070D01*
X123504960Y-61949070D01*
X123740277Y-61904792D01*
X123956401Y-61765720D01*
X124101391Y-61553520D01*
X124152400Y-61301630D01*
X124152400Y-60172724D01*
X126812040Y-60172724D01*
X126812040Y-60731276D01*
X126906006Y-61203676D01*
X127173599Y-61604157D01*
X127574080Y-61871750D01*
X128046480Y-61965716D01*
X128518880Y-61871750D01*
X128919361Y-61604157D01*
X129049558Y-61409304D01*
X129219043Y-61633568D01*
X129638567Y-61879899D01*
X129730479Y-61895095D01*
X129921000Y-61770357D01*
X129921000Y-60579000D01*
X129901000Y-60579000D01*
X129901000Y-60325000D01*
X129921000Y-60325000D01*
X129921000Y-59133643D01*
X130175000Y-59133643D01*
X130175000Y-60325000D01*
X130195000Y-60325000D01*
X130195000Y-60579000D01*
X130175000Y-60579000D01*
X130175000Y-61770357D01*
X130365521Y-61895095D01*
X130457433Y-61879899D01*
X130876957Y-61633568D01*
X130894314Y-61610602D01*
X130985990Y-61753071D01*
X131198190Y-61898061D01*
X131450080Y-61949070D01*
X132648960Y-61949070D01*
X132884277Y-61904792D01*
X133100401Y-61765720D01*
X133245391Y-61553520D01*
X133296400Y-61301630D01*
X133296400Y-59602370D01*
X133252122Y-59367053D01*
X133113050Y-59150929D01*
X132900850Y-59005939D01*
X132648960Y-58954930D01*
X131450080Y-58954930D01*
X131214763Y-58999208D01*
X130998639Y-59138280D01*
X130893441Y-59292243D01*
X130876957Y-59270432D01*
X130457433Y-59024101D01*
X130365521Y-59008905D01*
X130175000Y-59133643D01*
X129921000Y-59133643D01*
X129730479Y-59008905D01*
X129638567Y-59024101D01*
X129219043Y-59270432D01*
X129049558Y-59494696D01*
X128919361Y-59299843D01*
X128518880Y-59032250D01*
X128046480Y-58938284D01*
X127574080Y-59032250D01*
X127173599Y-59299843D01*
X126906006Y-59700324D01*
X126812040Y-60172724D01*
X124152400Y-60172724D01*
X124152400Y-59602370D01*
X124108122Y-59367053D01*
X123969050Y-59150929D01*
X123756850Y-59005939D01*
X123504960Y-58954930D01*
X122306080Y-58954930D01*
X122070763Y-58999208D01*
X121854639Y-59138280D01*
X121749441Y-59292243D01*
X121732957Y-59270432D01*
X121313433Y-59024101D01*
X121221521Y-59008905D01*
X121031000Y-59133643D01*
X120777000Y-59133643D01*
X120586479Y-59008905D01*
X120494567Y-59024101D01*
X120075043Y-59270432D01*
X119905558Y-59494696D01*
X119775361Y-59299843D01*
X119374880Y-59032250D01*
X118902480Y-58938284D01*
X118430080Y-59032250D01*
X118029599Y-59299843D01*
X117762006Y-59700324D01*
X117668040Y-60172724D01*
X115717616Y-60172724D01*
X115763113Y-59944000D01*
X115653880Y-59394849D01*
X115342811Y-58929302D01*
X114960725Y-58674000D01*
X115342811Y-58418698D01*
X115653880Y-57953151D01*
X115763113Y-57404000D01*
X115653880Y-56854849D01*
X115342811Y-56389302D01*
X114960725Y-56134000D01*
X115224170Y-55957971D01*
X133584821Y-55957971D01*
X133742058Y-56338515D01*
X133860000Y-56456663D01*
X133860000Y-65659000D01*
X133917852Y-65949839D01*
X134082599Y-66196401D01*
X135135080Y-67248882D01*
X135135080Y-67628761D01*
X135060323Y-67642828D01*
X134844199Y-67781900D01*
X134739001Y-67935863D01*
X134722517Y-67914052D01*
X134302993Y-67667721D01*
X134211081Y-67652525D01*
X134020560Y-67777263D01*
X134020560Y-68968620D01*
X134040560Y-68968620D01*
X134040560Y-69222620D01*
X134020560Y-69222620D01*
X134020560Y-70413977D01*
X134211081Y-70538715D01*
X134302993Y-70523519D01*
X134722517Y-70277188D01*
X134739874Y-70254222D01*
X134831550Y-70396691D01*
X135043750Y-70541681D01*
X135295640Y-70592690D01*
X136494520Y-70592690D01*
X136729837Y-70548412D01*
X136945961Y-70409340D01*
X137090951Y-70197140D01*
X137141960Y-69945250D01*
X137141960Y-69362353D01*
X139661755Y-69362353D01*
X139784221Y-69833183D01*
X140077543Y-70221308D01*
X140497067Y-70467639D01*
X140588979Y-70482835D01*
X140779500Y-70358097D01*
X140779500Y-69166740D01*
X139824500Y-69166740D01*
X139661755Y-69362353D01*
X137141960Y-69362353D01*
X137141960Y-68717127D01*
X139661755Y-68717127D01*
X139824500Y-68912740D01*
X140779500Y-68912740D01*
X140779500Y-67721383D01*
X140588979Y-67596645D01*
X140497067Y-67611841D01*
X140077543Y-67858172D01*
X139784221Y-68246297D01*
X139661755Y-68717127D01*
X137141960Y-68717127D01*
X137141960Y-68245990D01*
X137097682Y-68010673D01*
X136958610Y-67794549D01*
X136746410Y-67649559D01*
X136655080Y-67631064D01*
X136655080Y-66934080D01*
X136597228Y-66643241D01*
X136597228Y-66643240D01*
X136432481Y-66396679D01*
X135380000Y-65344198D01*
X135380000Y-60172724D01*
X135956040Y-60172724D01*
X135956040Y-60731276D01*
X136050006Y-61203676D01*
X136317599Y-61604157D01*
X136718080Y-61871750D01*
X137190480Y-61965716D01*
X137662880Y-61871750D01*
X138063361Y-61604157D01*
X138193558Y-61409304D01*
X138363043Y-61633568D01*
X138782567Y-61879899D01*
X138874479Y-61895095D01*
X139065000Y-61770357D01*
X139065000Y-60579000D01*
X139045000Y-60579000D01*
X139045000Y-60325000D01*
X139065000Y-60325000D01*
X139065000Y-59133643D01*
X138874479Y-59008905D01*
X138782567Y-59024101D01*
X138363043Y-59270432D01*
X138193558Y-59494696D01*
X138063361Y-59299843D01*
X137662880Y-59032250D01*
X137190480Y-58938284D01*
X136718080Y-59032250D01*
X136317599Y-59299843D01*
X136050006Y-59700324D01*
X135956040Y-60172724D01*
X135380000Y-60172724D01*
X135380000Y-56456761D01*
X135496919Y-56340046D01*
X135654820Y-55959777D01*
X135655179Y-55548029D01*
X135497942Y-55167485D01*
X135207046Y-54876081D01*
X134826777Y-54718180D01*
X134415029Y-54717821D01*
X134034485Y-54875058D01*
X133743081Y-55165954D01*
X133585180Y-55546223D01*
X133584821Y-55957971D01*
X115224170Y-55957971D01*
X115342811Y-55878698D01*
X115653880Y-55413151D01*
X115763113Y-54864000D01*
X115653880Y-54314849D01*
X115342811Y-53849302D01*
X114877264Y-53538233D01*
X114509097Y-53465000D01*
X136540398Y-53465000D01*
X142148020Y-59072622D01*
X142148020Y-59076432D01*
X142044850Y-59005939D01*
X141792960Y-58954930D01*
X140594080Y-58954930D01*
X140358763Y-58999208D01*
X140142639Y-59138280D01*
X140037441Y-59292243D01*
X140020957Y-59270432D01*
X139601433Y-59024101D01*
X139509521Y-59008905D01*
X139319000Y-59133643D01*
X139319000Y-60325000D01*
X139339000Y-60325000D01*
X139339000Y-60579000D01*
X139319000Y-60579000D01*
X139319000Y-61770357D01*
X139509521Y-61895095D01*
X139601433Y-61879899D01*
X140020957Y-61633568D01*
X140038314Y-61610602D01*
X140129990Y-61753071D01*
X140342190Y-61898061D01*
X140594080Y-61949070D01*
X141792960Y-61949070D01*
X142028277Y-61904792D01*
X142148020Y-61827739D01*
X142148020Y-67572881D01*
X142073263Y-67586948D01*
X141857139Y-67726020D01*
X141751941Y-67879983D01*
X141735457Y-67858172D01*
X141315933Y-67611841D01*
X141224021Y-67596645D01*
X141033500Y-67721383D01*
X141033500Y-68912740D01*
X141053500Y-68912740D01*
X141053500Y-69166740D01*
X141033500Y-69166740D01*
X141033500Y-70358097D01*
X141224021Y-70482835D01*
X141315933Y-70467639D01*
X141735457Y-70221308D01*
X141752814Y-70198342D01*
X141844490Y-70340811D01*
X142056690Y-70485801D01*
X142308580Y-70536810D01*
X143507460Y-70536810D01*
X143742777Y-70492532D01*
X143958901Y-70353460D01*
X144103891Y-70141260D01*
X144154900Y-69889370D01*
X144154900Y-68190110D01*
X144110622Y-67954793D01*
X143971550Y-67738669D01*
X143759350Y-67593679D01*
X143668020Y-67575184D01*
X143668020Y-60764453D01*
X144774775Y-60764453D01*
X144897241Y-61235283D01*
X145190563Y-61623408D01*
X145610087Y-61869739D01*
X145701999Y-61884935D01*
X145892520Y-61760197D01*
X145892520Y-60568840D01*
X144937520Y-60568840D01*
X144774775Y-60764453D01*
X143668020Y-60764453D01*
X143668020Y-60119227D01*
X144774775Y-60119227D01*
X144937520Y-60314840D01*
X145892520Y-60314840D01*
X145892520Y-59123483D01*
X146146520Y-59123483D01*
X146146520Y-60314840D01*
X146166520Y-60314840D01*
X146166520Y-60568840D01*
X146146520Y-60568840D01*
X146146520Y-61760197D01*
X146337041Y-61884935D01*
X146428953Y-61869739D01*
X146848477Y-61623408D01*
X146865834Y-61600442D01*
X146957510Y-61742911D01*
X147169710Y-61887901D01*
X147421600Y-61938910D01*
X148620480Y-61938910D01*
X148855797Y-61894632D01*
X149071921Y-61755560D01*
X149216911Y-61543360D01*
X149267920Y-61291470D01*
X149267920Y-59592210D01*
X149223642Y-59356893D01*
X149084570Y-59140769D01*
X148872370Y-58995779D01*
X148620480Y-58944770D01*
X147421600Y-58944770D01*
X147186283Y-58989048D01*
X146970159Y-59128120D01*
X146864961Y-59282083D01*
X146848477Y-59260272D01*
X146428953Y-59013941D01*
X146337041Y-58998745D01*
X146146520Y-59123483D01*
X145892520Y-59123483D01*
X145701999Y-58998745D01*
X145610087Y-59013941D01*
X145190563Y-59260272D01*
X144897241Y-59648397D01*
X144774775Y-60119227D01*
X143668020Y-60119227D01*
X143668020Y-58757820D01*
X143610168Y-58466981D01*
X143445421Y-58220419D01*
X137392601Y-52167599D01*
X137146039Y-52002852D01*
X136855200Y-51945000D01*
X110693200Y-51945000D01*
X110450614Y-51993254D01*
X110402360Y-52002852D01*
X110155799Y-52167599D01*
X100599398Y-61724000D01*
X100272995Y-61724000D01*
X100102811Y-61469302D01*
X99720725Y-61214000D01*
X100102811Y-60958698D01*
X100413880Y-60493151D01*
X100523113Y-59944000D01*
X100413880Y-59394849D01*
X100102811Y-58929302D01*
X99720725Y-58674000D01*
X100102811Y-58418698D01*
X100413880Y-57953151D01*
X100523113Y-57404000D01*
X100413880Y-56854849D01*
X100102811Y-56389302D01*
X99720725Y-56134000D01*
X100102811Y-55878698D01*
X100413880Y-55413151D01*
X100523113Y-54864000D01*
X100413880Y-54314849D01*
X100102811Y-53849302D01*
X99637264Y-53538233D01*
X99088113Y-53429000D01*
X99031887Y-53429000D01*
X98482736Y-53538233D01*
X98017189Y-53849302D01*
X97706120Y-54314849D01*
X97596887Y-54864000D01*
X97706120Y-55413151D01*
X98017189Y-55878698D01*
X98399275Y-56134000D01*
X98017189Y-56389302D01*
X97847005Y-56644000D01*
X97536000Y-56644000D01*
X97245160Y-56701852D01*
X96998599Y-56866599D01*
X94194233Y-59670965D01*
X94029029Y-59670821D01*
X93648485Y-59828058D01*
X93357081Y-60118954D01*
X93199180Y-60499223D01*
X93198821Y-60910971D01*
X93356058Y-61291515D01*
X93646954Y-61582919D01*
X94027223Y-61740820D01*
X94438971Y-61741179D01*
X94819515Y-61583942D01*
X95110919Y-61293046D01*
X95268820Y-60912777D01*
X95268966Y-60745836D01*
X97848526Y-58166276D01*
X98017189Y-58418698D01*
X98399275Y-58674000D01*
X98017189Y-58929302D01*
X97706120Y-59394849D01*
X97596887Y-59944000D01*
X97619171Y-60056027D01*
X92668248Y-65006950D01*
X92122648Y-65006950D01*
X91922415Y-64707280D01*
X91612931Y-64500489D01*
X92028732Y-64128986D01*
X92282709Y-63601741D01*
X92285358Y-63585976D01*
X92164217Y-63353950D01*
X90805000Y-63353950D01*
X90805000Y-63373950D01*
X90551000Y-63373950D01*
X90551000Y-63353950D01*
X90531000Y-63353950D01*
X90531000Y-63099950D01*
X90551000Y-63099950D01*
X90551000Y-63079950D01*
X90805000Y-63079950D01*
X90805000Y-63099950D01*
X92164217Y-63099950D01*
X92285358Y-62867924D01*
X92282709Y-62852159D01*
X92028732Y-62324914D01*
X91853155Y-62168043D01*
X91929317Y-62153712D01*
X92145441Y-62014640D01*
X92290431Y-61802440D01*
X92341440Y-61550550D01*
X92341440Y-59823350D01*
X92297162Y-59588033D01*
X92158090Y-59371909D01*
X91945890Y-59226919D01*
X91694000Y-59175910D01*
X89662000Y-59175910D01*
X89426683Y-59220188D01*
X89210559Y-59359260D01*
X89204000Y-59368859D01*
X89204000Y-55593347D01*
X90096359Y-56487265D01*
X91262883Y-56971648D01*
X92525976Y-56972750D01*
X93693343Y-56490404D01*
X94587265Y-55598041D01*
X95071648Y-54431517D01*
X95072750Y-53168424D01*
X94590404Y-52001057D01*
X94075247Y-51485000D01*
X151123887Y-51485000D01*
X150611635Y-51996359D01*
M02*
