M48
;DRILL file {KiCad 4.0.1-stable} date 2016/05/21 17:47:14
;FORMAT={3:3/ absolute / metric / suppress trailing zeros}
FMAT,2
METRIC,LZ
T1C0.400
T2C0.701
T3C0.800
T4C1.016
T5C3.200
%
G90
G05
M71
T1
X094234Y-060706
X104826Y-065227
X111125Y-066294
X13462Y-055753
X144704Y-064694
T2
X118902Y-060452
X120157Y-069088
X120157Y-077216
X120157Y-084328
X120904Y-060452
X122159Y-069088
X122159Y-077216
X122159Y-084328
X122906Y-060452
X127015Y-069088
X127015Y-077216
X127015Y-084328
X128046Y-060452
X129017Y-069088
X129017Y-077216
X129017Y-084328
X130048Y-060452
X13205Y-060452
X133873Y-077216
X133873Y-084328
X133894Y-069096
X135875Y-077216
X135875Y-084328
X135895Y-069096
X13719Y-060452
X139192Y-060452
X140907Y-06904
X141194Y-060452
X142908Y-06904
X14602Y-060442
X148021Y-060442
T3
X09906Y-054864
X09906Y-057404
X09906Y-059944
X09906Y-062484
X09906Y-065024
X09906Y-067564
X09906Y-070104
X09906Y-072644
X09906Y-075184
X09906Y-077724
X09906Y-080264
X09906Y-082804
X09906Y-085344
X09906Y-087884
X1143Y-054864
X1143Y-057404
X1143Y-059944
X1143Y-062484
X1143Y-065024
X1143Y-067564
X1143Y-070104
X1143Y-072644
X1143Y-075184
X1143Y-077724
X1143Y-080264
X1143Y-082804
X1143Y-085344
X1143Y-087884
T4
X090678Y-060687
X090678Y-063227
X090678Y-065767
X090678Y-068307
X090678Y-070847
X090678Y-073387
X090678Y-075927
X090678Y-078467
X090678Y-081007
X141768Y-079853
X144308Y-079853
X146848Y-079853
X154521Y-065767
X154521Y-068307
X154521Y-070847
X154521Y-073387
X154521Y-075927
T5
X091897Y-053797
X091897Y-087897
X153302Y-053797
X153302Y-087897
T0
M30
