G04 #@! TF.FileFunction,Legend,Top*
%FSLAX46Y46*%
G04 Gerber Fmt 4.6, Leading zero omitted, Abs format (unit mm)*
G04 Created by KiCad (PCBNEW 4.0.1-stable) date 2016/05/21 17:47:10*
%MOMM*%
G01*
G04 APERTURE LIST*
%ADD10C,0.100000*%
%ADD11C,0.150000*%
%ADD12C,5.080000*%
%ADD13R,2.032000X1.727200*%
%ADD14O,2.032000X1.727200*%
%ADD15R,1.727200X2.032000*%
%ADD16O,1.727200X2.032000*%
%ADD17R,1.198880X1.699260*%
%ADD18O,1.198880X1.699260*%
%ADD19O,1.600000X1.600000*%
G04 APERTURE END LIST*
D10*
D11*
X89408000Y-61956950D02*
X89408000Y-82276950D01*
X89408000Y-82276950D02*
X91948000Y-82276950D01*
X91948000Y-82276950D02*
X91948000Y-61956950D01*
X89128000Y-59136950D02*
X89128000Y-60686950D01*
X89408000Y-61956950D02*
X91948000Y-61956950D01*
X92228000Y-60686950D02*
X92228000Y-59136950D01*
X92228000Y-59136950D02*
X89128000Y-59136950D01*
X153250900Y-67036950D02*
X153250900Y-77196950D01*
X153250900Y-77196950D02*
X155790900Y-77196950D01*
X155790900Y-77196950D02*
X155790900Y-67036950D01*
X152970900Y-64216950D02*
X152970900Y-65766950D01*
X153250900Y-67036950D02*
X155790900Y-67036950D01*
X156070900Y-65766950D02*
X156070900Y-64216950D01*
X156070900Y-64216950D02*
X152970900Y-64216950D01*
X93644981Y-81776866D02*
X93644981Y-82253057D01*
X92644981Y-82253057D01*
X93644981Y-80919723D02*
X93644981Y-81491152D01*
X93644981Y-81205438D02*
X92644981Y-81205438D01*
X92787838Y-81300676D01*
X92883076Y-81395914D01*
X92930695Y-81491152D01*
X93670381Y-79842666D02*
X92670381Y-79842666D01*
X93384667Y-79509332D01*
X92670381Y-79175999D01*
X93670381Y-79175999D01*
X93289429Y-78699809D02*
X93289429Y-77937904D01*
X92670381Y-77604571D02*
X92670381Y-77033142D01*
X93670381Y-77318857D02*
X92670381Y-77318857D01*
X93670381Y-76699809D02*
X92670381Y-76699809D01*
X93384667Y-76366475D01*
X92670381Y-76033142D01*
X93670381Y-76033142D01*
X92670381Y-75366476D02*
X92670381Y-75271237D01*
X92718000Y-75175999D01*
X92765619Y-75128380D01*
X92860857Y-75080761D01*
X93051333Y-75033142D01*
X93289429Y-75033142D01*
X93479905Y-75080761D01*
X93575143Y-75128380D01*
X93622762Y-75175999D01*
X93670381Y-75271237D01*
X93670381Y-75366476D01*
X93622762Y-75461714D01*
X93575143Y-75509333D01*
X93479905Y-75556952D01*
X93289429Y-75604571D01*
X93051333Y-75604571D01*
X92860857Y-75556952D01*
X92765619Y-75509333D01*
X92718000Y-75461714D01*
X92670381Y-75366476D01*
X92765619Y-74652190D02*
X92718000Y-74604571D01*
X92670381Y-74509333D01*
X92670381Y-74271237D01*
X92718000Y-74175999D01*
X92765619Y-74128380D01*
X92860857Y-74080761D01*
X92956095Y-74080761D01*
X93098952Y-74128380D01*
X93670381Y-74699809D01*
X93670381Y-74080761D01*
X92765619Y-73699809D02*
X92718000Y-73652190D01*
X92670381Y-73556952D01*
X92670381Y-73318856D01*
X92718000Y-73223618D01*
X92765619Y-73175999D01*
X92860857Y-73128380D01*
X92956095Y-73128380D01*
X93098952Y-73175999D01*
X93670381Y-73747428D01*
X93670381Y-73128380D01*
X93289429Y-72699809D02*
X93289429Y-71937904D01*
X93622762Y-71509333D02*
X93670381Y-71366476D01*
X93670381Y-71128380D01*
X93622762Y-71033142D01*
X93575143Y-70985523D01*
X93479905Y-70937904D01*
X93384667Y-70937904D01*
X93289429Y-70985523D01*
X93241810Y-71033142D01*
X93194190Y-71128380D01*
X93146571Y-71318857D01*
X93098952Y-71414095D01*
X93051333Y-71461714D01*
X92956095Y-71509333D01*
X92860857Y-71509333D01*
X92765619Y-71461714D01*
X92718000Y-71414095D01*
X92670381Y-71318857D01*
X92670381Y-71080761D01*
X92718000Y-70937904D01*
X93670381Y-70509333D02*
X92670381Y-70509333D01*
X92670381Y-70128380D01*
X92718000Y-70033142D01*
X92765619Y-69985523D01*
X92860857Y-69937904D01*
X93003714Y-69937904D01*
X93098952Y-69985523D01*
X93146571Y-70033142D01*
X93194190Y-70128380D01*
X93194190Y-70509333D01*
X93670381Y-69509333D02*
X92670381Y-69509333D01*
X152344381Y-76366666D02*
X152344381Y-76842857D01*
X151344381Y-76842857D01*
X151439619Y-76080952D02*
X151392000Y-76033333D01*
X151344381Y-75938095D01*
X151344381Y-75699999D01*
X151392000Y-75604761D01*
X151439619Y-75557142D01*
X151534857Y-75509523D01*
X151630095Y-75509523D01*
X151772952Y-75557142D01*
X152344381Y-76128571D01*
X152344381Y-75509523D01*
%LPC*%
D12*
X153301700Y-87896700D03*
X153301700Y-53797200D03*
D13*
X90678000Y-60686950D03*
D14*
X90678000Y-63226950D03*
X90678000Y-65766950D03*
X90678000Y-68306950D03*
X90678000Y-70846950D03*
X90678000Y-73386950D03*
X90678000Y-75926950D03*
X90678000Y-78466950D03*
X90678000Y-81006950D03*
D15*
X141767560Y-79852520D03*
D16*
X144307560Y-79852520D03*
X146847560Y-79852520D03*
D17*
X122158760Y-84328000D03*
D18*
X120157240Y-84328000D03*
D17*
X129016760Y-84328000D03*
D18*
X127015240Y-84328000D03*
D17*
X135874760Y-84328000D03*
D18*
X133873240Y-84328000D03*
D19*
X99060000Y-87884000D03*
X99060000Y-85344000D03*
X99060000Y-82804000D03*
X99060000Y-80264000D03*
X99060000Y-77724000D03*
X99060000Y-75184000D03*
X99060000Y-72644000D03*
X99060000Y-70104000D03*
X99060000Y-67564000D03*
X99060000Y-65024000D03*
X99060000Y-62484000D03*
X99060000Y-59944000D03*
X99060000Y-57404000D03*
X99060000Y-54864000D03*
X114300000Y-54864000D03*
X114300000Y-57404000D03*
X114300000Y-59944000D03*
X114300000Y-62484000D03*
X114300000Y-65024000D03*
X114300000Y-67564000D03*
X114300000Y-70104000D03*
X114300000Y-72644000D03*
X114300000Y-75184000D03*
X114300000Y-77724000D03*
X114300000Y-80264000D03*
X114300000Y-82804000D03*
X114300000Y-85344000D03*
X114300000Y-87884000D03*
D12*
X91897200Y-53797200D03*
X91897200Y-87896700D03*
D17*
X122158760Y-77216000D03*
D18*
X120157240Y-77216000D03*
D17*
X129016760Y-77216000D03*
D18*
X127015240Y-77216000D03*
D17*
X135874760Y-77216000D03*
D18*
X133873240Y-77216000D03*
D17*
X122158760Y-69088000D03*
D18*
X120157240Y-69088000D03*
D17*
X129016760Y-69088000D03*
D18*
X127015240Y-69088000D03*
D17*
X135895080Y-69095620D03*
D18*
X133893560Y-69095620D03*
D17*
X142908020Y-69039740D03*
D18*
X140906500Y-69039740D03*
D17*
X122905520Y-60452000D03*
D18*
X118902480Y-60452000D03*
X120904000Y-60452000D03*
D17*
X132049520Y-60452000D03*
D18*
X128046480Y-60452000D03*
X130048000Y-60452000D03*
D17*
X141193520Y-60452000D03*
D18*
X137190480Y-60452000D03*
X139192000Y-60452000D03*
D17*
X148021040Y-60441840D03*
D18*
X146019520Y-60441840D03*
D13*
X154520900Y-65766950D03*
D14*
X154520900Y-68306950D03*
X154520900Y-70846950D03*
X154520900Y-73386950D03*
X154520900Y-75926950D03*
M02*
