M48
;DRILL file {KiCad 4.0.1-stable} date 2016/05/21 11:41:23
;FORMAT={3:3/ absolute / metric / suppress trailing zeros}
FMAT,2
METRIC,LZ
T1C0.400
T2C0.701
T3C0.800
T4C1.016
T5C3.200
%
G90
G05
M71
T1
X094844Y-07239
X094844Y-08702
X106604Y-076149
T2
X121173Y-09017
X121173Y-100076
X123175Y-09017
X123175Y-100076
X128539Y-09017
X128539Y-100076
X130541Y-09017
X130541Y-100076
X135905Y-09017
X135905Y-100076
X137907Y-09017
X137907Y-100076
X143271Y-09017
X143271Y-100076
X145273Y-09017
X145273Y-100076
X150637Y-100076
X152639Y-100076
X158003Y-100076
X160005Y-100076
X165369Y-100076
X167371Y-100076
X171704Y-069121
X171704Y-07112
X171704Y-073119
X171704Y-078011
X171704Y-08001
X171704Y-082009
X171704Y-086901
X171704Y-0889
X171704Y-090899
T3
X097536Y-06985
X097536Y-07239
X097536Y-07493
X097536Y-07747
X097536Y-08001
X097536Y-08255
X097536Y-08509
X097536Y-08763
X097536Y-09017
X097536Y-09271
X097536Y-09525
X097536Y-09779
X097536Y-10033
X097536Y-10287
X112776Y-06985
X112776Y-07239
X112776Y-07493
X112776Y-07747
X112776Y-08001
X112776Y-08255
X112776Y-08509
X112776Y-08763
X112776Y-09017
X112776Y-09271
X112776Y-09525
X112776Y-09779
X112776Y-10033
X112776Y-10287
T4
X0873Y-05334
X0873Y-05588
X0873Y-05842
X0873Y-06096
X0873Y-0635
X0873Y-06604
X0873Y-06858
X0873Y-07112
X0873Y-07366
X0873Y-0762
X0873Y-07874
X0873Y-08128
X0873Y-08382
X0873Y-08636
X0873Y-0889
X0873Y-09144
X0873Y-09398
X0873Y-09652
X0873Y-09906
X0873Y-1016
X08984Y-05334
X08984Y-05588
X08984Y-05842
X08984Y-06096
X08984Y-0635
X08984Y-06604
X08984Y-06858
X08984Y-07112
X08984Y-07366
X08984Y-0762
X08984Y-07874
X08984Y-08128
X08984Y-08382
X08984Y-08636
X08984Y-0889
X08984Y-09144
X08984Y-09398
X08984Y-09652
X08984Y-09906
X08984Y-1016
X16764Y-059182
X16764Y-061722
X16764Y-064262
T5
X082321Y-05207
X082321Y-10287
X174701Y-05207
X174701Y-102845
T0
M30
