G04 #@! TF.FileFunction,Copper,L2,Bot,Signal*
%FSLAX46Y46*%
G04 Gerber Fmt 4.6, Leading zero omitted, Abs format (unit mm)*
G04 Created by KiCad (PCBNEW 4.0.1-stable) date 2016/05/21 11:41:20*
%MOMM*%
G01*
G04 APERTURE LIST*
%ADD10C,0.100000*%
%ADD11R,1.198880X1.699260*%
%ADD12O,1.198880X1.699260*%
%ADD13R,2.032000X1.727200*%
%ADD14O,2.032000X1.727200*%
%ADD15R,1.699260X1.198880*%
%ADD16O,1.699260X1.198880*%
%ADD17R,1.727200X1.727200*%
%ADD18O,1.727200X1.727200*%
%ADD19O,1.600000X1.600000*%
%ADD20C,5.080000*%
%ADD21C,0.800000*%
%ADD22C,0.250000*%
%ADD23C,0.254000*%
G04 APERTURE END LIST*
D10*
D11*
X165369240Y-100076000D03*
D12*
X167370760Y-100076000D03*
D11*
X158003240Y-100076000D03*
D12*
X160004760Y-100076000D03*
D11*
X150637240Y-100076000D03*
D12*
X152638760Y-100076000D03*
D11*
X143271240Y-100076000D03*
D12*
X145272760Y-100076000D03*
D11*
X135905240Y-100076000D03*
D12*
X137906760Y-100076000D03*
D11*
X128539240Y-100076000D03*
D12*
X130540760Y-100076000D03*
D11*
X121173240Y-100076000D03*
D12*
X123174760Y-100076000D03*
D13*
X167640000Y-59182000D03*
D14*
X167640000Y-61722000D03*
X167640000Y-64262000D03*
D15*
X171704000Y-90898980D03*
D16*
X171704000Y-88900000D03*
X171704000Y-86901020D03*
D15*
X171704000Y-82008980D03*
D16*
X171704000Y-80010000D03*
X171704000Y-78011020D03*
D15*
X171704000Y-73118980D03*
D16*
X171704000Y-71120000D03*
X171704000Y-69121020D03*
D11*
X135905240Y-90170000D03*
D12*
X137906760Y-90170000D03*
D11*
X121173240Y-90170000D03*
D12*
X123174760Y-90170000D03*
D11*
X128539240Y-90170000D03*
D12*
X130540760Y-90170000D03*
D11*
X143271240Y-90170000D03*
D12*
X145272760Y-90170000D03*
D17*
X87299800Y-53340000D03*
D18*
X87299800Y-55880000D03*
X87299800Y-58420000D03*
X87299800Y-60960000D03*
X87299800Y-63500000D03*
X87299800Y-66040000D03*
X87299800Y-68580000D03*
X87299800Y-71120000D03*
X87299800Y-73660000D03*
X87299800Y-76200000D03*
X87299800Y-78740000D03*
X87299800Y-81280000D03*
X87299800Y-83820000D03*
X87299800Y-86360000D03*
X87299800Y-88900000D03*
X87299800Y-91440000D03*
X87299800Y-93980000D03*
X87299800Y-96520000D03*
X87299800Y-99060000D03*
X87299800Y-101600000D03*
X89839800Y-53340000D03*
X89839800Y-55880000D03*
X89839800Y-58420000D03*
X89839800Y-60960000D03*
X89839800Y-63500000D03*
X89839800Y-66040000D03*
X89839800Y-68580000D03*
X89839800Y-71120000D03*
X89839800Y-73660000D03*
X89839800Y-76200000D03*
X89839800Y-78740000D03*
X89839800Y-81280000D03*
X89839800Y-83820000D03*
X89839800Y-86360000D03*
X89839800Y-88900000D03*
X89839800Y-91440000D03*
X89839800Y-93980000D03*
X89839800Y-96520000D03*
X89839800Y-99060000D03*
X89839800Y-101600000D03*
D19*
X112776000Y-102870000D03*
X112776000Y-100330000D03*
X112776000Y-97790000D03*
X112776000Y-95250000D03*
X112776000Y-92710000D03*
X112776000Y-90170000D03*
X112776000Y-87630000D03*
X112776000Y-85090000D03*
X112776000Y-82550000D03*
X112776000Y-80010000D03*
X112776000Y-77470000D03*
X112776000Y-74930000D03*
X112776000Y-72390000D03*
X112776000Y-69850000D03*
X97536000Y-69850000D03*
X97536000Y-72390000D03*
X97536000Y-74930000D03*
X97536000Y-77470000D03*
X97536000Y-80010000D03*
X97536000Y-82550000D03*
X97536000Y-85090000D03*
X97536000Y-87630000D03*
X97536000Y-90170000D03*
X97536000Y-92710000D03*
X97536000Y-95250000D03*
X97536000Y-97790000D03*
X97536000Y-100330000D03*
X97536000Y-102870000D03*
D20*
X82321400Y-52070000D03*
X82321400Y-102870000D03*
X174701200Y-52070000D03*
X174701200Y-102844600D03*
D21*
X94843600Y-72390000D03*
X94843600Y-87020400D03*
X106603800Y-76149200D03*
D22*
X91186000Y-84455000D02*
X91186000Y-84531200D01*
X88582500Y-85458300D02*
X88976200Y-85064600D01*
X88976200Y-85064600D02*
X90525600Y-85064600D01*
X112776000Y-74930000D02*
X99949000Y-74930000D01*
X91186000Y-80137000D02*
X91186000Y-84455000D01*
X94996000Y-76327000D02*
X91186000Y-80137000D01*
X98552000Y-76327000D02*
X94996000Y-76327000D01*
X99949000Y-74930000D02*
X98552000Y-76327000D01*
X88582500Y-85458300D02*
X88582500Y-87312500D01*
X90652600Y-85064600D02*
X90525600Y-85064600D01*
X91186000Y-84531200D02*
X90652600Y-85064600D01*
X88582500Y-87312500D02*
X86995000Y-88900000D01*
X112776000Y-72390000D02*
X99695000Y-72390000D01*
X85598000Y-95123000D02*
X86995000Y-96520000D01*
X85598000Y-75057000D02*
X85598000Y-95123000D01*
X85725000Y-74930000D02*
X85598000Y-75057000D01*
X90424000Y-74930000D02*
X85725000Y-74930000D01*
X91694000Y-73660000D02*
X90424000Y-74930000D01*
X98425000Y-73660000D02*
X91694000Y-73660000D01*
X99695000Y-72390000D02*
X98425000Y-73660000D01*
X94843600Y-67259200D02*
X94843600Y-66929000D01*
X94843600Y-72390000D02*
X94843600Y-68249800D01*
X94843600Y-68249800D02*
X94843600Y-67259200D01*
X102590600Y-59182000D02*
X167640000Y-59182000D01*
X102590600Y-59182000D02*
X94843600Y-66929000D01*
X97536000Y-102870000D02*
X97256600Y-102870000D01*
X97256600Y-102870000D02*
X94843600Y-100457000D01*
X94843600Y-100457000D02*
X94843600Y-87020400D01*
X97536000Y-82550000D02*
X95758000Y-84328000D01*
X164625020Y-83820000D02*
X171704000Y-90898980D01*
X110744000Y-83820000D02*
X164625020Y-83820000D01*
X105664000Y-88900000D02*
X110744000Y-83820000D01*
X96647000Y-88900000D02*
X105664000Y-88900000D01*
X95758000Y-88011000D02*
X96647000Y-88900000D01*
X95758000Y-84328000D02*
X95758000Y-88011000D01*
X99872800Y-77673200D02*
X97536000Y-80010000D01*
X105079800Y-77673200D02*
X99872800Y-77673200D01*
X106603800Y-76149200D02*
X105079800Y-77673200D01*
X171704000Y-82008980D02*
X115028980Y-82008980D01*
X100203000Y-87630000D02*
X97536000Y-87630000D01*
X106553000Y-81280000D02*
X100203000Y-87630000D01*
X114300000Y-81280000D02*
X106553000Y-81280000D01*
X115028980Y-82008980D02*
X114300000Y-81280000D01*
X103860600Y-78765400D02*
X97536000Y-85090000D01*
X114808000Y-78765400D02*
X103860600Y-78765400D01*
X115562380Y-78011020D02*
X114808000Y-78765400D01*
X171704000Y-78011020D02*
X115562380Y-78011020D01*
X143271240Y-90170000D02*
X143271240Y-92313760D01*
X98552000Y-95250000D02*
X97536000Y-95250000D01*
X99949000Y-93853000D02*
X98552000Y-95250000D01*
X141732000Y-93853000D02*
X99949000Y-93853000D01*
X143271240Y-92313760D02*
X141732000Y-93853000D01*
D23*
G36*
X172905057Y-49376796D02*
X172011135Y-50269159D01*
X171526752Y-51435683D01*
X171525650Y-52698776D01*
X172007996Y-53866143D01*
X172900359Y-54760065D01*
X174066883Y-55244448D01*
X175329976Y-55245550D01*
X176497343Y-54763204D01*
X177391265Y-53870841D01*
X177801200Y-52883608D01*
X177801200Y-102032979D01*
X177394404Y-101048457D01*
X176502041Y-100154535D01*
X175335517Y-99670152D01*
X174072424Y-99669050D01*
X172905057Y-100151396D01*
X172011135Y-101043759D01*
X171526752Y-102210283D01*
X171525650Y-103473376D01*
X172007996Y-104640743D01*
X172900359Y-105534665D01*
X173948762Y-105970000D01*
X83133021Y-105970000D01*
X84117543Y-105563204D01*
X85011465Y-104670841D01*
X85495848Y-103504317D01*
X85496950Y-102241224D01*
X85014604Y-101073857D01*
X84122241Y-100179935D01*
X82955717Y-99695552D01*
X81692624Y-99694450D01*
X80525257Y-100176796D01*
X79631335Y-101069159D01*
X79221400Y-102056392D01*
X79221400Y-75057000D01*
X84838000Y-75057000D01*
X84838000Y-95123000D01*
X84895852Y-95413839D01*
X85060599Y-95660401D01*
X85816072Y-96415874D01*
X85801200Y-96490641D01*
X85801200Y-96549359D01*
X85915274Y-97122848D01*
X86240130Y-97609029D01*
X86510972Y-97790000D01*
X86240130Y-97970971D01*
X85915274Y-98457152D01*
X85801200Y-99030641D01*
X85801200Y-99089359D01*
X85915274Y-99662848D01*
X86240130Y-100149029D01*
X86510972Y-100330000D01*
X86240130Y-100510971D01*
X85915274Y-100997152D01*
X85801200Y-101570641D01*
X85801200Y-101629359D01*
X85915274Y-102202848D01*
X86240130Y-102689029D01*
X86726311Y-103013885D01*
X87299800Y-103127959D01*
X87873289Y-103013885D01*
X88359470Y-102689029D01*
X88569800Y-102374248D01*
X88780130Y-102689029D01*
X89266311Y-103013885D01*
X89839800Y-103127959D01*
X90413289Y-103013885D01*
X90899470Y-102689029D01*
X91224326Y-102202848D01*
X91338400Y-101629359D01*
X91338400Y-101570641D01*
X91224326Y-100997152D01*
X90899470Y-100510971D01*
X90628628Y-100330000D01*
X90899470Y-100149029D01*
X91224326Y-99662848D01*
X91338400Y-99089359D01*
X91338400Y-99030641D01*
X91224326Y-98457152D01*
X90899470Y-97970971D01*
X90628628Y-97790000D01*
X90899470Y-97609029D01*
X91224326Y-97122848D01*
X91338400Y-96549359D01*
X91338400Y-96490641D01*
X91224326Y-95917152D01*
X90899470Y-95430971D01*
X90628628Y-95250000D01*
X90899470Y-95069029D01*
X91224326Y-94582848D01*
X91338400Y-94009359D01*
X91338400Y-93950641D01*
X91224326Y-93377152D01*
X90899470Y-92890971D01*
X90628628Y-92710000D01*
X90899470Y-92529029D01*
X91224326Y-92042848D01*
X91338400Y-91469359D01*
X91338400Y-91410641D01*
X91224326Y-90837152D01*
X90899470Y-90350971D01*
X90628628Y-90170000D01*
X90899470Y-89989029D01*
X91224326Y-89502848D01*
X91338400Y-88929359D01*
X91338400Y-88870641D01*
X91224326Y-88297152D01*
X90899470Y-87810971D01*
X90628628Y-87630000D01*
X90899470Y-87449029D01*
X91224326Y-86962848D01*
X91338400Y-86389359D01*
X91338400Y-86330641D01*
X91224326Y-85757152D01*
X91142061Y-85634034D01*
X91190001Y-85602001D01*
X91723401Y-85068601D01*
X91888148Y-84822039D01*
X91946000Y-84531200D01*
X91946000Y-80451802D01*
X95310802Y-77087000D01*
X96149070Y-77087000D01*
X96072887Y-77470000D01*
X96182120Y-78019151D01*
X96493189Y-78484698D01*
X96875275Y-78740000D01*
X96493189Y-78995302D01*
X96182120Y-79460849D01*
X96072887Y-80010000D01*
X96182120Y-80559151D01*
X96493189Y-81024698D01*
X96875275Y-81280000D01*
X96493189Y-81535302D01*
X96182120Y-82000849D01*
X96072887Y-82550000D01*
X96137312Y-82873886D01*
X95220599Y-83790599D01*
X95055852Y-84037161D01*
X94998000Y-84328000D01*
X94998000Y-85985534D01*
X94638629Y-85985221D01*
X94258085Y-86142458D01*
X93966681Y-86433354D01*
X93808780Y-86813623D01*
X93808421Y-87225371D01*
X93965658Y-87605915D01*
X94083600Y-87724063D01*
X94083600Y-100457000D01*
X94141452Y-100747839D01*
X94306199Y-100994401D01*
X96090957Y-102779159D01*
X96072887Y-102870000D01*
X96182120Y-103419151D01*
X96493189Y-103884698D01*
X96958736Y-104195767D01*
X97507887Y-104305000D01*
X97564113Y-104305000D01*
X98113264Y-104195767D01*
X98578811Y-103884698D01*
X98889880Y-103419151D01*
X98929684Y-103219039D01*
X111384096Y-103219039D01*
X111544959Y-103607423D01*
X111920866Y-104022389D01*
X112426959Y-104261914D01*
X112649000Y-104140629D01*
X112649000Y-102997000D01*
X112903000Y-102997000D01*
X112903000Y-104140629D01*
X113125041Y-104261914D01*
X113631134Y-104022389D01*
X114007041Y-103607423D01*
X114167904Y-103219039D01*
X114045915Y-102997000D01*
X112903000Y-102997000D01*
X112649000Y-102997000D01*
X111506085Y-102997000D01*
X111384096Y-103219039D01*
X98929684Y-103219039D01*
X98999113Y-102870000D01*
X98889880Y-102320849D01*
X98578811Y-101855302D01*
X98196725Y-101600000D01*
X98578811Y-101344698D01*
X98889880Y-100879151D01*
X98999113Y-100330000D01*
X98889880Y-99780849D01*
X98578811Y-99315302D01*
X98196725Y-99060000D01*
X98578811Y-98804698D01*
X98889880Y-98339151D01*
X98999113Y-97790000D01*
X98889880Y-97240849D01*
X98578811Y-96775302D01*
X98196725Y-96520000D01*
X98578811Y-96264698D01*
X98779191Y-95964808D01*
X98842839Y-95952148D01*
X99089401Y-95787401D01*
X100263802Y-94613000D01*
X111480819Y-94613000D01*
X111422120Y-94700849D01*
X111312887Y-95250000D01*
X111422120Y-95799151D01*
X111733189Y-96264698D01*
X112115275Y-96520000D01*
X111733189Y-96775302D01*
X111422120Y-97240849D01*
X111312887Y-97790000D01*
X111422120Y-98339151D01*
X111733189Y-98804698D01*
X112115275Y-99060000D01*
X111733189Y-99315302D01*
X111422120Y-99780849D01*
X111312887Y-100330000D01*
X111422120Y-100879151D01*
X111733189Y-101344698D01*
X112137703Y-101614986D01*
X111920866Y-101717611D01*
X111544959Y-102132577D01*
X111384096Y-102520961D01*
X111506085Y-102743000D01*
X112649000Y-102743000D01*
X112649000Y-102723000D01*
X112903000Y-102723000D01*
X112903000Y-102743000D01*
X114045915Y-102743000D01*
X114167904Y-102520961D01*
X114007041Y-102132577D01*
X113631134Y-101717611D01*
X113414297Y-101614986D01*
X113818811Y-101344698D01*
X114129880Y-100879151D01*
X114239113Y-100330000D01*
X114129880Y-99780849D01*
X113818811Y-99315302D01*
X113685716Y-99226370D01*
X119926360Y-99226370D01*
X119926360Y-100925630D01*
X119970638Y-101160947D01*
X120109710Y-101377071D01*
X120321910Y-101522061D01*
X120573800Y-101573070D01*
X121772680Y-101573070D01*
X122007997Y-101528792D01*
X122224121Y-101389720D01*
X122329319Y-101235757D01*
X122345803Y-101257568D01*
X122765327Y-101503899D01*
X122857239Y-101519095D01*
X123047760Y-101394357D01*
X123047760Y-100203000D01*
X123301760Y-100203000D01*
X123301760Y-101394357D01*
X123492281Y-101519095D01*
X123584193Y-101503899D01*
X124003717Y-101257568D01*
X124297039Y-100869443D01*
X124419505Y-100398613D01*
X124256760Y-100203000D01*
X123301760Y-100203000D01*
X123047760Y-100203000D01*
X123027760Y-100203000D01*
X123027760Y-99949000D01*
X123047760Y-99949000D01*
X123047760Y-98757643D01*
X123301760Y-98757643D01*
X123301760Y-99949000D01*
X124256760Y-99949000D01*
X124419505Y-99753387D01*
X124297039Y-99282557D01*
X124254577Y-99226370D01*
X127292360Y-99226370D01*
X127292360Y-100925630D01*
X127336638Y-101160947D01*
X127475710Y-101377071D01*
X127687910Y-101522061D01*
X127939800Y-101573070D01*
X129138680Y-101573070D01*
X129373997Y-101528792D01*
X129590121Y-101389720D01*
X129695319Y-101235757D01*
X129711803Y-101257568D01*
X130131327Y-101503899D01*
X130223239Y-101519095D01*
X130413760Y-101394357D01*
X130413760Y-100203000D01*
X130667760Y-100203000D01*
X130667760Y-101394357D01*
X130858281Y-101519095D01*
X130950193Y-101503899D01*
X131369717Y-101257568D01*
X131663039Y-100869443D01*
X131785505Y-100398613D01*
X131622760Y-100203000D01*
X130667760Y-100203000D01*
X130413760Y-100203000D01*
X130393760Y-100203000D01*
X130393760Y-99949000D01*
X130413760Y-99949000D01*
X130413760Y-98757643D01*
X130667760Y-98757643D01*
X130667760Y-99949000D01*
X131622760Y-99949000D01*
X131785505Y-99753387D01*
X131663039Y-99282557D01*
X131620577Y-99226370D01*
X134658360Y-99226370D01*
X134658360Y-100925630D01*
X134702638Y-101160947D01*
X134841710Y-101377071D01*
X135053910Y-101522061D01*
X135305800Y-101573070D01*
X136504680Y-101573070D01*
X136739997Y-101528792D01*
X136956121Y-101389720D01*
X137061319Y-101235757D01*
X137077803Y-101257568D01*
X137497327Y-101503899D01*
X137589239Y-101519095D01*
X137779760Y-101394357D01*
X137779760Y-100203000D01*
X138033760Y-100203000D01*
X138033760Y-101394357D01*
X138224281Y-101519095D01*
X138316193Y-101503899D01*
X138735717Y-101257568D01*
X139029039Y-100869443D01*
X139151505Y-100398613D01*
X138988760Y-100203000D01*
X138033760Y-100203000D01*
X137779760Y-100203000D01*
X137759760Y-100203000D01*
X137759760Y-99949000D01*
X137779760Y-99949000D01*
X137779760Y-98757643D01*
X138033760Y-98757643D01*
X138033760Y-99949000D01*
X138988760Y-99949000D01*
X139151505Y-99753387D01*
X139029039Y-99282557D01*
X138986577Y-99226370D01*
X142024360Y-99226370D01*
X142024360Y-100925630D01*
X142068638Y-101160947D01*
X142207710Y-101377071D01*
X142419910Y-101522061D01*
X142671800Y-101573070D01*
X143870680Y-101573070D01*
X144105997Y-101528792D01*
X144322121Y-101389720D01*
X144427319Y-101235757D01*
X144443803Y-101257568D01*
X144863327Y-101503899D01*
X144955239Y-101519095D01*
X145145760Y-101394357D01*
X145145760Y-100203000D01*
X145399760Y-100203000D01*
X145399760Y-101394357D01*
X145590281Y-101519095D01*
X145682193Y-101503899D01*
X146101717Y-101257568D01*
X146395039Y-100869443D01*
X146517505Y-100398613D01*
X146354760Y-100203000D01*
X145399760Y-100203000D01*
X145145760Y-100203000D01*
X145125760Y-100203000D01*
X145125760Y-99949000D01*
X145145760Y-99949000D01*
X145145760Y-98757643D01*
X145399760Y-98757643D01*
X145399760Y-99949000D01*
X146354760Y-99949000D01*
X146517505Y-99753387D01*
X146395039Y-99282557D01*
X146352577Y-99226370D01*
X149390360Y-99226370D01*
X149390360Y-100925630D01*
X149434638Y-101160947D01*
X149573710Y-101377071D01*
X149785910Y-101522061D01*
X150037800Y-101573070D01*
X151236680Y-101573070D01*
X151471997Y-101528792D01*
X151688121Y-101389720D01*
X151793319Y-101235757D01*
X151809803Y-101257568D01*
X152229327Y-101503899D01*
X152321239Y-101519095D01*
X152511760Y-101394357D01*
X152511760Y-100203000D01*
X152765760Y-100203000D01*
X152765760Y-101394357D01*
X152956281Y-101519095D01*
X153048193Y-101503899D01*
X153467717Y-101257568D01*
X153761039Y-100869443D01*
X153883505Y-100398613D01*
X153720760Y-100203000D01*
X152765760Y-100203000D01*
X152511760Y-100203000D01*
X152491760Y-100203000D01*
X152491760Y-99949000D01*
X152511760Y-99949000D01*
X152511760Y-98757643D01*
X152765760Y-98757643D01*
X152765760Y-99949000D01*
X153720760Y-99949000D01*
X153883505Y-99753387D01*
X153761039Y-99282557D01*
X153718577Y-99226370D01*
X156756360Y-99226370D01*
X156756360Y-100925630D01*
X156800638Y-101160947D01*
X156939710Y-101377071D01*
X157151910Y-101522061D01*
X157403800Y-101573070D01*
X158602680Y-101573070D01*
X158837997Y-101528792D01*
X159054121Y-101389720D01*
X159159319Y-101235757D01*
X159175803Y-101257568D01*
X159595327Y-101503899D01*
X159687239Y-101519095D01*
X159877760Y-101394357D01*
X159877760Y-100203000D01*
X160131760Y-100203000D01*
X160131760Y-101394357D01*
X160322281Y-101519095D01*
X160414193Y-101503899D01*
X160833717Y-101257568D01*
X161127039Y-100869443D01*
X161249505Y-100398613D01*
X161086760Y-100203000D01*
X160131760Y-100203000D01*
X159877760Y-100203000D01*
X159857760Y-100203000D01*
X159857760Y-99949000D01*
X159877760Y-99949000D01*
X159877760Y-98757643D01*
X160131760Y-98757643D01*
X160131760Y-99949000D01*
X161086760Y-99949000D01*
X161249505Y-99753387D01*
X161127039Y-99282557D01*
X161084577Y-99226370D01*
X164122360Y-99226370D01*
X164122360Y-100925630D01*
X164166638Y-101160947D01*
X164305710Y-101377071D01*
X164517910Y-101522061D01*
X164769800Y-101573070D01*
X165968680Y-101573070D01*
X166203997Y-101528792D01*
X166420121Y-101389720D01*
X166525319Y-101235757D01*
X166541803Y-101257568D01*
X166961327Y-101503899D01*
X167053239Y-101519095D01*
X167243760Y-101394357D01*
X167243760Y-100203000D01*
X167497760Y-100203000D01*
X167497760Y-101394357D01*
X167688281Y-101519095D01*
X167780193Y-101503899D01*
X168199717Y-101257568D01*
X168493039Y-100869443D01*
X168615505Y-100398613D01*
X168452760Y-100203000D01*
X167497760Y-100203000D01*
X167243760Y-100203000D01*
X167223760Y-100203000D01*
X167223760Y-99949000D01*
X167243760Y-99949000D01*
X167243760Y-98757643D01*
X167497760Y-98757643D01*
X167497760Y-99949000D01*
X168452760Y-99949000D01*
X168615505Y-99753387D01*
X168493039Y-99282557D01*
X168199717Y-98894432D01*
X167780193Y-98648101D01*
X167688281Y-98632905D01*
X167497760Y-98757643D01*
X167243760Y-98757643D01*
X167053239Y-98632905D01*
X166961327Y-98648101D01*
X166541803Y-98894432D01*
X166524446Y-98917398D01*
X166432770Y-98774929D01*
X166220570Y-98629939D01*
X165968680Y-98578930D01*
X164769800Y-98578930D01*
X164534483Y-98623208D01*
X164318359Y-98762280D01*
X164173369Y-98974480D01*
X164122360Y-99226370D01*
X161084577Y-99226370D01*
X160833717Y-98894432D01*
X160414193Y-98648101D01*
X160322281Y-98632905D01*
X160131760Y-98757643D01*
X159877760Y-98757643D01*
X159687239Y-98632905D01*
X159595327Y-98648101D01*
X159175803Y-98894432D01*
X159158446Y-98917398D01*
X159066770Y-98774929D01*
X158854570Y-98629939D01*
X158602680Y-98578930D01*
X157403800Y-98578930D01*
X157168483Y-98623208D01*
X156952359Y-98762280D01*
X156807369Y-98974480D01*
X156756360Y-99226370D01*
X153718577Y-99226370D01*
X153467717Y-98894432D01*
X153048193Y-98648101D01*
X152956281Y-98632905D01*
X152765760Y-98757643D01*
X152511760Y-98757643D01*
X152321239Y-98632905D01*
X152229327Y-98648101D01*
X151809803Y-98894432D01*
X151792446Y-98917398D01*
X151700770Y-98774929D01*
X151488570Y-98629939D01*
X151236680Y-98578930D01*
X150037800Y-98578930D01*
X149802483Y-98623208D01*
X149586359Y-98762280D01*
X149441369Y-98974480D01*
X149390360Y-99226370D01*
X146352577Y-99226370D01*
X146101717Y-98894432D01*
X145682193Y-98648101D01*
X145590281Y-98632905D01*
X145399760Y-98757643D01*
X145145760Y-98757643D01*
X144955239Y-98632905D01*
X144863327Y-98648101D01*
X144443803Y-98894432D01*
X144426446Y-98917398D01*
X144334770Y-98774929D01*
X144122570Y-98629939D01*
X143870680Y-98578930D01*
X142671800Y-98578930D01*
X142436483Y-98623208D01*
X142220359Y-98762280D01*
X142075369Y-98974480D01*
X142024360Y-99226370D01*
X138986577Y-99226370D01*
X138735717Y-98894432D01*
X138316193Y-98648101D01*
X138224281Y-98632905D01*
X138033760Y-98757643D01*
X137779760Y-98757643D01*
X137589239Y-98632905D01*
X137497327Y-98648101D01*
X137077803Y-98894432D01*
X137060446Y-98917398D01*
X136968770Y-98774929D01*
X136756570Y-98629939D01*
X136504680Y-98578930D01*
X135305800Y-98578930D01*
X135070483Y-98623208D01*
X134854359Y-98762280D01*
X134709369Y-98974480D01*
X134658360Y-99226370D01*
X131620577Y-99226370D01*
X131369717Y-98894432D01*
X130950193Y-98648101D01*
X130858281Y-98632905D01*
X130667760Y-98757643D01*
X130413760Y-98757643D01*
X130223239Y-98632905D01*
X130131327Y-98648101D01*
X129711803Y-98894432D01*
X129694446Y-98917398D01*
X129602770Y-98774929D01*
X129390570Y-98629939D01*
X129138680Y-98578930D01*
X127939800Y-98578930D01*
X127704483Y-98623208D01*
X127488359Y-98762280D01*
X127343369Y-98974480D01*
X127292360Y-99226370D01*
X124254577Y-99226370D01*
X124003717Y-98894432D01*
X123584193Y-98648101D01*
X123492281Y-98632905D01*
X123301760Y-98757643D01*
X123047760Y-98757643D01*
X122857239Y-98632905D01*
X122765327Y-98648101D01*
X122345803Y-98894432D01*
X122328446Y-98917398D01*
X122236770Y-98774929D01*
X122024570Y-98629939D01*
X121772680Y-98578930D01*
X120573800Y-98578930D01*
X120338483Y-98623208D01*
X120122359Y-98762280D01*
X119977369Y-98974480D01*
X119926360Y-99226370D01*
X113685716Y-99226370D01*
X113436725Y-99060000D01*
X113818811Y-98804698D01*
X114129880Y-98339151D01*
X114239113Y-97790000D01*
X114129880Y-97240849D01*
X113818811Y-96775302D01*
X113436725Y-96520000D01*
X113818811Y-96264698D01*
X114129880Y-95799151D01*
X114239113Y-95250000D01*
X114129880Y-94700849D01*
X114071181Y-94613000D01*
X141732000Y-94613000D01*
X142022839Y-94555148D01*
X142269401Y-94390401D01*
X143808641Y-92851161D01*
X143973388Y-92604599D01*
X144031240Y-92313760D01*
X144031240Y-91636859D01*
X144105997Y-91622792D01*
X144322121Y-91483720D01*
X144427319Y-91329757D01*
X144443803Y-91351568D01*
X144863327Y-91597899D01*
X144955239Y-91613095D01*
X145145760Y-91488357D01*
X145145760Y-90297000D01*
X145399760Y-90297000D01*
X145399760Y-91488357D01*
X145590281Y-91613095D01*
X145682193Y-91597899D01*
X146101717Y-91351568D01*
X146395039Y-90963443D01*
X146517505Y-90492613D01*
X146354760Y-90297000D01*
X145399760Y-90297000D01*
X145145760Y-90297000D01*
X145125760Y-90297000D01*
X145125760Y-90043000D01*
X145145760Y-90043000D01*
X145145760Y-88851643D01*
X145399760Y-88851643D01*
X145399760Y-90043000D01*
X146354760Y-90043000D01*
X146517505Y-89847387D01*
X146395039Y-89376557D01*
X146101717Y-88988432D01*
X145682193Y-88742101D01*
X145590281Y-88726905D01*
X145399760Y-88851643D01*
X145145760Y-88851643D01*
X144955239Y-88726905D01*
X144863327Y-88742101D01*
X144443803Y-88988432D01*
X144426446Y-89011398D01*
X144334770Y-88868929D01*
X144122570Y-88723939D01*
X143870680Y-88672930D01*
X142671800Y-88672930D01*
X142436483Y-88717208D01*
X142220359Y-88856280D01*
X142075369Y-89068480D01*
X142024360Y-89320370D01*
X142024360Y-91019630D01*
X142068638Y-91254947D01*
X142207710Y-91471071D01*
X142419910Y-91616061D01*
X142511240Y-91634556D01*
X142511240Y-91998958D01*
X141417198Y-93093000D01*
X114162930Y-93093000D01*
X114239113Y-92710000D01*
X114129880Y-92160849D01*
X113818811Y-91695302D01*
X113436725Y-91440000D01*
X113818811Y-91184698D01*
X114129880Y-90719151D01*
X114239113Y-90170000D01*
X114129880Y-89620849D01*
X113929107Y-89320370D01*
X119926360Y-89320370D01*
X119926360Y-91019630D01*
X119970638Y-91254947D01*
X120109710Y-91471071D01*
X120321910Y-91616061D01*
X120573800Y-91667070D01*
X121772680Y-91667070D01*
X122007997Y-91622792D01*
X122224121Y-91483720D01*
X122329319Y-91329757D01*
X122345803Y-91351568D01*
X122765327Y-91597899D01*
X122857239Y-91613095D01*
X123047760Y-91488357D01*
X123047760Y-90297000D01*
X123301760Y-90297000D01*
X123301760Y-91488357D01*
X123492281Y-91613095D01*
X123584193Y-91597899D01*
X124003717Y-91351568D01*
X124297039Y-90963443D01*
X124419505Y-90492613D01*
X124256760Y-90297000D01*
X123301760Y-90297000D01*
X123047760Y-90297000D01*
X123027760Y-90297000D01*
X123027760Y-90043000D01*
X123047760Y-90043000D01*
X123047760Y-88851643D01*
X123301760Y-88851643D01*
X123301760Y-90043000D01*
X124256760Y-90043000D01*
X124419505Y-89847387D01*
X124297039Y-89376557D01*
X124254577Y-89320370D01*
X127292360Y-89320370D01*
X127292360Y-91019630D01*
X127336638Y-91254947D01*
X127475710Y-91471071D01*
X127687910Y-91616061D01*
X127939800Y-91667070D01*
X129138680Y-91667070D01*
X129373997Y-91622792D01*
X129590121Y-91483720D01*
X129695319Y-91329757D01*
X129711803Y-91351568D01*
X130131327Y-91597899D01*
X130223239Y-91613095D01*
X130413760Y-91488357D01*
X130413760Y-90297000D01*
X130667760Y-90297000D01*
X130667760Y-91488357D01*
X130858281Y-91613095D01*
X130950193Y-91597899D01*
X131369717Y-91351568D01*
X131663039Y-90963443D01*
X131785505Y-90492613D01*
X131622760Y-90297000D01*
X130667760Y-90297000D01*
X130413760Y-90297000D01*
X130393760Y-90297000D01*
X130393760Y-90043000D01*
X130413760Y-90043000D01*
X130413760Y-88851643D01*
X130667760Y-88851643D01*
X130667760Y-90043000D01*
X131622760Y-90043000D01*
X131785505Y-89847387D01*
X131663039Y-89376557D01*
X131620577Y-89320370D01*
X134658360Y-89320370D01*
X134658360Y-91019630D01*
X134702638Y-91254947D01*
X134841710Y-91471071D01*
X135053910Y-91616061D01*
X135305800Y-91667070D01*
X136504680Y-91667070D01*
X136739997Y-91622792D01*
X136956121Y-91483720D01*
X137061319Y-91329757D01*
X137077803Y-91351568D01*
X137497327Y-91597899D01*
X137589239Y-91613095D01*
X137779760Y-91488357D01*
X137779760Y-90297000D01*
X138033760Y-90297000D01*
X138033760Y-91488357D01*
X138224281Y-91613095D01*
X138316193Y-91597899D01*
X138735717Y-91351568D01*
X139029039Y-90963443D01*
X139151505Y-90492613D01*
X138988760Y-90297000D01*
X138033760Y-90297000D01*
X137779760Y-90297000D01*
X137759760Y-90297000D01*
X137759760Y-90043000D01*
X137779760Y-90043000D01*
X137779760Y-88851643D01*
X138033760Y-88851643D01*
X138033760Y-90043000D01*
X138988760Y-90043000D01*
X139151505Y-89847387D01*
X139029039Y-89376557D01*
X138735717Y-88988432D01*
X138316193Y-88742101D01*
X138224281Y-88726905D01*
X138033760Y-88851643D01*
X137779760Y-88851643D01*
X137589239Y-88726905D01*
X137497327Y-88742101D01*
X137077803Y-88988432D01*
X137060446Y-89011398D01*
X136968770Y-88868929D01*
X136756570Y-88723939D01*
X136504680Y-88672930D01*
X135305800Y-88672930D01*
X135070483Y-88717208D01*
X134854359Y-88856280D01*
X134709369Y-89068480D01*
X134658360Y-89320370D01*
X131620577Y-89320370D01*
X131369717Y-88988432D01*
X130950193Y-88742101D01*
X130858281Y-88726905D01*
X130667760Y-88851643D01*
X130413760Y-88851643D01*
X130223239Y-88726905D01*
X130131327Y-88742101D01*
X129711803Y-88988432D01*
X129694446Y-89011398D01*
X129602770Y-88868929D01*
X129390570Y-88723939D01*
X129138680Y-88672930D01*
X127939800Y-88672930D01*
X127704483Y-88717208D01*
X127488359Y-88856280D01*
X127343369Y-89068480D01*
X127292360Y-89320370D01*
X124254577Y-89320370D01*
X124003717Y-88988432D01*
X123584193Y-88742101D01*
X123492281Y-88726905D01*
X123301760Y-88851643D01*
X123047760Y-88851643D01*
X122857239Y-88726905D01*
X122765327Y-88742101D01*
X122345803Y-88988432D01*
X122328446Y-89011398D01*
X122236770Y-88868929D01*
X122024570Y-88723939D01*
X121772680Y-88672930D01*
X120573800Y-88672930D01*
X120338483Y-88717208D01*
X120122359Y-88856280D01*
X119977369Y-89068480D01*
X119926360Y-89320370D01*
X113929107Y-89320370D01*
X113818811Y-89155302D01*
X113436725Y-88900000D01*
X113818811Y-88644698D01*
X114129880Y-88179151D01*
X114239113Y-87630000D01*
X114129880Y-87080849D01*
X113818811Y-86615302D01*
X113436725Y-86360000D01*
X113818811Y-86104698D01*
X114129880Y-85639151D01*
X114239113Y-85090000D01*
X114137668Y-84580000D01*
X164310218Y-84580000D01*
X170206930Y-90476712D01*
X170206930Y-91498420D01*
X170251208Y-91733737D01*
X170390280Y-91949861D01*
X170602480Y-92094851D01*
X170854370Y-92145860D01*
X172553630Y-92145860D01*
X172788947Y-92101582D01*
X173005071Y-91962510D01*
X173150061Y-91750310D01*
X173201070Y-91498420D01*
X173201070Y-90299540D01*
X173156792Y-90064223D01*
X173017720Y-89848099D01*
X172865522Y-89744107D01*
X172885568Y-89728957D01*
X173131899Y-89309433D01*
X173147095Y-89217521D01*
X173022357Y-89027000D01*
X171831000Y-89027000D01*
X171831000Y-89047000D01*
X171577000Y-89047000D01*
X171577000Y-89027000D01*
X171557000Y-89027000D01*
X171557000Y-88773000D01*
X171577000Y-88773000D01*
X171577000Y-88753000D01*
X171831000Y-88753000D01*
X171831000Y-88773000D01*
X173022357Y-88773000D01*
X173147095Y-88582479D01*
X173131899Y-88490567D01*
X172885568Y-88071043D01*
X172663088Y-87902906D01*
X172856157Y-87773901D01*
X173123750Y-87373420D01*
X173217716Y-86901020D01*
X173123750Y-86428620D01*
X172856157Y-86028139D01*
X172455676Y-85760546D01*
X171983276Y-85666580D01*
X171424724Y-85666580D01*
X170952324Y-85760546D01*
X170551843Y-86028139D01*
X170284250Y-86428620D01*
X170190284Y-86901020D01*
X170284250Y-87373420D01*
X170551843Y-87773901D01*
X170744912Y-87902906D01*
X170522432Y-88071043D01*
X170310983Y-88431161D01*
X165162421Y-83282599D01*
X164915859Y-83117852D01*
X164625020Y-83060000D01*
X114137668Y-83060000D01*
X114239113Y-82550000D01*
X114175526Y-82230328D01*
X114491579Y-82546381D01*
X114738140Y-82711128D01*
X114786394Y-82720726D01*
X115028980Y-82768980D01*
X170237141Y-82768980D01*
X170251208Y-82843737D01*
X170390280Y-83059861D01*
X170602480Y-83204851D01*
X170854370Y-83255860D01*
X172553630Y-83255860D01*
X172788947Y-83211582D01*
X173005071Y-83072510D01*
X173150061Y-82860310D01*
X173201070Y-82608420D01*
X173201070Y-81409540D01*
X173156792Y-81174223D01*
X173017720Y-80958099D01*
X172865522Y-80854107D01*
X172885568Y-80838957D01*
X173131899Y-80419433D01*
X173147095Y-80327521D01*
X173022357Y-80137000D01*
X171831000Y-80137000D01*
X171831000Y-80157000D01*
X171577000Y-80157000D01*
X171577000Y-80137000D01*
X170385643Y-80137000D01*
X170260905Y-80327521D01*
X170276101Y-80419433D01*
X170522432Y-80838957D01*
X170543583Y-80854942D01*
X170402929Y-80945450D01*
X170257939Y-81157650D01*
X170239444Y-81248980D01*
X115343782Y-81248980D01*
X114837401Y-80742599D01*
X114590839Y-80577852D01*
X114300000Y-80520000D01*
X114137668Y-80520000D01*
X114239113Y-80010000D01*
X114142720Y-79525400D01*
X114808000Y-79525400D01*
X115098839Y-79467548D01*
X115345401Y-79302801D01*
X115877182Y-78771020D01*
X170476418Y-78771020D01*
X170551843Y-78883901D01*
X170744912Y-79012906D01*
X170522432Y-79181043D01*
X170276101Y-79600567D01*
X170260905Y-79692479D01*
X170385643Y-79883000D01*
X171577000Y-79883000D01*
X171577000Y-79863000D01*
X171831000Y-79863000D01*
X171831000Y-79883000D01*
X173022357Y-79883000D01*
X173147095Y-79692479D01*
X173131899Y-79600567D01*
X172885568Y-79181043D01*
X172663088Y-79012906D01*
X172856157Y-78883901D01*
X173123750Y-78483420D01*
X173217716Y-78011020D01*
X173123750Y-77538620D01*
X172856157Y-77138139D01*
X172455676Y-76870546D01*
X171983276Y-76776580D01*
X171424724Y-76776580D01*
X170952324Y-76870546D01*
X170551843Y-77138139D01*
X170476418Y-77251020D01*
X115562380Y-77251020D01*
X115319794Y-77299274D01*
X115271540Y-77308872D01*
X115024979Y-77473619D01*
X114493198Y-78005400D01*
X114132615Y-78005400D01*
X114239113Y-77470000D01*
X114129880Y-76920849D01*
X113818811Y-76455302D01*
X113436725Y-76200000D01*
X113818811Y-75944698D01*
X114129880Y-75479151D01*
X114239113Y-74930000D01*
X114129880Y-74380849D01*
X113818811Y-73915302D01*
X113436725Y-73660000D01*
X113818811Y-73404698D01*
X114129880Y-72939151D01*
X114213345Y-72519540D01*
X170206930Y-72519540D01*
X170206930Y-73718420D01*
X170251208Y-73953737D01*
X170390280Y-74169861D01*
X170602480Y-74314851D01*
X170854370Y-74365860D01*
X172553630Y-74365860D01*
X172788947Y-74321582D01*
X173005071Y-74182510D01*
X173150061Y-73970310D01*
X173201070Y-73718420D01*
X173201070Y-72519540D01*
X173156792Y-72284223D01*
X173017720Y-72068099D01*
X172865522Y-71964107D01*
X172885568Y-71948957D01*
X173131899Y-71529433D01*
X173147095Y-71437521D01*
X173022357Y-71247000D01*
X171831000Y-71247000D01*
X171831000Y-71267000D01*
X171577000Y-71267000D01*
X171577000Y-71247000D01*
X170385643Y-71247000D01*
X170260905Y-71437521D01*
X170276101Y-71529433D01*
X170522432Y-71948957D01*
X170543583Y-71964942D01*
X170402929Y-72055450D01*
X170257939Y-72267650D01*
X170206930Y-72519540D01*
X114213345Y-72519540D01*
X114239113Y-72390000D01*
X114129880Y-71840849D01*
X113818811Y-71375302D01*
X113436725Y-71120000D01*
X113818811Y-70864698D01*
X114129880Y-70399151D01*
X114239113Y-69850000D01*
X114129880Y-69300849D01*
X114009722Y-69121020D01*
X170190284Y-69121020D01*
X170284250Y-69593420D01*
X170551843Y-69993901D01*
X170744912Y-70122906D01*
X170522432Y-70291043D01*
X170276101Y-70710567D01*
X170260905Y-70802479D01*
X170385643Y-70993000D01*
X171577000Y-70993000D01*
X171577000Y-70973000D01*
X171831000Y-70973000D01*
X171831000Y-70993000D01*
X173022357Y-70993000D01*
X173147095Y-70802479D01*
X173131899Y-70710567D01*
X172885568Y-70291043D01*
X172663088Y-70122906D01*
X172856157Y-69993901D01*
X173123750Y-69593420D01*
X173217716Y-69121020D01*
X173123750Y-68648620D01*
X172856157Y-68248139D01*
X172455676Y-67980546D01*
X171983276Y-67886580D01*
X171424724Y-67886580D01*
X170952324Y-67980546D01*
X170551843Y-68248139D01*
X170284250Y-68648620D01*
X170190284Y-69121020D01*
X114009722Y-69121020D01*
X113818811Y-68835302D01*
X113353264Y-68524233D01*
X112804113Y-68415000D01*
X112747887Y-68415000D01*
X112198736Y-68524233D01*
X111733189Y-68835302D01*
X111422120Y-69300849D01*
X111312887Y-69850000D01*
X111422120Y-70399151D01*
X111733189Y-70864698D01*
X112115275Y-71120000D01*
X111733189Y-71375302D01*
X111563005Y-71630000D01*
X99695000Y-71630000D01*
X99404160Y-71687852D01*
X99157599Y-71852599D01*
X98936247Y-72073951D01*
X98889880Y-71840849D01*
X98578811Y-71375302D01*
X98196725Y-71120000D01*
X98578811Y-70864698D01*
X98889880Y-70399151D01*
X98999113Y-69850000D01*
X98889880Y-69300849D01*
X98578811Y-68835302D01*
X98113264Y-68524233D01*
X97564113Y-68415000D01*
X97507887Y-68415000D01*
X96958736Y-68524233D01*
X96493189Y-68835302D01*
X96182120Y-69300849D01*
X96072887Y-69850000D01*
X96182120Y-70399151D01*
X96493189Y-70864698D01*
X96875275Y-71120000D01*
X96493189Y-71375302D01*
X96182120Y-71840849D01*
X96072887Y-72390000D01*
X96174332Y-72900000D01*
X95752511Y-72900000D01*
X95878420Y-72596777D01*
X95878779Y-72185029D01*
X95721542Y-71804485D01*
X95603600Y-71686337D01*
X95603600Y-67243802D01*
X98226376Y-64621026D01*
X166032642Y-64621026D01*
X166035291Y-64636791D01*
X166289268Y-65164036D01*
X166725680Y-65553954D01*
X167278087Y-65747184D01*
X167513000Y-65602924D01*
X167513000Y-64389000D01*
X167767000Y-64389000D01*
X167767000Y-65602924D01*
X168001913Y-65747184D01*
X168554320Y-65553954D01*
X168990732Y-65164036D01*
X169244709Y-64636791D01*
X169247358Y-64621026D01*
X169126217Y-64389000D01*
X167767000Y-64389000D01*
X167513000Y-64389000D01*
X166153783Y-64389000D01*
X166032642Y-64621026D01*
X98226376Y-64621026D01*
X102905402Y-59942000D01*
X165976560Y-59942000D01*
X165976560Y-60045600D01*
X166020838Y-60280917D01*
X166159910Y-60497041D01*
X166372110Y-60642031D01*
X166413439Y-60650400D01*
X166395585Y-60662330D01*
X166070729Y-61148511D01*
X165956655Y-61722000D01*
X166070729Y-62295489D01*
X166395585Y-62781670D01*
X166705069Y-62988461D01*
X166289268Y-63359964D01*
X166035291Y-63887209D01*
X166032642Y-63902974D01*
X166153783Y-64135000D01*
X167513000Y-64135000D01*
X167513000Y-64115000D01*
X167767000Y-64115000D01*
X167767000Y-64135000D01*
X169126217Y-64135000D01*
X169247358Y-63902974D01*
X169244709Y-63887209D01*
X168990732Y-63359964D01*
X168574931Y-62988461D01*
X168884415Y-62781670D01*
X169209271Y-62295489D01*
X169323345Y-61722000D01*
X169209271Y-61148511D01*
X168884415Y-60662330D01*
X168870087Y-60652757D01*
X168891317Y-60648762D01*
X169107441Y-60509690D01*
X169252431Y-60297490D01*
X169303440Y-60045600D01*
X169303440Y-58318400D01*
X169259162Y-58083083D01*
X169120090Y-57866959D01*
X168907890Y-57721969D01*
X168656000Y-57670960D01*
X166624000Y-57670960D01*
X166388683Y-57715238D01*
X166172559Y-57854310D01*
X166027569Y-58066510D01*
X165976560Y-58318400D01*
X165976560Y-58422000D01*
X102590600Y-58422000D01*
X102348014Y-58470254D01*
X102299760Y-58479852D01*
X102053199Y-58644599D01*
X94306199Y-66391599D01*
X94141452Y-66638161D01*
X94083600Y-66929000D01*
X94083600Y-71686239D01*
X93966681Y-71802954D01*
X93808780Y-72183223D01*
X93808421Y-72594971D01*
X93934456Y-72900000D01*
X91694000Y-72900000D01*
X91403160Y-72957852D01*
X91227871Y-73074976D01*
X91224326Y-73057152D01*
X90899470Y-72570971D01*
X90628628Y-72390000D01*
X90899470Y-72209029D01*
X91224326Y-71722848D01*
X91338400Y-71149359D01*
X91338400Y-71090641D01*
X91224326Y-70517152D01*
X90899470Y-70030971D01*
X90628628Y-69850000D01*
X90899470Y-69669029D01*
X91224326Y-69182848D01*
X91338400Y-68609359D01*
X91338400Y-68550641D01*
X91224326Y-67977152D01*
X90899470Y-67490971D01*
X90628628Y-67310000D01*
X90899470Y-67129029D01*
X91224326Y-66642848D01*
X91338400Y-66069359D01*
X91338400Y-66010641D01*
X91224326Y-65437152D01*
X90899470Y-64950971D01*
X90628628Y-64770000D01*
X90899470Y-64589029D01*
X91224326Y-64102848D01*
X91338400Y-63529359D01*
X91338400Y-63470641D01*
X91224326Y-62897152D01*
X90899470Y-62410971D01*
X90628628Y-62230000D01*
X90899470Y-62049029D01*
X91224326Y-61562848D01*
X91338400Y-60989359D01*
X91338400Y-60930641D01*
X91224326Y-60357152D01*
X90899470Y-59870971D01*
X90628628Y-59690000D01*
X90899470Y-59509029D01*
X91224326Y-59022848D01*
X91338400Y-58449359D01*
X91338400Y-58390641D01*
X91224326Y-57817152D01*
X90899470Y-57330971D01*
X90628628Y-57150000D01*
X90899470Y-56969029D01*
X91224326Y-56482848D01*
X91338400Y-55909359D01*
X91338400Y-55850641D01*
X91224326Y-55277152D01*
X90899470Y-54790971D01*
X90628628Y-54610000D01*
X90899470Y-54429029D01*
X91224326Y-53942848D01*
X91338400Y-53369359D01*
X91338400Y-53310641D01*
X91224326Y-52737152D01*
X90899470Y-52250971D01*
X90413289Y-51926115D01*
X89839800Y-51812041D01*
X89266311Y-51926115D01*
X88780130Y-52250971D01*
X88766063Y-52272023D01*
X88701727Y-52116702D01*
X88523099Y-51938073D01*
X88289710Y-51841400D01*
X87585550Y-51841400D01*
X87426800Y-52000150D01*
X87426800Y-53213000D01*
X87446800Y-53213000D01*
X87446800Y-53467000D01*
X87426800Y-53467000D01*
X87426800Y-53487000D01*
X87172800Y-53487000D01*
X87172800Y-53467000D01*
X85959950Y-53467000D01*
X85801200Y-53625750D01*
X85801200Y-54329909D01*
X85897873Y-54563298D01*
X86076501Y-54741927D01*
X86230326Y-54805644D01*
X85915274Y-55277152D01*
X85801200Y-55850641D01*
X85801200Y-55909359D01*
X85915274Y-56482848D01*
X86240130Y-56969029D01*
X86510972Y-57150000D01*
X86240130Y-57330971D01*
X85915274Y-57817152D01*
X85801200Y-58390641D01*
X85801200Y-58449359D01*
X85915274Y-59022848D01*
X86240130Y-59509029D01*
X86510972Y-59690000D01*
X86240130Y-59870971D01*
X85915274Y-60357152D01*
X85801200Y-60930641D01*
X85801200Y-60989359D01*
X85915274Y-61562848D01*
X86240130Y-62049029D01*
X86510972Y-62230000D01*
X86240130Y-62410971D01*
X85915274Y-62897152D01*
X85801200Y-63470641D01*
X85801200Y-63529359D01*
X85915274Y-64102848D01*
X86240130Y-64589029D01*
X86510972Y-64770000D01*
X86240130Y-64950971D01*
X85915274Y-65437152D01*
X85801200Y-66010641D01*
X85801200Y-66069359D01*
X85915274Y-66642848D01*
X86240130Y-67129029D01*
X86510972Y-67310000D01*
X86240130Y-67490971D01*
X85915274Y-67977152D01*
X85801200Y-68550641D01*
X85801200Y-68609359D01*
X85915274Y-69182848D01*
X86240130Y-69669029D01*
X86510972Y-69850000D01*
X86240130Y-70030971D01*
X85915274Y-70517152D01*
X85801200Y-71090641D01*
X85801200Y-71149359D01*
X85915274Y-71722848D01*
X86240130Y-72209029D01*
X86510972Y-72390000D01*
X86240130Y-72570971D01*
X85915274Y-73057152D01*
X85801200Y-73630641D01*
X85801200Y-73689359D01*
X85896805Y-74170000D01*
X85725000Y-74170000D01*
X85434161Y-74227852D01*
X85187599Y-74392599D01*
X85060599Y-74519599D01*
X84895852Y-74766161D01*
X84838000Y-75057000D01*
X79221400Y-75057000D01*
X79221400Y-52881621D01*
X79628196Y-53866143D01*
X80520559Y-54760065D01*
X81687083Y-55244448D01*
X82950176Y-55245550D01*
X84117543Y-54763204D01*
X85011465Y-53870841D01*
X85495848Y-52704317D01*
X85496157Y-52350091D01*
X85801200Y-52350091D01*
X85801200Y-53054250D01*
X85959950Y-53213000D01*
X87172800Y-53213000D01*
X87172800Y-52000150D01*
X87014050Y-51841400D01*
X86309890Y-51841400D01*
X86076501Y-51938073D01*
X85897873Y-52116702D01*
X85801200Y-52350091D01*
X85496157Y-52350091D01*
X85496950Y-51441224D01*
X85014604Y-50273857D01*
X84122241Y-49379935D01*
X83135008Y-48970000D01*
X173889579Y-48970000D01*
X172905057Y-49376796D01*
X172905057Y-49376796D01*
G37*
X172905057Y-49376796D02*
X172011135Y-50269159D01*
X171526752Y-51435683D01*
X171525650Y-52698776D01*
X172007996Y-53866143D01*
X172900359Y-54760065D01*
X174066883Y-55244448D01*
X175329976Y-55245550D01*
X176497343Y-54763204D01*
X177391265Y-53870841D01*
X177801200Y-52883608D01*
X177801200Y-102032979D01*
X177394404Y-101048457D01*
X176502041Y-100154535D01*
X175335517Y-99670152D01*
X174072424Y-99669050D01*
X172905057Y-100151396D01*
X172011135Y-101043759D01*
X171526752Y-102210283D01*
X171525650Y-103473376D01*
X172007996Y-104640743D01*
X172900359Y-105534665D01*
X173948762Y-105970000D01*
X83133021Y-105970000D01*
X84117543Y-105563204D01*
X85011465Y-104670841D01*
X85495848Y-103504317D01*
X85496950Y-102241224D01*
X85014604Y-101073857D01*
X84122241Y-100179935D01*
X82955717Y-99695552D01*
X81692624Y-99694450D01*
X80525257Y-100176796D01*
X79631335Y-101069159D01*
X79221400Y-102056392D01*
X79221400Y-75057000D01*
X84838000Y-75057000D01*
X84838000Y-95123000D01*
X84895852Y-95413839D01*
X85060599Y-95660401D01*
X85816072Y-96415874D01*
X85801200Y-96490641D01*
X85801200Y-96549359D01*
X85915274Y-97122848D01*
X86240130Y-97609029D01*
X86510972Y-97790000D01*
X86240130Y-97970971D01*
X85915274Y-98457152D01*
X85801200Y-99030641D01*
X85801200Y-99089359D01*
X85915274Y-99662848D01*
X86240130Y-100149029D01*
X86510972Y-100330000D01*
X86240130Y-100510971D01*
X85915274Y-100997152D01*
X85801200Y-101570641D01*
X85801200Y-101629359D01*
X85915274Y-102202848D01*
X86240130Y-102689029D01*
X86726311Y-103013885D01*
X87299800Y-103127959D01*
X87873289Y-103013885D01*
X88359470Y-102689029D01*
X88569800Y-102374248D01*
X88780130Y-102689029D01*
X89266311Y-103013885D01*
X89839800Y-103127959D01*
X90413289Y-103013885D01*
X90899470Y-102689029D01*
X91224326Y-102202848D01*
X91338400Y-101629359D01*
X91338400Y-101570641D01*
X91224326Y-100997152D01*
X90899470Y-100510971D01*
X90628628Y-100330000D01*
X90899470Y-100149029D01*
X91224326Y-99662848D01*
X91338400Y-99089359D01*
X91338400Y-99030641D01*
X91224326Y-98457152D01*
X90899470Y-97970971D01*
X90628628Y-97790000D01*
X90899470Y-97609029D01*
X91224326Y-97122848D01*
X91338400Y-96549359D01*
X91338400Y-96490641D01*
X91224326Y-95917152D01*
X90899470Y-95430971D01*
X90628628Y-95250000D01*
X90899470Y-95069029D01*
X91224326Y-94582848D01*
X91338400Y-94009359D01*
X91338400Y-93950641D01*
X91224326Y-93377152D01*
X90899470Y-92890971D01*
X90628628Y-92710000D01*
X90899470Y-92529029D01*
X91224326Y-92042848D01*
X91338400Y-91469359D01*
X91338400Y-91410641D01*
X91224326Y-90837152D01*
X90899470Y-90350971D01*
X90628628Y-90170000D01*
X90899470Y-89989029D01*
X91224326Y-89502848D01*
X91338400Y-88929359D01*
X91338400Y-88870641D01*
X91224326Y-88297152D01*
X90899470Y-87810971D01*
X90628628Y-87630000D01*
X90899470Y-87449029D01*
X91224326Y-86962848D01*
X91338400Y-86389359D01*
X91338400Y-86330641D01*
X91224326Y-85757152D01*
X91142061Y-85634034D01*
X91190001Y-85602001D01*
X91723401Y-85068601D01*
X91888148Y-84822039D01*
X91946000Y-84531200D01*
X91946000Y-80451802D01*
X95310802Y-77087000D01*
X96149070Y-77087000D01*
X96072887Y-77470000D01*
X96182120Y-78019151D01*
X96493189Y-78484698D01*
X96875275Y-78740000D01*
X96493189Y-78995302D01*
X96182120Y-79460849D01*
X96072887Y-80010000D01*
X96182120Y-80559151D01*
X96493189Y-81024698D01*
X96875275Y-81280000D01*
X96493189Y-81535302D01*
X96182120Y-82000849D01*
X96072887Y-82550000D01*
X96137312Y-82873886D01*
X95220599Y-83790599D01*
X95055852Y-84037161D01*
X94998000Y-84328000D01*
X94998000Y-85985534D01*
X94638629Y-85985221D01*
X94258085Y-86142458D01*
X93966681Y-86433354D01*
X93808780Y-86813623D01*
X93808421Y-87225371D01*
X93965658Y-87605915D01*
X94083600Y-87724063D01*
X94083600Y-100457000D01*
X94141452Y-100747839D01*
X94306199Y-100994401D01*
X96090957Y-102779159D01*
X96072887Y-102870000D01*
X96182120Y-103419151D01*
X96493189Y-103884698D01*
X96958736Y-104195767D01*
X97507887Y-104305000D01*
X97564113Y-104305000D01*
X98113264Y-104195767D01*
X98578811Y-103884698D01*
X98889880Y-103419151D01*
X98929684Y-103219039D01*
X111384096Y-103219039D01*
X111544959Y-103607423D01*
X111920866Y-104022389D01*
X112426959Y-104261914D01*
X112649000Y-104140629D01*
X112649000Y-102997000D01*
X112903000Y-102997000D01*
X112903000Y-104140629D01*
X113125041Y-104261914D01*
X113631134Y-104022389D01*
X114007041Y-103607423D01*
X114167904Y-103219039D01*
X114045915Y-102997000D01*
X112903000Y-102997000D01*
X112649000Y-102997000D01*
X111506085Y-102997000D01*
X111384096Y-103219039D01*
X98929684Y-103219039D01*
X98999113Y-102870000D01*
X98889880Y-102320849D01*
X98578811Y-101855302D01*
X98196725Y-101600000D01*
X98578811Y-101344698D01*
X98889880Y-100879151D01*
X98999113Y-100330000D01*
X98889880Y-99780849D01*
X98578811Y-99315302D01*
X98196725Y-99060000D01*
X98578811Y-98804698D01*
X98889880Y-98339151D01*
X98999113Y-97790000D01*
X98889880Y-97240849D01*
X98578811Y-96775302D01*
X98196725Y-96520000D01*
X98578811Y-96264698D01*
X98779191Y-95964808D01*
X98842839Y-95952148D01*
X99089401Y-95787401D01*
X100263802Y-94613000D01*
X111480819Y-94613000D01*
X111422120Y-94700849D01*
X111312887Y-95250000D01*
X111422120Y-95799151D01*
X111733189Y-96264698D01*
X112115275Y-96520000D01*
X111733189Y-96775302D01*
X111422120Y-97240849D01*
X111312887Y-97790000D01*
X111422120Y-98339151D01*
X111733189Y-98804698D01*
X112115275Y-99060000D01*
X111733189Y-99315302D01*
X111422120Y-99780849D01*
X111312887Y-100330000D01*
X111422120Y-100879151D01*
X111733189Y-101344698D01*
X112137703Y-101614986D01*
X111920866Y-101717611D01*
X111544959Y-102132577D01*
X111384096Y-102520961D01*
X111506085Y-102743000D01*
X112649000Y-102743000D01*
X112649000Y-102723000D01*
X112903000Y-102723000D01*
X112903000Y-102743000D01*
X114045915Y-102743000D01*
X114167904Y-102520961D01*
X114007041Y-102132577D01*
X113631134Y-101717611D01*
X113414297Y-101614986D01*
X113818811Y-101344698D01*
X114129880Y-100879151D01*
X114239113Y-100330000D01*
X114129880Y-99780849D01*
X113818811Y-99315302D01*
X113685716Y-99226370D01*
X119926360Y-99226370D01*
X119926360Y-100925630D01*
X119970638Y-101160947D01*
X120109710Y-101377071D01*
X120321910Y-101522061D01*
X120573800Y-101573070D01*
X121772680Y-101573070D01*
X122007997Y-101528792D01*
X122224121Y-101389720D01*
X122329319Y-101235757D01*
X122345803Y-101257568D01*
X122765327Y-101503899D01*
X122857239Y-101519095D01*
X123047760Y-101394357D01*
X123047760Y-100203000D01*
X123301760Y-100203000D01*
X123301760Y-101394357D01*
X123492281Y-101519095D01*
X123584193Y-101503899D01*
X124003717Y-101257568D01*
X124297039Y-100869443D01*
X124419505Y-100398613D01*
X124256760Y-100203000D01*
X123301760Y-100203000D01*
X123047760Y-100203000D01*
X123027760Y-100203000D01*
X123027760Y-99949000D01*
X123047760Y-99949000D01*
X123047760Y-98757643D01*
X123301760Y-98757643D01*
X123301760Y-99949000D01*
X124256760Y-99949000D01*
X124419505Y-99753387D01*
X124297039Y-99282557D01*
X124254577Y-99226370D01*
X127292360Y-99226370D01*
X127292360Y-100925630D01*
X127336638Y-101160947D01*
X127475710Y-101377071D01*
X127687910Y-101522061D01*
X127939800Y-101573070D01*
X129138680Y-101573070D01*
X129373997Y-101528792D01*
X129590121Y-101389720D01*
X129695319Y-101235757D01*
X129711803Y-101257568D01*
X130131327Y-101503899D01*
X130223239Y-101519095D01*
X130413760Y-101394357D01*
X130413760Y-100203000D01*
X130667760Y-100203000D01*
X130667760Y-101394357D01*
X130858281Y-101519095D01*
X130950193Y-101503899D01*
X131369717Y-101257568D01*
X131663039Y-100869443D01*
X131785505Y-100398613D01*
X131622760Y-100203000D01*
X130667760Y-100203000D01*
X130413760Y-100203000D01*
X130393760Y-100203000D01*
X130393760Y-99949000D01*
X130413760Y-99949000D01*
X130413760Y-98757643D01*
X130667760Y-98757643D01*
X130667760Y-99949000D01*
X131622760Y-99949000D01*
X131785505Y-99753387D01*
X131663039Y-99282557D01*
X131620577Y-99226370D01*
X134658360Y-99226370D01*
X134658360Y-100925630D01*
X134702638Y-101160947D01*
X134841710Y-101377071D01*
X135053910Y-101522061D01*
X135305800Y-101573070D01*
X136504680Y-101573070D01*
X136739997Y-101528792D01*
X136956121Y-101389720D01*
X137061319Y-101235757D01*
X137077803Y-101257568D01*
X137497327Y-101503899D01*
X137589239Y-101519095D01*
X137779760Y-101394357D01*
X137779760Y-100203000D01*
X138033760Y-100203000D01*
X138033760Y-101394357D01*
X138224281Y-101519095D01*
X138316193Y-101503899D01*
X138735717Y-101257568D01*
X139029039Y-100869443D01*
X139151505Y-100398613D01*
X138988760Y-100203000D01*
X138033760Y-100203000D01*
X137779760Y-100203000D01*
X137759760Y-100203000D01*
X137759760Y-99949000D01*
X137779760Y-99949000D01*
X137779760Y-98757643D01*
X138033760Y-98757643D01*
X138033760Y-99949000D01*
X138988760Y-99949000D01*
X139151505Y-99753387D01*
X139029039Y-99282557D01*
X138986577Y-99226370D01*
X142024360Y-99226370D01*
X142024360Y-100925630D01*
X142068638Y-101160947D01*
X142207710Y-101377071D01*
X142419910Y-101522061D01*
X142671800Y-101573070D01*
X143870680Y-101573070D01*
X144105997Y-101528792D01*
X144322121Y-101389720D01*
X144427319Y-101235757D01*
X144443803Y-101257568D01*
X144863327Y-101503899D01*
X144955239Y-101519095D01*
X145145760Y-101394357D01*
X145145760Y-100203000D01*
X145399760Y-100203000D01*
X145399760Y-101394357D01*
X145590281Y-101519095D01*
X145682193Y-101503899D01*
X146101717Y-101257568D01*
X146395039Y-100869443D01*
X146517505Y-100398613D01*
X146354760Y-100203000D01*
X145399760Y-100203000D01*
X145145760Y-100203000D01*
X145125760Y-100203000D01*
X145125760Y-99949000D01*
X145145760Y-99949000D01*
X145145760Y-98757643D01*
X145399760Y-98757643D01*
X145399760Y-99949000D01*
X146354760Y-99949000D01*
X146517505Y-99753387D01*
X146395039Y-99282557D01*
X146352577Y-99226370D01*
X149390360Y-99226370D01*
X149390360Y-100925630D01*
X149434638Y-101160947D01*
X149573710Y-101377071D01*
X149785910Y-101522061D01*
X150037800Y-101573070D01*
X151236680Y-101573070D01*
X151471997Y-101528792D01*
X151688121Y-101389720D01*
X151793319Y-101235757D01*
X151809803Y-101257568D01*
X152229327Y-101503899D01*
X152321239Y-101519095D01*
X152511760Y-101394357D01*
X152511760Y-100203000D01*
X152765760Y-100203000D01*
X152765760Y-101394357D01*
X152956281Y-101519095D01*
X153048193Y-101503899D01*
X153467717Y-101257568D01*
X153761039Y-100869443D01*
X153883505Y-100398613D01*
X153720760Y-100203000D01*
X152765760Y-100203000D01*
X152511760Y-100203000D01*
X152491760Y-100203000D01*
X152491760Y-99949000D01*
X152511760Y-99949000D01*
X152511760Y-98757643D01*
X152765760Y-98757643D01*
X152765760Y-99949000D01*
X153720760Y-99949000D01*
X153883505Y-99753387D01*
X153761039Y-99282557D01*
X153718577Y-99226370D01*
X156756360Y-99226370D01*
X156756360Y-100925630D01*
X156800638Y-101160947D01*
X156939710Y-101377071D01*
X157151910Y-101522061D01*
X157403800Y-101573070D01*
X158602680Y-101573070D01*
X158837997Y-101528792D01*
X159054121Y-101389720D01*
X159159319Y-101235757D01*
X159175803Y-101257568D01*
X159595327Y-101503899D01*
X159687239Y-101519095D01*
X159877760Y-101394357D01*
X159877760Y-100203000D01*
X160131760Y-100203000D01*
X160131760Y-101394357D01*
X160322281Y-101519095D01*
X160414193Y-101503899D01*
X160833717Y-101257568D01*
X161127039Y-100869443D01*
X161249505Y-100398613D01*
X161086760Y-100203000D01*
X160131760Y-100203000D01*
X159877760Y-100203000D01*
X159857760Y-100203000D01*
X159857760Y-99949000D01*
X159877760Y-99949000D01*
X159877760Y-98757643D01*
X160131760Y-98757643D01*
X160131760Y-99949000D01*
X161086760Y-99949000D01*
X161249505Y-99753387D01*
X161127039Y-99282557D01*
X161084577Y-99226370D01*
X164122360Y-99226370D01*
X164122360Y-100925630D01*
X164166638Y-101160947D01*
X164305710Y-101377071D01*
X164517910Y-101522061D01*
X164769800Y-101573070D01*
X165968680Y-101573070D01*
X166203997Y-101528792D01*
X166420121Y-101389720D01*
X166525319Y-101235757D01*
X166541803Y-101257568D01*
X166961327Y-101503899D01*
X167053239Y-101519095D01*
X167243760Y-101394357D01*
X167243760Y-100203000D01*
X167497760Y-100203000D01*
X167497760Y-101394357D01*
X167688281Y-101519095D01*
X167780193Y-101503899D01*
X168199717Y-101257568D01*
X168493039Y-100869443D01*
X168615505Y-100398613D01*
X168452760Y-100203000D01*
X167497760Y-100203000D01*
X167243760Y-100203000D01*
X167223760Y-100203000D01*
X167223760Y-99949000D01*
X167243760Y-99949000D01*
X167243760Y-98757643D01*
X167497760Y-98757643D01*
X167497760Y-99949000D01*
X168452760Y-99949000D01*
X168615505Y-99753387D01*
X168493039Y-99282557D01*
X168199717Y-98894432D01*
X167780193Y-98648101D01*
X167688281Y-98632905D01*
X167497760Y-98757643D01*
X167243760Y-98757643D01*
X167053239Y-98632905D01*
X166961327Y-98648101D01*
X166541803Y-98894432D01*
X166524446Y-98917398D01*
X166432770Y-98774929D01*
X166220570Y-98629939D01*
X165968680Y-98578930D01*
X164769800Y-98578930D01*
X164534483Y-98623208D01*
X164318359Y-98762280D01*
X164173369Y-98974480D01*
X164122360Y-99226370D01*
X161084577Y-99226370D01*
X160833717Y-98894432D01*
X160414193Y-98648101D01*
X160322281Y-98632905D01*
X160131760Y-98757643D01*
X159877760Y-98757643D01*
X159687239Y-98632905D01*
X159595327Y-98648101D01*
X159175803Y-98894432D01*
X159158446Y-98917398D01*
X159066770Y-98774929D01*
X158854570Y-98629939D01*
X158602680Y-98578930D01*
X157403800Y-98578930D01*
X157168483Y-98623208D01*
X156952359Y-98762280D01*
X156807369Y-98974480D01*
X156756360Y-99226370D01*
X153718577Y-99226370D01*
X153467717Y-98894432D01*
X153048193Y-98648101D01*
X152956281Y-98632905D01*
X152765760Y-98757643D01*
X152511760Y-98757643D01*
X152321239Y-98632905D01*
X152229327Y-98648101D01*
X151809803Y-98894432D01*
X151792446Y-98917398D01*
X151700770Y-98774929D01*
X151488570Y-98629939D01*
X151236680Y-98578930D01*
X150037800Y-98578930D01*
X149802483Y-98623208D01*
X149586359Y-98762280D01*
X149441369Y-98974480D01*
X149390360Y-99226370D01*
X146352577Y-99226370D01*
X146101717Y-98894432D01*
X145682193Y-98648101D01*
X145590281Y-98632905D01*
X145399760Y-98757643D01*
X145145760Y-98757643D01*
X144955239Y-98632905D01*
X144863327Y-98648101D01*
X144443803Y-98894432D01*
X144426446Y-98917398D01*
X144334770Y-98774929D01*
X144122570Y-98629939D01*
X143870680Y-98578930D01*
X142671800Y-98578930D01*
X142436483Y-98623208D01*
X142220359Y-98762280D01*
X142075369Y-98974480D01*
X142024360Y-99226370D01*
X138986577Y-99226370D01*
X138735717Y-98894432D01*
X138316193Y-98648101D01*
X138224281Y-98632905D01*
X138033760Y-98757643D01*
X137779760Y-98757643D01*
X137589239Y-98632905D01*
X137497327Y-98648101D01*
X137077803Y-98894432D01*
X137060446Y-98917398D01*
X136968770Y-98774929D01*
X136756570Y-98629939D01*
X136504680Y-98578930D01*
X135305800Y-98578930D01*
X135070483Y-98623208D01*
X134854359Y-98762280D01*
X134709369Y-98974480D01*
X134658360Y-99226370D01*
X131620577Y-99226370D01*
X131369717Y-98894432D01*
X130950193Y-98648101D01*
X130858281Y-98632905D01*
X130667760Y-98757643D01*
X130413760Y-98757643D01*
X130223239Y-98632905D01*
X130131327Y-98648101D01*
X129711803Y-98894432D01*
X129694446Y-98917398D01*
X129602770Y-98774929D01*
X129390570Y-98629939D01*
X129138680Y-98578930D01*
X127939800Y-98578930D01*
X127704483Y-98623208D01*
X127488359Y-98762280D01*
X127343369Y-98974480D01*
X127292360Y-99226370D01*
X124254577Y-99226370D01*
X124003717Y-98894432D01*
X123584193Y-98648101D01*
X123492281Y-98632905D01*
X123301760Y-98757643D01*
X123047760Y-98757643D01*
X122857239Y-98632905D01*
X122765327Y-98648101D01*
X122345803Y-98894432D01*
X122328446Y-98917398D01*
X122236770Y-98774929D01*
X122024570Y-98629939D01*
X121772680Y-98578930D01*
X120573800Y-98578930D01*
X120338483Y-98623208D01*
X120122359Y-98762280D01*
X119977369Y-98974480D01*
X119926360Y-99226370D01*
X113685716Y-99226370D01*
X113436725Y-99060000D01*
X113818811Y-98804698D01*
X114129880Y-98339151D01*
X114239113Y-97790000D01*
X114129880Y-97240849D01*
X113818811Y-96775302D01*
X113436725Y-96520000D01*
X113818811Y-96264698D01*
X114129880Y-95799151D01*
X114239113Y-95250000D01*
X114129880Y-94700849D01*
X114071181Y-94613000D01*
X141732000Y-94613000D01*
X142022839Y-94555148D01*
X142269401Y-94390401D01*
X143808641Y-92851161D01*
X143973388Y-92604599D01*
X144031240Y-92313760D01*
X144031240Y-91636859D01*
X144105997Y-91622792D01*
X144322121Y-91483720D01*
X144427319Y-91329757D01*
X144443803Y-91351568D01*
X144863327Y-91597899D01*
X144955239Y-91613095D01*
X145145760Y-91488357D01*
X145145760Y-90297000D01*
X145399760Y-90297000D01*
X145399760Y-91488357D01*
X145590281Y-91613095D01*
X145682193Y-91597899D01*
X146101717Y-91351568D01*
X146395039Y-90963443D01*
X146517505Y-90492613D01*
X146354760Y-90297000D01*
X145399760Y-90297000D01*
X145145760Y-90297000D01*
X145125760Y-90297000D01*
X145125760Y-90043000D01*
X145145760Y-90043000D01*
X145145760Y-88851643D01*
X145399760Y-88851643D01*
X145399760Y-90043000D01*
X146354760Y-90043000D01*
X146517505Y-89847387D01*
X146395039Y-89376557D01*
X146101717Y-88988432D01*
X145682193Y-88742101D01*
X145590281Y-88726905D01*
X145399760Y-88851643D01*
X145145760Y-88851643D01*
X144955239Y-88726905D01*
X144863327Y-88742101D01*
X144443803Y-88988432D01*
X144426446Y-89011398D01*
X144334770Y-88868929D01*
X144122570Y-88723939D01*
X143870680Y-88672930D01*
X142671800Y-88672930D01*
X142436483Y-88717208D01*
X142220359Y-88856280D01*
X142075369Y-89068480D01*
X142024360Y-89320370D01*
X142024360Y-91019630D01*
X142068638Y-91254947D01*
X142207710Y-91471071D01*
X142419910Y-91616061D01*
X142511240Y-91634556D01*
X142511240Y-91998958D01*
X141417198Y-93093000D01*
X114162930Y-93093000D01*
X114239113Y-92710000D01*
X114129880Y-92160849D01*
X113818811Y-91695302D01*
X113436725Y-91440000D01*
X113818811Y-91184698D01*
X114129880Y-90719151D01*
X114239113Y-90170000D01*
X114129880Y-89620849D01*
X113929107Y-89320370D01*
X119926360Y-89320370D01*
X119926360Y-91019630D01*
X119970638Y-91254947D01*
X120109710Y-91471071D01*
X120321910Y-91616061D01*
X120573800Y-91667070D01*
X121772680Y-91667070D01*
X122007997Y-91622792D01*
X122224121Y-91483720D01*
X122329319Y-91329757D01*
X122345803Y-91351568D01*
X122765327Y-91597899D01*
X122857239Y-91613095D01*
X123047760Y-91488357D01*
X123047760Y-90297000D01*
X123301760Y-90297000D01*
X123301760Y-91488357D01*
X123492281Y-91613095D01*
X123584193Y-91597899D01*
X124003717Y-91351568D01*
X124297039Y-90963443D01*
X124419505Y-90492613D01*
X124256760Y-90297000D01*
X123301760Y-90297000D01*
X123047760Y-90297000D01*
X123027760Y-90297000D01*
X123027760Y-90043000D01*
X123047760Y-90043000D01*
X123047760Y-88851643D01*
X123301760Y-88851643D01*
X123301760Y-90043000D01*
X124256760Y-90043000D01*
X124419505Y-89847387D01*
X124297039Y-89376557D01*
X124254577Y-89320370D01*
X127292360Y-89320370D01*
X127292360Y-91019630D01*
X127336638Y-91254947D01*
X127475710Y-91471071D01*
X127687910Y-91616061D01*
X127939800Y-91667070D01*
X129138680Y-91667070D01*
X129373997Y-91622792D01*
X129590121Y-91483720D01*
X129695319Y-91329757D01*
X129711803Y-91351568D01*
X130131327Y-91597899D01*
X130223239Y-91613095D01*
X130413760Y-91488357D01*
X130413760Y-90297000D01*
X130667760Y-90297000D01*
X130667760Y-91488357D01*
X130858281Y-91613095D01*
X130950193Y-91597899D01*
X131369717Y-91351568D01*
X131663039Y-90963443D01*
X131785505Y-90492613D01*
X131622760Y-90297000D01*
X130667760Y-90297000D01*
X130413760Y-90297000D01*
X130393760Y-90297000D01*
X130393760Y-90043000D01*
X130413760Y-90043000D01*
X130413760Y-88851643D01*
X130667760Y-88851643D01*
X130667760Y-90043000D01*
X131622760Y-90043000D01*
X131785505Y-89847387D01*
X131663039Y-89376557D01*
X131620577Y-89320370D01*
X134658360Y-89320370D01*
X134658360Y-91019630D01*
X134702638Y-91254947D01*
X134841710Y-91471071D01*
X135053910Y-91616061D01*
X135305800Y-91667070D01*
X136504680Y-91667070D01*
X136739997Y-91622792D01*
X136956121Y-91483720D01*
X137061319Y-91329757D01*
X137077803Y-91351568D01*
X137497327Y-91597899D01*
X137589239Y-91613095D01*
X137779760Y-91488357D01*
X137779760Y-90297000D01*
X138033760Y-90297000D01*
X138033760Y-91488357D01*
X138224281Y-91613095D01*
X138316193Y-91597899D01*
X138735717Y-91351568D01*
X139029039Y-90963443D01*
X139151505Y-90492613D01*
X138988760Y-90297000D01*
X138033760Y-90297000D01*
X137779760Y-90297000D01*
X137759760Y-90297000D01*
X137759760Y-90043000D01*
X137779760Y-90043000D01*
X137779760Y-88851643D01*
X138033760Y-88851643D01*
X138033760Y-90043000D01*
X138988760Y-90043000D01*
X139151505Y-89847387D01*
X139029039Y-89376557D01*
X138735717Y-88988432D01*
X138316193Y-88742101D01*
X138224281Y-88726905D01*
X138033760Y-88851643D01*
X137779760Y-88851643D01*
X137589239Y-88726905D01*
X137497327Y-88742101D01*
X137077803Y-88988432D01*
X137060446Y-89011398D01*
X136968770Y-88868929D01*
X136756570Y-88723939D01*
X136504680Y-88672930D01*
X135305800Y-88672930D01*
X135070483Y-88717208D01*
X134854359Y-88856280D01*
X134709369Y-89068480D01*
X134658360Y-89320370D01*
X131620577Y-89320370D01*
X131369717Y-88988432D01*
X130950193Y-88742101D01*
X130858281Y-88726905D01*
X130667760Y-88851643D01*
X130413760Y-88851643D01*
X130223239Y-88726905D01*
X130131327Y-88742101D01*
X129711803Y-88988432D01*
X129694446Y-89011398D01*
X129602770Y-88868929D01*
X129390570Y-88723939D01*
X129138680Y-88672930D01*
X127939800Y-88672930D01*
X127704483Y-88717208D01*
X127488359Y-88856280D01*
X127343369Y-89068480D01*
X127292360Y-89320370D01*
X124254577Y-89320370D01*
X124003717Y-88988432D01*
X123584193Y-88742101D01*
X123492281Y-88726905D01*
X123301760Y-88851643D01*
X123047760Y-88851643D01*
X122857239Y-88726905D01*
X122765327Y-88742101D01*
X122345803Y-88988432D01*
X122328446Y-89011398D01*
X122236770Y-88868929D01*
X122024570Y-88723939D01*
X121772680Y-88672930D01*
X120573800Y-88672930D01*
X120338483Y-88717208D01*
X120122359Y-88856280D01*
X119977369Y-89068480D01*
X119926360Y-89320370D01*
X113929107Y-89320370D01*
X113818811Y-89155302D01*
X113436725Y-88900000D01*
X113818811Y-88644698D01*
X114129880Y-88179151D01*
X114239113Y-87630000D01*
X114129880Y-87080849D01*
X113818811Y-86615302D01*
X113436725Y-86360000D01*
X113818811Y-86104698D01*
X114129880Y-85639151D01*
X114239113Y-85090000D01*
X114137668Y-84580000D01*
X164310218Y-84580000D01*
X170206930Y-90476712D01*
X170206930Y-91498420D01*
X170251208Y-91733737D01*
X170390280Y-91949861D01*
X170602480Y-92094851D01*
X170854370Y-92145860D01*
X172553630Y-92145860D01*
X172788947Y-92101582D01*
X173005071Y-91962510D01*
X173150061Y-91750310D01*
X173201070Y-91498420D01*
X173201070Y-90299540D01*
X173156792Y-90064223D01*
X173017720Y-89848099D01*
X172865522Y-89744107D01*
X172885568Y-89728957D01*
X173131899Y-89309433D01*
X173147095Y-89217521D01*
X173022357Y-89027000D01*
X171831000Y-89027000D01*
X171831000Y-89047000D01*
X171577000Y-89047000D01*
X171577000Y-89027000D01*
X171557000Y-89027000D01*
X171557000Y-88773000D01*
X171577000Y-88773000D01*
X171577000Y-88753000D01*
X171831000Y-88753000D01*
X171831000Y-88773000D01*
X173022357Y-88773000D01*
X173147095Y-88582479D01*
X173131899Y-88490567D01*
X172885568Y-88071043D01*
X172663088Y-87902906D01*
X172856157Y-87773901D01*
X173123750Y-87373420D01*
X173217716Y-86901020D01*
X173123750Y-86428620D01*
X172856157Y-86028139D01*
X172455676Y-85760546D01*
X171983276Y-85666580D01*
X171424724Y-85666580D01*
X170952324Y-85760546D01*
X170551843Y-86028139D01*
X170284250Y-86428620D01*
X170190284Y-86901020D01*
X170284250Y-87373420D01*
X170551843Y-87773901D01*
X170744912Y-87902906D01*
X170522432Y-88071043D01*
X170310983Y-88431161D01*
X165162421Y-83282599D01*
X164915859Y-83117852D01*
X164625020Y-83060000D01*
X114137668Y-83060000D01*
X114239113Y-82550000D01*
X114175526Y-82230328D01*
X114491579Y-82546381D01*
X114738140Y-82711128D01*
X114786394Y-82720726D01*
X115028980Y-82768980D01*
X170237141Y-82768980D01*
X170251208Y-82843737D01*
X170390280Y-83059861D01*
X170602480Y-83204851D01*
X170854370Y-83255860D01*
X172553630Y-83255860D01*
X172788947Y-83211582D01*
X173005071Y-83072510D01*
X173150061Y-82860310D01*
X173201070Y-82608420D01*
X173201070Y-81409540D01*
X173156792Y-81174223D01*
X173017720Y-80958099D01*
X172865522Y-80854107D01*
X172885568Y-80838957D01*
X173131899Y-80419433D01*
X173147095Y-80327521D01*
X173022357Y-80137000D01*
X171831000Y-80137000D01*
X171831000Y-80157000D01*
X171577000Y-80157000D01*
X171577000Y-80137000D01*
X170385643Y-80137000D01*
X170260905Y-80327521D01*
X170276101Y-80419433D01*
X170522432Y-80838957D01*
X170543583Y-80854942D01*
X170402929Y-80945450D01*
X170257939Y-81157650D01*
X170239444Y-81248980D01*
X115343782Y-81248980D01*
X114837401Y-80742599D01*
X114590839Y-80577852D01*
X114300000Y-80520000D01*
X114137668Y-80520000D01*
X114239113Y-80010000D01*
X114142720Y-79525400D01*
X114808000Y-79525400D01*
X115098839Y-79467548D01*
X115345401Y-79302801D01*
X115877182Y-78771020D01*
X170476418Y-78771020D01*
X170551843Y-78883901D01*
X170744912Y-79012906D01*
X170522432Y-79181043D01*
X170276101Y-79600567D01*
X170260905Y-79692479D01*
X170385643Y-79883000D01*
X171577000Y-79883000D01*
X171577000Y-79863000D01*
X171831000Y-79863000D01*
X171831000Y-79883000D01*
X173022357Y-79883000D01*
X173147095Y-79692479D01*
X173131899Y-79600567D01*
X172885568Y-79181043D01*
X172663088Y-79012906D01*
X172856157Y-78883901D01*
X173123750Y-78483420D01*
X173217716Y-78011020D01*
X173123750Y-77538620D01*
X172856157Y-77138139D01*
X172455676Y-76870546D01*
X171983276Y-76776580D01*
X171424724Y-76776580D01*
X170952324Y-76870546D01*
X170551843Y-77138139D01*
X170476418Y-77251020D01*
X115562380Y-77251020D01*
X115319794Y-77299274D01*
X115271540Y-77308872D01*
X115024979Y-77473619D01*
X114493198Y-78005400D01*
X114132615Y-78005400D01*
X114239113Y-77470000D01*
X114129880Y-76920849D01*
X113818811Y-76455302D01*
X113436725Y-76200000D01*
X113818811Y-75944698D01*
X114129880Y-75479151D01*
X114239113Y-74930000D01*
X114129880Y-74380849D01*
X113818811Y-73915302D01*
X113436725Y-73660000D01*
X113818811Y-73404698D01*
X114129880Y-72939151D01*
X114213345Y-72519540D01*
X170206930Y-72519540D01*
X170206930Y-73718420D01*
X170251208Y-73953737D01*
X170390280Y-74169861D01*
X170602480Y-74314851D01*
X170854370Y-74365860D01*
X172553630Y-74365860D01*
X172788947Y-74321582D01*
X173005071Y-74182510D01*
X173150061Y-73970310D01*
X173201070Y-73718420D01*
X173201070Y-72519540D01*
X173156792Y-72284223D01*
X173017720Y-72068099D01*
X172865522Y-71964107D01*
X172885568Y-71948957D01*
X173131899Y-71529433D01*
X173147095Y-71437521D01*
X173022357Y-71247000D01*
X171831000Y-71247000D01*
X171831000Y-71267000D01*
X171577000Y-71267000D01*
X171577000Y-71247000D01*
X170385643Y-71247000D01*
X170260905Y-71437521D01*
X170276101Y-71529433D01*
X170522432Y-71948957D01*
X170543583Y-71964942D01*
X170402929Y-72055450D01*
X170257939Y-72267650D01*
X170206930Y-72519540D01*
X114213345Y-72519540D01*
X114239113Y-72390000D01*
X114129880Y-71840849D01*
X113818811Y-71375302D01*
X113436725Y-71120000D01*
X113818811Y-70864698D01*
X114129880Y-70399151D01*
X114239113Y-69850000D01*
X114129880Y-69300849D01*
X114009722Y-69121020D01*
X170190284Y-69121020D01*
X170284250Y-69593420D01*
X170551843Y-69993901D01*
X170744912Y-70122906D01*
X170522432Y-70291043D01*
X170276101Y-70710567D01*
X170260905Y-70802479D01*
X170385643Y-70993000D01*
X171577000Y-70993000D01*
X171577000Y-70973000D01*
X171831000Y-70973000D01*
X171831000Y-70993000D01*
X173022357Y-70993000D01*
X173147095Y-70802479D01*
X173131899Y-70710567D01*
X172885568Y-70291043D01*
X172663088Y-70122906D01*
X172856157Y-69993901D01*
X173123750Y-69593420D01*
X173217716Y-69121020D01*
X173123750Y-68648620D01*
X172856157Y-68248139D01*
X172455676Y-67980546D01*
X171983276Y-67886580D01*
X171424724Y-67886580D01*
X170952324Y-67980546D01*
X170551843Y-68248139D01*
X170284250Y-68648620D01*
X170190284Y-69121020D01*
X114009722Y-69121020D01*
X113818811Y-68835302D01*
X113353264Y-68524233D01*
X112804113Y-68415000D01*
X112747887Y-68415000D01*
X112198736Y-68524233D01*
X111733189Y-68835302D01*
X111422120Y-69300849D01*
X111312887Y-69850000D01*
X111422120Y-70399151D01*
X111733189Y-70864698D01*
X112115275Y-71120000D01*
X111733189Y-71375302D01*
X111563005Y-71630000D01*
X99695000Y-71630000D01*
X99404160Y-71687852D01*
X99157599Y-71852599D01*
X98936247Y-72073951D01*
X98889880Y-71840849D01*
X98578811Y-71375302D01*
X98196725Y-71120000D01*
X98578811Y-70864698D01*
X98889880Y-70399151D01*
X98999113Y-69850000D01*
X98889880Y-69300849D01*
X98578811Y-68835302D01*
X98113264Y-68524233D01*
X97564113Y-68415000D01*
X97507887Y-68415000D01*
X96958736Y-68524233D01*
X96493189Y-68835302D01*
X96182120Y-69300849D01*
X96072887Y-69850000D01*
X96182120Y-70399151D01*
X96493189Y-70864698D01*
X96875275Y-71120000D01*
X96493189Y-71375302D01*
X96182120Y-71840849D01*
X96072887Y-72390000D01*
X96174332Y-72900000D01*
X95752511Y-72900000D01*
X95878420Y-72596777D01*
X95878779Y-72185029D01*
X95721542Y-71804485D01*
X95603600Y-71686337D01*
X95603600Y-67243802D01*
X98226376Y-64621026D01*
X166032642Y-64621026D01*
X166035291Y-64636791D01*
X166289268Y-65164036D01*
X166725680Y-65553954D01*
X167278087Y-65747184D01*
X167513000Y-65602924D01*
X167513000Y-64389000D01*
X167767000Y-64389000D01*
X167767000Y-65602924D01*
X168001913Y-65747184D01*
X168554320Y-65553954D01*
X168990732Y-65164036D01*
X169244709Y-64636791D01*
X169247358Y-64621026D01*
X169126217Y-64389000D01*
X167767000Y-64389000D01*
X167513000Y-64389000D01*
X166153783Y-64389000D01*
X166032642Y-64621026D01*
X98226376Y-64621026D01*
X102905402Y-59942000D01*
X165976560Y-59942000D01*
X165976560Y-60045600D01*
X166020838Y-60280917D01*
X166159910Y-60497041D01*
X166372110Y-60642031D01*
X166413439Y-60650400D01*
X166395585Y-60662330D01*
X166070729Y-61148511D01*
X165956655Y-61722000D01*
X166070729Y-62295489D01*
X166395585Y-62781670D01*
X166705069Y-62988461D01*
X166289268Y-63359964D01*
X166035291Y-63887209D01*
X166032642Y-63902974D01*
X166153783Y-64135000D01*
X167513000Y-64135000D01*
X167513000Y-64115000D01*
X167767000Y-64115000D01*
X167767000Y-64135000D01*
X169126217Y-64135000D01*
X169247358Y-63902974D01*
X169244709Y-63887209D01*
X168990732Y-63359964D01*
X168574931Y-62988461D01*
X168884415Y-62781670D01*
X169209271Y-62295489D01*
X169323345Y-61722000D01*
X169209271Y-61148511D01*
X168884415Y-60662330D01*
X168870087Y-60652757D01*
X168891317Y-60648762D01*
X169107441Y-60509690D01*
X169252431Y-60297490D01*
X169303440Y-60045600D01*
X169303440Y-58318400D01*
X169259162Y-58083083D01*
X169120090Y-57866959D01*
X168907890Y-57721969D01*
X168656000Y-57670960D01*
X166624000Y-57670960D01*
X166388683Y-57715238D01*
X166172559Y-57854310D01*
X166027569Y-58066510D01*
X165976560Y-58318400D01*
X165976560Y-58422000D01*
X102590600Y-58422000D01*
X102348014Y-58470254D01*
X102299760Y-58479852D01*
X102053199Y-58644599D01*
X94306199Y-66391599D01*
X94141452Y-66638161D01*
X94083600Y-66929000D01*
X94083600Y-71686239D01*
X93966681Y-71802954D01*
X93808780Y-72183223D01*
X93808421Y-72594971D01*
X93934456Y-72900000D01*
X91694000Y-72900000D01*
X91403160Y-72957852D01*
X91227871Y-73074976D01*
X91224326Y-73057152D01*
X90899470Y-72570971D01*
X90628628Y-72390000D01*
X90899470Y-72209029D01*
X91224326Y-71722848D01*
X91338400Y-71149359D01*
X91338400Y-71090641D01*
X91224326Y-70517152D01*
X90899470Y-70030971D01*
X90628628Y-69850000D01*
X90899470Y-69669029D01*
X91224326Y-69182848D01*
X91338400Y-68609359D01*
X91338400Y-68550641D01*
X91224326Y-67977152D01*
X90899470Y-67490971D01*
X90628628Y-67310000D01*
X90899470Y-67129029D01*
X91224326Y-66642848D01*
X91338400Y-66069359D01*
X91338400Y-66010641D01*
X91224326Y-65437152D01*
X90899470Y-64950971D01*
X90628628Y-64770000D01*
X90899470Y-64589029D01*
X91224326Y-64102848D01*
X91338400Y-63529359D01*
X91338400Y-63470641D01*
X91224326Y-62897152D01*
X90899470Y-62410971D01*
X90628628Y-62230000D01*
X90899470Y-62049029D01*
X91224326Y-61562848D01*
X91338400Y-60989359D01*
X91338400Y-60930641D01*
X91224326Y-60357152D01*
X90899470Y-59870971D01*
X90628628Y-59690000D01*
X90899470Y-59509029D01*
X91224326Y-59022848D01*
X91338400Y-58449359D01*
X91338400Y-58390641D01*
X91224326Y-57817152D01*
X90899470Y-57330971D01*
X90628628Y-57150000D01*
X90899470Y-56969029D01*
X91224326Y-56482848D01*
X91338400Y-55909359D01*
X91338400Y-55850641D01*
X91224326Y-55277152D01*
X90899470Y-54790971D01*
X90628628Y-54610000D01*
X90899470Y-54429029D01*
X91224326Y-53942848D01*
X91338400Y-53369359D01*
X91338400Y-53310641D01*
X91224326Y-52737152D01*
X90899470Y-52250971D01*
X90413289Y-51926115D01*
X89839800Y-51812041D01*
X89266311Y-51926115D01*
X88780130Y-52250971D01*
X88766063Y-52272023D01*
X88701727Y-52116702D01*
X88523099Y-51938073D01*
X88289710Y-51841400D01*
X87585550Y-51841400D01*
X87426800Y-52000150D01*
X87426800Y-53213000D01*
X87446800Y-53213000D01*
X87446800Y-53467000D01*
X87426800Y-53467000D01*
X87426800Y-53487000D01*
X87172800Y-53487000D01*
X87172800Y-53467000D01*
X85959950Y-53467000D01*
X85801200Y-53625750D01*
X85801200Y-54329909D01*
X85897873Y-54563298D01*
X86076501Y-54741927D01*
X86230326Y-54805644D01*
X85915274Y-55277152D01*
X85801200Y-55850641D01*
X85801200Y-55909359D01*
X85915274Y-56482848D01*
X86240130Y-56969029D01*
X86510972Y-57150000D01*
X86240130Y-57330971D01*
X85915274Y-57817152D01*
X85801200Y-58390641D01*
X85801200Y-58449359D01*
X85915274Y-59022848D01*
X86240130Y-59509029D01*
X86510972Y-59690000D01*
X86240130Y-59870971D01*
X85915274Y-60357152D01*
X85801200Y-60930641D01*
X85801200Y-60989359D01*
X85915274Y-61562848D01*
X86240130Y-62049029D01*
X86510972Y-62230000D01*
X86240130Y-62410971D01*
X85915274Y-62897152D01*
X85801200Y-63470641D01*
X85801200Y-63529359D01*
X85915274Y-64102848D01*
X86240130Y-64589029D01*
X86510972Y-64770000D01*
X86240130Y-64950971D01*
X85915274Y-65437152D01*
X85801200Y-66010641D01*
X85801200Y-66069359D01*
X85915274Y-66642848D01*
X86240130Y-67129029D01*
X86510972Y-67310000D01*
X86240130Y-67490971D01*
X85915274Y-67977152D01*
X85801200Y-68550641D01*
X85801200Y-68609359D01*
X85915274Y-69182848D01*
X86240130Y-69669029D01*
X86510972Y-69850000D01*
X86240130Y-70030971D01*
X85915274Y-70517152D01*
X85801200Y-71090641D01*
X85801200Y-71149359D01*
X85915274Y-71722848D01*
X86240130Y-72209029D01*
X86510972Y-72390000D01*
X86240130Y-72570971D01*
X85915274Y-73057152D01*
X85801200Y-73630641D01*
X85801200Y-73689359D01*
X85896805Y-74170000D01*
X85725000Y-74170000D01*
X85434161Y-74227852D01*
X85187599Y-74392599D01*
X85060599Y-74519599D01*
X84895852Y-74766161D01*
X84838000Y-75057000D01*
X79221400Y-75057000D01*
X79221400Y-52881621D01*
X79628196Y-53866143D01*
X80520559Y-54760065D01*
X81687083Y-55244448D01*
X82950176Y-55245550D01*
X84117543Y-54763204D01*
X85011465Y-53870841D01*
X85495848Y-52704317D01*
X85496157Y-52350091D01*
X85801200Y-52350091D01*
X85801200Y-53054250D01*
X85959950Y-53213000D01*
X87172800Y-53213000D01*
X87172800Y-52000150D01*
X87014050Y-51841400D01*
X86309890Y-51841400D01*
X86076501Y-51938073D01*
X85897873Y-52116702D01*
X85801200Y-52350091D01*
X85496157Y-52350091D01*
X85496950Y-51441224D01*
X85014604Y-50273857D01*
X84122241Y-49379935D01*
X83135008Y-48970000D01*
X173889579Y-48970000D01*
X172905057Y-49376796D01*
M02*
