G04 #@! TF.FileFunction,Soldermask,Bot*
%FSLAX46Y46*%
G04 Gerber Fmt 4.6, Leading zero omitted, Abs format (unit mm)*
G04 Created by KiCad (PCBNEW 4.0.1-stable) date 2016/05/21 11:41:20*
%MOMM*%
G01*
G04 APERTURE LIST*
%ADD10C,0.100000*%
%ADD11R,1.598880X2.099260*%
%ADD12O,1.598880X2.099260*%
%ADD13R,2.432000X2.127200*%
%ADD14O,2.432000X2.127200*%
%ADD15R,2.099260X1.598880*%
%ADD16O,2.099260X1.598880*%
%ADD17R,2.127200X2.127200*%
%ADD18O,2.127200X2.127200*%
%ADD19O,2.000000X2.000000*%
%ADD20C,5.480000*%
G04 APERTURE END LIST*
D10*
D11*
X165369240Y-100076000D03*
D12*
X167370760Y-100076000D03*
D11*
X158003240Y-100076000D03*
D12*
X160004760Y-100076000D03*
D11*
X150637240Y-100076000D03*
D12*
X152638760Y-100076000D03*
D11*
X143271240Y-100076000D03*
D12*
X145272760Y-100076000D03*
D11*
X135905240Y-100076000D03*
D12*
X137906760Y-100076000D03*
D11*
X128539240Y-100076000D03*
D12*
X130540760Y-100076000D03*
D11*
X121173240Y-100076000D03*
D12*
X123174760Y-100076000D03*
D13*
X167640000Y-59182000D03*
D14*
X167640000Y-61722000D03*
X167640000Y-64262000D03*
D15*
X171704000Y-90898980D03*
D16*
X171704000Y-88900000D03*
X171704000Y-86901020D03*
D15*
X171704000Y-82008980D03*
D16*
X171704000Y-80010000D03*
X171704000Y-78011020D03*
D15*
X171704000Y-73118980D03*
D16*
X171704000Y-71120000D03*
X171704000Y-69121020D03*
D11*
X135905240Y-90170000D03*
D12*
X137906760Y-90170000D03*
D11*
X121173240Y-90170000D03*
D12*
X123174760Y-90170000D03*
D11*
X128539240Y-90170000D03*
D12*
X130540760Y-90170000D03*
D11*
X143271240Y-90170000D03*
D12*
X145272760Y-90170000D03*
D17*
X87299800Y-53340000D03*
D18*
X87299800Y-55880000D03*
X87299800Y-58420000D03*
X87299800Y-60960000D03*
X87299800Y-63500000D03*
X87299800Y-66040000D03*
X87299800Y-68580000D03*
X87299800Y-71120000D03*
X87299800Y-73660000D03*
X87299800Y-76200000D03*
X87299800Y-78740000D03*
X87299800Y-81280000D03*
X87299800Y-83820000D03*
X87299800Y-86360000D03*
X87299800Y-88900000D03*
X87299800Y-91440000D03*
X87299800Y-93980000D03*
X87299800Y-96520000D03*
X87299800Y-99060000D03*
X87299800Y-101600000D03*
X89839800Y-53340000D03*
X89839800Y-55880000D03*
X89839800Y-58420000D03*
X89839800Y-60960000D03*
X89839800Y-63500000D03*
X89839800Y-66040000D03*
X89839800Y-68580000D03*
X89839800Y-71120000D03*
X89839800Y-73660000D03*
X89839800Y-76200000D03*
X89839800Y-78740000D03*
X89839800Y-81280000D03*
X89839800Y-83820000D03*
X89839800Y-86360000D03*
X89839800Y-88900000D03*
X89839800Y-91440000D03*
X89839800Y-93980000D03*
X89839800Y-96520000D03*
X89839800Y-99060000D03*
X89839800Y-101600000D03*
D19*
X112776000Y-102870000D03*
X112776000Y-100330000D03*
X112776000Y-97790000D03*
X112776000Y-95250000D03*
X112776000Y-92710000D03*
X112776000Y-90170000D03*
X112776000Y-87630000D03*
X112776000Y-85090000D03*
X112776000Y-82550000D03*
X112776000Y-80010000D03*
X112776000Y-77470000D03*
X112776000Y-74930000D03*
X112776000Y-72390000D03*
X112776000Y-69850000D03*
X97536000Y-69850000D03*
X97536000Y-72390000D03*
X97536000Y-74930000D03*
X97536000Y-77470000D03*
X97536000Y-80010000D03*
X97536000Y-82550000D03*
X97536000Y-85090000D03*
X97536000Y-87630000D03*
X97536000Y-90170000D03*
X97536000Y-92710000D03*
X97536000Y-95250000D03*
X97536000Y-97790000D03*
X97536000Y-100330000D03*
X97536000Y-102870000D03*
D20*
X82321400Y-52070000D03*
X82321400Y-102870000D03*
X174701200Y-52070000D03*
X174701200Y-102844600D03*
M02*
