G04 #@! TF.FileFunction,Copper,L1,Top,Signal*
%FSLAX46Y46*%
G04 Gerber Fmt 4.6, Leading zero omitted, Abs format (unit mm)*
G04 Created by KiCad (PCBNEW 4.0.1-stable) date 2016/05/21 11:41:20*
%MOMM*%
G01*
G04 APERTURE LIST*
%ADD10C,0.100000*%
%ADD11R,1.198880X1.699260*%
%ADD12O,1.198880X1.699260*%
%ADD13R,2.032000X1.727200*%
%ADD14O,2.032000X1.727200*%
%ADD15R,1.699260X1.198880*%
%ADD16O,1.699260X1.198880*%
%ADD17R,1.727200X1.727200*%
%ADD18O,1.727200X1.727200*%
%ADD19O,1.600000X1.600000*%
%ADD20C,5.080000*%
%ADD21C,0.800000*%
%ADD22C,0.250000*%
%ADD23C,0.254000*%
G04 APERTURE END LIST*
D10*
D11*
X165369240Y-100076000D03*
D12*
X167370760Y-100076000D03*
D11*
X158003240Y-100076000D03*
D12*
X160004760Y-100076000D03*
D11*
X150637240Y-100076000D03*
D12*
X152638760Y-100076000D03*
D11*
X143271240Y-100076000D03*
D12*
X145272760Y-100076000D03*
D11*
X135905240Y-100076000D03*
D12*
X137906760Y-100076000D03*
D11*
X128539240Y-100076000D03*
D12*
X130540760Y-100076000D03*
D11*
X121173240Y-100076000D03*
D12*
X123174760Y-100076000D03*
D13*
X167640000Y-59182000D03*
D14*
X167640000Y-61722000D03*
X167640000Y-64262000D03*
D15*
X171704000Y-90898980D03*
D16*
X171704000Y-88900000D03*
X171704000Y-86901020D03*
D15*
X171704000Y-82008980D03*
D16*
X171704000Y-80010000D03*
X171704000Y-78011020D03*
D15*
X171704000Y-73118980D03*
D16*
X171704000Y-71120000D03*
X171704000Y-69121020D03*
D11*
X135905240Y-90170000D03*
D12*
X137906760Y-90170000D03*
D11*
X121173240Y-90170000D03*
D12*
X123174760Y-90170000D03*
D11*
X128539240Y-90170000D03*
D12*
X130540760Y-90170000D03*
D11*
X143271240Y-90170000D03*
D12*
X145272760Y-90170000D03*
D17*
X87299800Y-53340000D03*
D18*
X87299800Y-55880000D03*
X87299800Y-58420000D03*
X87299800Y-60960000D03*
X87299800Y-63500000D03*
X87299800Y-66040000D03*
X87299800Y-68580000D03*
X87299800Y-71120000D03*
X87299800Y-73660000D03*
X87299800Y-76200000D03*
X87299800Y-78740000D03*
X87299800Y-81280000D03*
X87299800Y-83820000D03*
X87299800Y-86360000D03*
X87299800Y-88900000D03*
X87299800Y-91440000D03*
X87299800Y-93980000D03*
X87299800Y-96520000D03*
X87299800Y-99060000D03*
X87299800Y-101600000D03*
X89839800Y-53340000D03*
X89839800Y-55880000D03*
X89839800Y-58420000D03*
X89839800Y-60960000D03*
X89839800Y-63500000D03*
X89839800Y-66040000D03*
X89839800Y-68580000D03*
X89839800Y-71120000D03*
X89839800Y-73660000D03*
X89839800Y-76200000D03*
X89839800Y-78740000D03*
X89839800Y-81280000D03*
X89839800Y-83820000D03*
X89839800Y-86360000D03*
X89839800Y-88900000D03*
X89839800Y-91440000D03*
X89839800Y-93980000D03*
X89839800Y-96520000D03*
X89839800Y-99060000D03*
X89839800Y-101600000D03*
D19*
X112776000Y-102870000D03*
X112776000Y-100330000D03*
X112776000Y-97790000D03*
X112776000Y-95250000D03*
X112776000Y-92710000D03*
X112776000Y-90170000D03*
X112776000Y-87630000D03*
X112776000Y-85090000D03*
X112776000Y-82550000D03*
X112776000Y-80010000D03*
X112776000Y-77470000D03*
X112776000Y-74930000D03*
X112776000Y-72390000D03*
X112776000Y-69850000D03*
X97536000Y-69850000D03*
X97536000Y-72390000D03*
X97536000Y-74930000D03*
X97536000Y-77470000D03*
X97536000Y-80010000D03*
X97536000Y-82550000D03*
X97536000Y-85090000D03*
X97536000Y-87630000D03*
X97536000Y-90170000D03*
X97536000Y-92710000D03*
X97536000Y-95250000D03*
X97536000Y-97790000D03*
X97536000Y-100330000D03*
X97536000Y-102870000D03*
D20*
X82321400Y-52070000D03*
X82321400Y-102870000D03*
X174701200Y-52070000D03*
X174701200Y-102844600D03*
D21*
X94843600Y-72390000D03*
X94843600Y-87020400D03*
X106603800Y-76149200D03*
D22*
X97536000Y-69850000D02*
X97536000Y-68707000D01*
X88265000Y-62230000D02*
X86995000Y-60960000D01*
X91059000Y-62230000D02*
X88265000Y-62230000D01*
X97536000Y-68707000D02*
X91059000Y-62230000D01*
X97536000Y-74930000D02*
X97917000Y-74930000D01*
X97917000Y-74930000D02*
X98933000Y-73914000D01*
X98933000Y-73914000D02*
X98933000Y-71501000D01*
X98933000Y-71501000D02*
X98552000Y-71120000D01*
X98552000Y-71120000D02*
X96901000Y-71120000D01*
X96901000Y-71120000D02*
X90805000Y-65024000D01*
X90805000Y-65024000D02*
X90551000Y-64770000D01*
X90551000Y-64770000D02*
X88265000Y-64770000D01*
X88265000Y-64770000D02*
X86995000Y-63500000D01*
X97536000Y-72390000D02*
X96774000Y-72390000D01*
X96774000Y-72390000D02*
X95758000Y-73406000D01*
X95758000Y-73406000D02*
X95758000Y-87884000D01*
X95758000Y-87884000D02*
X90932000Y-92710000D01*
X90932000Y-92710000D02*
X88265000Y-92710000D01*
X88265000Y-92710000D02*
X86995000Y-93980000D01*
X99949000Y-90170000D02*
X98679000Y-91440000D01*
X99949000Y-77470000D02*
X99949000Y-90170000D01*
X112776000Y-69850000D02*
X107569000Y-69850000D01*
X88265000Y-100330000D02*
X86995000Y-101600000D01*
X90805000Y-100330000D02*
X88265000Y-100330000D01*
X91694000Y-99441000D02*
X90805000Y-100330000D01*
X91694000Y-96393000D02*
X91694000Y-99441000D01*
X96647000Y-91440000D02*
X91694000Y-96393000D01*
X98679000Y-91440000D02*
X96647000Y-91440000D01*
X107569000Y-69850000D02*
X99949000Y-77470000D01*
X94843600Y-87020400D02*
X94843600Y-72390000D01*
X94843600Y-87020400D02*
X94919800Y-86944200D01*
X167640000Y-61722000D02*
X113284000Y-61722000D01*
X113284000Y-61722000D02*
X97536000Y-77470000D01*
X121173240Y-100076000D02*
X113030000Y-100076000D01*
X113030000Y-100076000D02*
X112776000Y-100330000D01*
X128539240Y-100076000D02*
X128539240Y-99329240D01*
X128539240Y-99329240D02*
X127000000Y-97790000D01*
X127000000Y-97790000D02*
X112776000Y-97790000D01*
X135905240Y-100076000D02*
X135001000Y-100076000D01*
X114808000Y-97282000D02*
X112776000Y-95250000D01*
X132207000Y-97282000D02*
X114808000Y-97282000D01*
X135001000Y-100076000D02*
X132207000Y-97282000D01*
X112776000Y-92710000D02*
X113080800Y-92710000D01*
X113080800Y-92710000D02*
X117144800Y-96774000D01*
X143271240Y-100076000D02*
X143256000Y-100076000D01*
X143256000Y-100076000D02*
X139954000Y-96774000D01*
X139954000Y-96774000D02*
X117170200Y-96774000D01*
X150637240Y-100076000D02*
X150622000Y-100076000D01*
X150622000Y-100076000D02*
X146812000Y-96266000D01*
X146812000Y-96266000D02*
X117475000Y-96266000D01*
X117475000Y-96266000D02*
X114300000Y-93091000D01*
X114300000Y-93091000D02*
X114300000Y-91694000D01*
X114300000Y-91694000D02*
X112776000Y-90170000D01*
X158003240Y-100076000D02*
X158003240Y-99964240D01*
X158003240Y-99964240D02*
X153854998Y-95815998D01*
X153854998Y-95815998D02*
X117661396Y-95815998D01*
X117661396Y-95815998D02*
X114808000Y-92962602D01*
X114808000Y-92962602D02*
X114808000Y-89662000D01*
X114808000Y-89662000D02*
X112776000Y-87630000D01*
X112776000Y-85090000D02*
X115316000Y-87630000D01*
X160659236Y-95365996D02*
X165369240Y-100076000D01*
X117971996Y-95365996D02*
X160659236Y-95365996D01*
X115316000Y-92710000D02*
X117971996Y-95365996D01*
X115316000Y-87630000D02*
X115316000Y-92710000D01*
X121173240Y-90170000D02*
X121158000Y-90170000D01*
X121158000Y-90170000D02*
X113538000Y-82550000D01*
X113538000Y-82550000D02*
X112776000Y-82550000D01*
X128539240Y-90170000D02*
X128539240Y-90058240D01*
X128539240Y-90058240D02*
X118491000Y-80010000D01*
X118491000Y-80010000D02*
X112776000Y-80010000D01*
X135905240Y-90170000D02*
X135890000Y-90170000D01*
X135890000Y-90170000D02*
X123190000Y-77470000D01*
X123190000Y-77470000D02*
X112776000Y-77470000D01*
X171704000Y-86901020D02*
X134424420Y-86901020D01*
X123672600Y-76149200D02*
X106603800Y-76149200D01*
X134424420Y-86901020D02*
X123672600Y-76149200D01*
X171704000Y-73118980D02*
X114079020Y-73118980D01*
X99060000Y-92710000D02*
X97536000Y-92710000D01*
X100457000Y-91313000D02*
X99060000Y-92710000D01*
X100457000Y-78936002D02*
X100457000Y-91313000D01*
X105733002Y-73660000D02*
X100457000Y-78936002D01*
X113538000Y-73660000D02*
X105733002Y-73660000D01*
X114079020Y-73118980D02*
X113538000Y-73660000D01*
X99441000Y-77419200D02*
X99441000Y-76962000D01*
X99441000Y-76962000D02*
X99720400Y-76682600D01*
X99720400Y-76682600D02*
X107772200Y-68630800D01*
X118905020Y-69121020D02*
X114434620Y-69121020D01*
X171704000Y-69121020D02*
X118905020Y-69121020D01*
X114434620Y-69121020D02*
X113944400Y-68630800D01*
X113944400Y-68630800D02*
X107772200Y-68630800D01*
X97536000Y-90170000D02*
X98000398Y-90170000D01*
X98000398Y-90170000D02*
X99441000Y-88729398D01*
X99441000Y-88729398D02*
X99441000Y-77419200D01*
D23*
G36*
X172905057Y-49376796D02*
X172011135Y-50269159D01*
X171526752Y-51435683D01*
X171525650Y-52698776D01*
X172007996Y-53866143D01*
X172900359Y-54760065D01*
X174066883Y-55244448D01*
X175329976Y-55245550D01*
X176497343Y-54763204D01*
X177391265Y-53870841D01*
X177801200Y-52883608D01*
X177801200Y-102032979D01*
X177394404Y-101048457D01*
X176502041Y-100154535D01*
X175335517Y-99670152D01*
X174072424Y-99669050D01*
X172905057Y-100151396D01*
X172011135Y-101043759D01*
X171526752Y-102210283D01*
X171525650Y-103473376D01*
X172007996Y-104640743D01*
X172900359Y-105534665D01*
X173948762Y-105970000D01*
X83133021Y-105970000D01*
X84117543Y-105563204D01*
X85011465Y-104670841D01*
X85495848Y-103504317D01*
X85496950Y-102241224D01*
X85014604Y-101073857D01*
X84122241Y-100179935D01*
X82955717Y-99695552D01*
X81692624Y-99694450D01*
X80525257Y-100176796D01*
X79631335Y-101069159D01*
X79221400Y-102056392D01*
X79221400Y-52881621D01*
X79628196Y-53866143D01*
X80520559Y-54760065D01*
X81687083Y-55244448D01*
X82950176Y-55245550D01*
X84117543Y-54763204D01*
X85011465Y-53870841D01*
X85495848Y-52704317D01*
X85496046Y-52476400D01*
X85788760Y-52476400D01*
X85788760Y-54203600D01*
X85833038Y-54438917D01*
X85972110Y-54655041D01*
X86184310Y-54800031D01*
X86281251Y-54819662D01*
X86092979Y-54991510D01*
X85844832Y-55520973D01*
X85965331Y-55753000D01*
X87172800Y-55753000D01*
X87172800Y-55733000D01*
X87426800Y-55733000D01*
X87426800Y-55753000D01*
X87446800Y-55753000D01*
X87446800Y-56007000D01*
X87426800Y-56007000D01*
X87426800Y-56027000D01*
X87172800Y-56027000D01*
X87172800Y-56007000D01*
X85965331Y-56007000D01*
X85844832Y-56239027D01*
X86092979Y-56768490D01*
X86510961Y-57150008D01*
X86240130Y-57330971D01*
X85915274Y-57817152D01*
X85801200Y-58390641D01*
X85801200Y-58449359D01*
X85915274Y-59022848D01*
X86240130Y-59509029D01*
X86510972Y-59690000D01*
X86240130Y-59870971D01*
X85915274Y-60357152D01*
X85801200Y-60930641D01*
X85801200Y-60989359D01*
X85915274Y-61562848D01*
X86240130Y-62049029D01*
X86510972Y-62230000D01*
X86240130Y-62410971D01*
X85915274Y-62897152D01*
X85801200Y-63470641D01*
X85801200Y-63529359D01*
X85915274Y-64102848D01*
X86240130Y-64589029D01*
X86510972Y-64770000D01*
X86240130Y-64950971D01*
X85915274Y-65437152D01*
X85801200Y-66010641D01*
X85801200Y-66069359D01*
X85915274Y-66642848D01*
X86240130Y-67129029D01*
X86510972Y-67310000D01*
X86240130Y-67490971D01*
X85915274Y-67977152D01*
X85801200Y-68550641D01*
X85801200Y-68609359D01*
X85915274Y-69182848D01*
X86240130Y-69669029D01*
X86510972Y-69850000D01*
X86240130Y-70030971D01*
X85915274Y-70517152D01*
X85801200Y-71090641D01*
X85801200Y-71149359D01*
X85915274Y-71722848D01*
X86240130Y-72209029D01*
X86510972Y-72390000D01*
X86240130Y-72570971D01*
X85915274Y-73057152D01*
X85801200Y-73630641D01*
X85801200Y-73689359D01*
X85915274Y-74262848D01*
X86240130Y-74749029D01*
X86510972Y-74930000D01*
X86240130Y-75110971D01*
X85915274Y-75597152D01*
X85801200Y-76170641D01*
X85801200Y-76229359D01*
X85915274Y-76802848D01*
X86240130Y-77289029D01*
X86510972Y-77470000D01*
X86240130Y-77650971D01*
X85915274Y-78137152D01*
X85801200Y-78710641D01*
X85801200Y-78769359D01*
X85915274Y-79342848D01*
X86240130Y-79829029D01*
X86510972Y-80010000D01*
X86240130Y-80190971D01*
X85915274Y-80677152D01*
X85801200Y-81250641D01*
X85801200Y-81309359D01*
X85915274Y-81882848D01*
X86240130Y-82369029D01*
X86510972Y-82550000D01*
X86240130Y-82730971D01*
X85915274Y-83217152D01*
X85801200Y-83790641D01*
X85801200Y-83849359D01*
X85915274Y-84422848D01*
X86240130Y-84909029D01*
X86510972Y-85090000D01*
X86240130Y-85270971D01*
X85915274Y-85757152D01*
X85801200Y-86330641D01*
X85801200Y-86389359D01*
X85915274Y-86962848D01*
X86240130Y-87449029D01*
X86510972Y-87630000D01*
X86240130Y-87810971D01*
X85915274Y-88297152D01*
X85801200Y-88870641D01*
X85801200Y-88929359D01*
X85915274Y-89502848D01*
X86240130Y-89989029D01*
X86510972Y-90170000D01*
X86240130Y-90350971D01*
X85915274Y-90837152D01*
X85801200Y-91410641D01*
X85801200Y-91469359D01*
X85915274Y-92042848D01*
X86240130Y-92529029D01*
X86510972Y-92710000D01*
X86240130Y-92890971D01*
X85915274Y-93377152D01*
X85801200Y-93950641D01*
X85801200Y-94009359D01*
X85915274Y-94582848D01*
X86240130Y-95069029D01*
X86510972Y-95250000D01*
X86240130Y-95430971D01*
X85915274Y-95917152D01*
X85801200Y-96490641D01*
X85801200Y-96549359D01*
X85915274Y-97122848D01*
X86240130Y-97609029D01*
X86510961Y-97789992D01*
X86092979Y-98171510D01*
X85844832Y-98700973D01*
X85965331Y-98933000D01*
X87172800Y-98933000D01*
X87172800Y-98913000D01*
X87426800Y-98913000D01*
X87426800Y-98933000D01*
X87446800Y-98933000D01*
X87446800Y-99187000D01*
X87426800Y-99187000D01*
X87426800Y-99207000D01*
X87172800Y-99207000D01*
X87172800Y-99187000D01*
X85965331Y-99187000D01*
X85844832Y-99419027D01*
X86092979Y-99948490D01*
X86510961Y-100330008D01*
X86240130Y-100510971D01*
X85915274Y-100997152D01*
X85801200Y-101570641D01*
X85801200Y-101629359D01*
X85915274Y-102202848D01*
X86240130Y-102689029D01*
X86726311Y-103013885D01*
X87299800Y-103127959D01*
X87873289Y-103013885D01*
X88359470Y-102689029D01*
X88569800Y-102374248D01*
X88780130Y-102689029D01*
X89266311Y-103013885D01*
X89839800Y-103127959D01*
X90413289Y-103013885D01*
X90899470Y-102689029D01*
X91224326Y-102202848D01*
X91338400Y-101629359D01*
X91338400Y-101570641D01*
X91224326Y-100997152D01*
X91200834Y-100961993D01*
X91342401Y-100867401D01*
X91879802Y-100330000D01*
X96072887Y-100330000D01*
X96182120Y-100879151D01*
X96493189Y-101344698D01*
X96875275Y-101600000D01*
X96493189Y-101855302D01*
X96182120Y-102320849D01*
X96072887Y-102870000D01*
X96182120Y-103419151D01*
X96493189Y-103884698D01*
X96958736Y-104195767D01*
X97507887Y-104305000D01*
X97564113Y-104305000D01*
X98113264Y-104195767D01*
X98578811Y-103884698D01*
X98889880Y-103419151D01*
X98999113Y-102870000D01*
X98889880Y-102320849D01*
X98578811Y-101855302D01*
X98196725Y-101600000D01*
X98578811Y-101344698D01*
X98889880Y-100879151D01*
X98999113Y-100330000D01*
X98889880Y-99780849D01*
X98578811Y-99315302D01*
X98174297Y-99045014D01*
X98391134Y-98942389D01*
X98767041Y-98527423D01*
X98927904Y-98139039D01*
X98805915Y-97917000D01*
X97663000Y-97917000D01*
X97663000Y-97937000D01*
X97409000Y-97937000D01*
X97409000Y-97917000D01*
X96266085Y-97917000D01*
X96144096Y-98139039D01*
X96304959Y-98527423D01*
X96680866Y-98942389D01*
X96897703Y-99045014D01*
X96493189Y-99315302D01*
X96182120Y-99780849D01*
X96072887Y-100330000D01*
X91879802Y-100330000D01*
X92231401Y-99978401D01*
X92396148Y-99731839D01*
X92454000Y-99441000D01*
X92454000Y-96707802D01*
X96135753Y-93026049D01*
X96182120Y-93259151D01*
X96493189Y-93724698D01*
X96875275Y-93980000D01*
X96493189Y-94235302D01*
X96182120Y-94700849D01*
X96072887Y-95250000D01*
X96182120Y-95799151D01*
X96493189Y-96264698D01*
X96897703Y-96534986D01*
X96680866Y-96637611D01*
X96304959Y-97052577D01*
X96144096Y-97440961D01*
X96266085Y-97663000D01*
X97409000Y-97663000D01*
X97409000Y-97643000D01*
X97663000Y-97643000D01*
X97663000Y-97663000D01*
X98805915Y-97663000D01*
X98927904Y-97440961D01*
X98767041Y-97052577D01*
X98391134Y-96637611D01*
X98174297Y-96534986D01*
X98578811Y-96264698D01*
X98889880Y-95799151D01*
X98999113Y-95250000D01*
X98889880Y-94700849D01*
X98578811Y-94235302D01*
X98196725Y-93980000D01*
X98578811Y-93724698D01*
X98748995Y-93470000D01*
X99060000Y-93470000D01*
X99350839Y-93412148D01*
X99597401Y-93247401D01*
X100994401Y-91850401D01*
X101159148Y-91603840D01*
X101217000Y-91313000D01*
X101217000Y-79250804D01*
X106047804Y-74420000D01*
X111414332Y-74420000D01*
X111312887Y-74930000D01*
X111404228Y-75389200D01*
X107307561Y-75389200D01*
X107190846Y-75272281D01*
X106810577Y-75114380D01*
X106398829Y-75114021D01*
X106018285Y-75271258D01*
X105726881Y-75562154D01*
X105568980Y-75942423D01*
X105568621Y-76354171D01*
X105725858Y-76734715D01*
X106016754Y-77026119D01*
X106397023Y-77184020D01*
X106808771Y-77184379D01*
X107189315Y-77027142D01*
X107307463Y-76909200D01*
X111429904Y-76909200D01*
X111422120Y-76920849D01*
X111312887Y-77470000D01*
X111422120Y-78019151D01*
X111733189Y-78484698D01*
X112115275Y-78740000D01*
X111733189Y-78995302D01*
X111422120Y-79460849D01*
X111312887Y-80010000D01*
X111422120Y-80559151D01*
X111733189Y-81024698D01*
X112115275Y-81280000D01*
X111733189Y-81535302D01*
X111422120Y-82000849D01*
X111312887Y-82550000D01*
X111422120Y-83099151D01*
X111733189Y-83564698D01*
X112115275Y-83820000D01*
X111733189Y-84075302D01*
X111422120Y-84540849D01*
X111312887Y-85090000D01*
X111422120Y-85639151D01*
X111733189Y-86104698D01*
X112115275Y-86360000D01*
X111733189Y-86615302D01*
X111422120Y-87080849D01*
X111312887Y-87630000D01*
X111422120Y-88179151D01*
X111733189Y-88644698D01*
X112115275Y-88900000D01*
X111733189Y-89155302D01*
X111422120Y-89620849D01*
X111312887Y-90170000D01*
X111422120Y-90719151D01*
X111733189Y-91184698D01*
X112115275Y-91440000D01*
X111733189Y-91695302D01*
X111422120Y-92160849D01*
X111312887Y-92710000D01*
X111422120Y-93259151D01*
X111733189Y-93724698D01*
X112115275Y-93980000D01*
X111733189Y-94235302D01*
X111422120Y-94700849D01*
X111312887Y-95250000D01*
X111422120Y-95799151D01*
X111733189Y-96264698D01*
X112115275Y-96520000D01*
X111733189Y-96775302D01*
X111422120Y-97240849D01*
X111312887Y-97790000D01*
X111422120Y-98339151D01*
X111733189Y-98804698D01*
X112115275Y-99060000D01*
X111733189Y-99315302D01*
X111422120Y-99780849D01*
X111312887Y-100330000D01*
X111422120Y-100879151D01*
X111733189Y-101344698D01*
X112115275Y-101600000D01*
X111733189Y-101855302D01*
X111422120Y-102320849D01*
X111312887Y-102870000D01*
X111422120Y-103419151D01*
X111733189Y-103884698D01*
X112198736Y-104195767D01*
X112747887Y-104305000D01*
X112804113Y-104305000D01*
X113353264Y-104195767D01*
X113818811Y-103884698D01*
X114129880Y-103419151D01*
X114239113Y-102870000D01*
X114129880Y-102320849D01*
X113818811Y-101855302D01*
X113436725Y-101600000D01*
X113818811Y-101344698D01*
X114129880Y-100879151D01*
X114138463Y-100836000D01*
X119926360Y-100836000D01*
X119926360Y-100925630D01*
X119970638Y-101160947D01*
X120109710Y-101377071D01*
X120321910Y-101522061D01*
X120573800Y-101573070D01*
X121772680Y-101573070D01*
X122007997Y-101528792D01*
X122224121Y-101389720D01*
X122324284Y-101243127D01*
X122702360Y-101495750D01*
X123174760Y-101589716D01*
X123647160Y-101495750D01*
X124047641Y-101228157D01*
X124315234Y-100827676D01*
X124409200Y-100355276D01*
X124409200Y-99796724D01*
X124315234Y-99324324D01*
X124047641Y-98923843D01*
X123647160Y-98656250D01*
X123174760Y-98562284D01*
X122702360Y-98656250D01*
X122323358Y-98909491D01*
X122236770Y-98774929D01*
X122024570Y-98629939D01*
X121772680Y-98578930D01*
X120573800Y-98578930D01*
X120338483Y-98623208D01*
X120122359Y-98762280D01*
X119977369Y-98974480D01*
X119926360Y-99226370D01*
X119926360Y-99316000D01*
X113819277Y-99316000D01*
X113818811Y-99315302D01*
X113436725Y-99060000D01*
X113818811Y-98804698D01*
X113988995Y-98550000D01*
X126685198Y-98550000D01*
X127304015Y-99168817D01*
X127292360Y-99226370D01*
X127292360Y-100925630D01*
X127336638Y-101160947D01*
X127475710Y-101377071D01*
X127687910Y-101522061D01*
X127939800Y-101573070D01*
X129138680Y-101573070D01*
X129373997Y-101528792D01*
X129590121Y-101389720D01*
X129690284Y-101243127D01*
X130068360Y-101495750D01*
X130540760Y-101589716D01*
X131013160Y-101495750D01*
X131413641Y-101228157D01*
X131681234Y-100827676D01*
X131775200Y-100355276D01*
X131775200Y-99796724D01*
X131681234Y-99324324D01*
X131413641Y-98923843D01*
X131013160Y-98656250D01*
X130540760Y-98562284D01*
X130068360Y-98656250D01*
X129689358Y-98909491D01*
X129602770Y-98774929D01*
X129390570Y-98629939D01*
X129138680Y-98578930D01*
X128863732Y-98578930D01*
X128326802Y-98042000D01*
X131892198Y-98042000D01*
X134463599Y-100613401D01*
X134658360Y-100743536D01*
X134658360Y-100925630D01*
X134702638Y-101160947D01*
X134841710Y-101377071D01*
X135053910Y-101522061D01*
X135305800Y-101573070D01*
X136504680Y-101573070D01*
X136739997Y-101528792D01*
X136956121Y-101389720D01*
X137056284Y-101243127D01*
X137434360Y-101495750D01*
X137906760Y-101589716D01*
X138379160Y-101495750D01*
X138779641Y-101228157D01*
X139047234Y-100827676D01*
X139141200Y-100355276D01*
X139141200Y-99796724D01*
X139047234Y-99324324D01*
X138779641Y-98923843D01*
X138379160Y-98656250D01*
X137906760Y-98562284D01*
X137434360Y-98656250D01*
X137055358Y-98909491D01*
X136968770Y-98774929D01*
X136756570Y-98629939D01*
X136504680Y-98578930D01*
X135305800Y-98578930D01*
X135070483Y-98623208D01*
X134854359Y-98762280D01*
X134816902Y-98817100D01*
X133533802Y-97534000D01*
X139639198Y-97534000D01*
X142024360Y-99919162D01*
X142024360Y-100925630D01*
X142068638Y-101160947D01*
X142207710Y-101377071D01*
X142419910Y-101522061D01*
X142671800Y-101573070D01*
X143870680Y-101573070D01*
X144105997Y-101528792D01*
X144322121Y-101389720D01*
X144422284Y-101243127D01*
X144800360Y-101495750D01*
X145272760Y-101589716D01*
X145745160Y-101495750D01*
X146145641Y-101228157D01*
X146413234Y-100827676D01*
X146507200Y-100355276D01*
X146507200Y-99796724D01*
X146413234Y-99324324D01*
X146145641Y-98923843D01*
X145745160Y-98656250D01*
X145272760Y-98562284D01*
X144800360Y-98656250D01*
X144421358Y-98909491D01*
X144334770Y-98774929D01*
X144122570Y-98629939D01*
X143870680Y-98578930D01*
X142833732Y-98578930D01*
X141280802Y-97026000D01*
X146497198Y-97026000D01*
X149390360Y-99919162D01*
X149390360Y-100925630D01*
X149434638Y-101160947D01*
X149573710Y-101377071D01*
X149785910Y-101522061D01*
X150037800Y-101573070D01*
X151236680Y-101573070D01*
X151471997Y-101528792D01*
X151688121Y-101389720D01*
X151788284Y-101243127D01*
X152166360Y-101495750D01*
X152638760Y-101589716D01*
X153111160Y-101495750D01*
X153511641Y-101228157D01*
X153779234Y-100827676D01*
X153873200Y-100355276D01*
X153873200Y-99796724D01*
X153779234Y-99324324D01*
X153511641Y-98923843D01*
X153111160Y-98656250D01*
X152638760Y-98562284D01*
X152166360Y-98656250D01*
X151787358Y-98909491D01*
X151700770Y-98774929D01*
X151488570Y-98629939D01*
X151236680Y-98578930D01*
X150199732Y-98578930D01*
X148196800Y-96575998D01*
X153540196Y-96575998D01*
X156756360Y-99792162D01*
X156756360Y-100925630D01*
X156800638Y-101160947D01*
X156939710Y-101377071D01*
X157151910Y-101522061D01*
X157403800Y-101573070D01*
X158602680Y-101573070D01*
X158837997Y-101528792D01*
X159054121Y-101389720D01*
X159154284Y-101243127D01*
X159532360Y-101495750D01*
X160004760Y-101589716D01*
X160477160Y-101495750D01*
X160877641Y-101228157D01*
X161145234Y-100827676D01*
X161239200Y-100355276D01*
X161239200Y-99796724D01*
X161145234Y-99324324D01*
X160877641Y-98923843D01*
X160477160Y-98656250D01*
X160004760Y-98562284D01*
X159532360Y-98656250D01*
X159153358Y-98909491D01*
X159066770Y-98774929D01*
X158854570Y-98629939D01*
X158602680Y-98578930D01*
X157692732Y-98578930D01*
X155239798Y-96125996D01*
X160344434Y-96125996D01*
X164122360Y-99903922D01*
X164122360Y-100925630D01*
X164166638Y-101160947D01*
X164305710Y-101377071D01*
X164517910Y-101522061D01*
X164769800Y-101573070D01*
X165968680Y-101573070D01*
X166203997Y-101528792D01*
X166420121Y-101389720D01*
X166520284Y-101243127D01*
X166898360Y-101495750D01*
X167370760Y-101589716D01*
X167843160Y-101495750D01*
X168243641Y-101228157D01*
X168511234Y-100827676D01*
X168605200Y-100355276D01*
X168605200Y-99796724D01*
X168511234Y-99324324D01*
X168243641Y-98923843D01*
X167843160Y-98656250D01*
X167370760Y-98562284D01*
X166898360Y-98656250D01*
X166519358Y-98909491D01*
X166432770Y-98774929D01*
X166220570Y-98629939D01*
X165968680Y-98578930D01*
X164946972Y-98578930D01*
X161196637Y-94828595D01*
X160950075Y-94663848D01*
X160659236Y-94605996D01*
X118286798Y-94605996D01*
X116076000Y-92395198D01*
X116076000Y-87630000D01*
X116018148Y-87339161D01*
X116018148Y-87339160D01*
X115853401Y-87092599D01*
X114174688Y-85413886D01*
X114239113Y-85090000D01*
X114129880Y-84540849D01*
X113818811Y-84075302D01*
X113436725Y-83820000D01*
X113614448Y-83701250D01*
X119926360Y-90013162D01*
X119926360Y-91019630D01*
X119970638Y-91254947D01*
X120109710Y-91471071D01*
X120321910Y-91616061D01*
X120573800Y-91667070D01*
X121772680Y-91667070D01*
X122007997Y-91622792D01*
X122224121Y-91483720D01*
X122324284Y-91337127D01*
X122702360Y-91589750D01*
X123174760Y-91683716D01*
X123647160Y-91589750D01*
X124047641Y-91322157D01*
X124315234Y-90921676D01*
X124409200Y-90449276D01*
X124409200Y-89890724D01*
X124315234Y-89418324D01*
X124047641Y-89017843D01*
X123647160Y-88750250D01*
X123174760Y-88656284D01*
X122702360Y-88750250D01*
X122323358Y-89003491D01*
X122236770Y-88868929D01*
X122024570Y-88723939D01*
X121772680Y-88672930D01*
X120735732Y-88672930D01*
X114146325Y-82083523D01*
X114129880Y-82000849D01*
X113818811Y-81535302D01*
X113436725Y-81280000D01*
X113818811Y-81024698D01*
X113988995Y-80770000D01*
X118176198Y-80770000D01*
X127292360Y-89886162D01*
X127292360Y-91019630D01*
X127336638Y-91254947D01*
X127475710Y-91471071D01*
X127687910Y-91616061D01*
X127939800Y-91667070D01*
X129138680Y-91667070D01*
X129373997Y-91622792D01*
X129590121Y-91483720D01*
X129690284Y-91337127D01*
X130068360Y-91589750D01*
X130540760Y-91683716D01*
X131013160Y-91589750D01*
X131413641Y-91322157D01*
X131681234Y-90921676D01*
X131775200Y-90449276D01*
X131775200Y-89890724D01*
X131681234Y-89418324D01*
X131413641Y-89017843D01*
X131013160Y-88750250D01*
X130540760Y-88656284D01*
X130068360Y-88750250D01*
X129689358Y-89003491D01*
X129602770Y-88868929D01*
X129390570Y-88723939D01*
X129138680Y-88672930D01*
X128228732Y-88672930D01*
X119028401Y-79472599D01*
X118781839Y-79307852D01*
X118491000Y-79250000D01*
X113988995Y-79250000D01*
X113818811Y-78995302D01*
X113436725Y-78740000D01*
X113818811Y-78484698D01*
X113988995Y-78230000D01*
X122875198Y-78230000D01*
X134658360Y-90013162D01*
X134658360Y-91019630D01*
X134702638Y-91254947D01*
X134841710Y-91471071D01*
X135053910Y-91616061D01*
X135305800Y-91667070D01*
X136504680Y-91667070D01*
X136739997Y-91622792D01*
X136956121Y-91483720D01*
X137056284Y-91337127D01*
X137434360Y-91589750D01*
X137906760Y-91683716D01*
X138379160Y-91589750D01*
X138779641Y-91322157D01*
X139047234Y-90921676D01*
X139141200Y-90449276D01*
X139141200Y-89890724D01*
X139047234Y-89418324D01*
X138981784Y-89320370D01*
X142024360Y-89320370D01*
X142024360Y-91019630D01*
X142068638Y-91254947D01*
X142207710Y-91471071D01*
X142419910Y-91616061D01*
X142671800Y-91667070D01*
X143870680Y-91667070D01*
X144105997Y-91622792D01*
X144322121Y-91483720D01*
X144422284Y-91337127D01*
X144800360Y-91589750D01*
X145272760Y-91683716D01*
X145745160Y-91589750D01*
X146145641Y-91322157D01*
X146413234Y-90921676D01*
X146507200Y-90449276D01*
X146507200Y-89890724D01*
X146413234Y-89418324D01*
X146145641Y-89017843D01*
X145745160Y-88750250D01*
X145272760Y-88656284D01*
X144800360Y-88750250D01*
X144421358Y-89003491D01*
X144334770Y-88868929D01*
X144122570Y-88723939D01*
X143870680Y-88672930D01*
X142671800Y-88672930D01*
X142436483Y-88717208D01*
X142220359Y-88856280D01*
X142075369Y-89068480D01*
X142024360Y-89320370D01*
X138981784Y-89320370D01*
X138779641Y-89017843D01*
X138379160Y-88750250D01*
X137906760Y-88656284D01*
X137434360Y-88750250D01*
X137055358Y-89003491D01*
X136968770Y-88868929D01*
X136756570Y-88723939D01*
X136504680Y-88672930D01*
X135467732Y-88672930D01*
X134455822Y-87661020D01*
X170476418Y-87661020D01*
X170551843Y-87773901D01*
X170741327Y-87900510D01*
X170551843Y-88027119D01*
X170284250Y-88427600D01*
X170190284Y-88900000D01*
X170284250Y-89372400D01*
X170536304Y-89749625D01*
X170402929Y-89835450D01*
X170257939Y-90047650D01*
X170206930Y-90299540D01*
X170206930Y-91498420D01*
X170251208Y-91733737D01*
X170390280Y-91949861D01*
X170602480Y-92094851D01*
X170854370Y-92145860D01*
X172553630Y-92145860D01*
X172788947Y-92101582D01*
X173005071Y-91962510D01*
X173150061Y-91750310D01*
X173201070Y-91498420D01*
X173201070Y-90299540D01*
X173156792Y-90064223D01*
X173017720Y-89848099D01*
X172872292Y-89748733D01*
X173123750Y-89372400D01*
X173217716Y-88900000D01*
X173123750Y-88427600D01*
X172856157Y-88027119D01*
X172666673Y-87900510D01*
X172856157Y-87773901D01*
X173123750Y-87373420D01*
X173217716Y-86901020D01*
X173123750Y-86428620D01*
X172856157Y-86028139D01*
X172455676Y-85760546D01*
X171983276Y-85666580D01*
X171424724Y-85666580D01*
X170952324Y-85760546D01*
X170551843Y-86028139D01*
X170476418Y-86141020D01*
X134739222Y-86141020D01*
X126609222Y-78011020D01*
X170190284Y-78011020D01*
X170284250Y-78483420D01*
X170551843Y-78883901D01*
X170741327Y-79010510D01*
X170551843Y-79137119D01*
X170284250Y-79537600D01*
X170190284Y-80010000D01*
X170284250Y-80482400D01*
X170536304Y-80859625D01*
X170402929Y-80945450D01*
X170257939Y-81157650D01*
X170206930Y-81409540D01*
X170206930Y-82608420D01*
X170251208Y-82843737D01*
X170390280Y-83059861D01*
X170602480Y-83204851D01*
X170854370Y-83255860D01*
X172553630Y-83255860D01*
X172788947Y-83211582D01*
X173005071Y-83072510D01*
X173150061Y-82860310D01*
X173201070Y-82608420D01*
X173201070Y-81409540D01*
X173156792Y-81174223D01*
X173017720Y-80958099D01*
X172872292Y-80858733D01*
X173123750Y-80482400D01*
X173217716Y-80010000D01*
X173123750Y-79537600D01*
X172856157Y-79137119D01*
X172666673Y-79010510D01*
X172856157Y-78883901D01*
X173123750Y-78483420D01*
X173217716Y-78011020D01*
X173123750Y-77538620D01*
X172856157Y-77138139D01*
X172455676Y-76870546D01*
X171983276Y-76776580D01*
X171424724Y-76776580D01*
X170952324Y-76870546D01*
X170551843Y-77138139D01*
X170284250Y-77538620D01*
X170190284Y-78011020D01*
X126609222Y-78011020D01*
X124210001Y-75611799D01*
X123963439Y-75447052D01*
X123672600Y-75389200D01*
X114147772Y-75389200D01*
X114239113Y-74930000D01*
X114129880Y-74380849D01*
X114028323Y-74228858D01*
X114075401Y-74197401D01*
X114393822Y-73878980D01*
X170237141Y-73878980D01*
X170251208Y-73953737D01*
X170390280Y-74169861D01*
X170602480Y-74314851D01*
X170854370Y-74365860D01*
X172553630Y-74365860D01*
X172788947Y-74321582D01*
X173005071Y-74182510D01*
X173150061Y-73970310D01*
X173201070Y-73718420D01*
X173201070Y-72519540D01*
X173156792Y-72284223D01*
X173017720Y-72068099D01*
X172872292Y-71968733D01*
X173123750Y-71592400D01*
X173217716Y-71120000D01*
X173123750Y-70647600D01*
X172856157Y-70247119D01*
X172666673Y-70120510D01*
X172856157Y-69993901D01*
X173123750Y-69593420D01*
X173217716Y-69121020D01*
X173123750Y-68648620D01*
X172856157Y-68248139D01*
X172455676Y-67980546D01*
X171983276Y-67886580D01*
X171424724Y-67886580D01*
X170952324Y-67980546D01*
X170551843Y-68248139D01*
X170476418Y-68361020D01*
X114749422Y-68361020D01*
X114481801Y-68093399D01*
X114235239Y-67928652D01*
X113944400Y-67870800D01*
X108210002Y-67870800D01*
X113598802Y-62482000D01*
X166195352Y-62482000D01*
X166395585Y-62781670D01*
X166710366Y-62992000D01*
X166395585Y-63202330D01*
X166070729Y-63688511D01*
X165956655Y-64262000D01*
X166070729Y-64835489D01*
X166395585Y-65321670D01*
X166881766Y-65646526D01*
X167455255Y-65760600D01*
X167824745Y-65760600D01*
X168398234Y-65646526D01*
X168884415Y-65321670D01*
X169209271Y-64835489D01*
X169323345Y-64262000D01*
X169209271Y-63688511D01*
X168884415Y-63202330D01*
X168569634Y-62992000D01*
X168884415Y-62781670D01*
X169209271Y-62295489D01*
X169323345Y-61722000D01*
X169209271Y-61148511D01*
X168884415Y-60662330D01*
X168870087Y-60652757D01*
X168891317Y-60648762D01*
X169107441Y-60509690D01*
X169252431Y-60297490D01*
X169303440Y-60045600D01*
X169303440Y-58318400D01*
X169259162Y-58083083D01*
X169120090Y-57866959D01*
X168907890Y-57721969D01*
X168656000Y-57670960D01*
X166624000Y-57670960D01*
X166388683Y-57715238D01*
X166172559Y-57854310D01*
X166027569Y-58066510D01*
X165976560Y-58318400D01*
X165976560Y-60045600D01*
X166020838Y-60280917D01*
X166159910Y-60497041D01*
X166372110Y-60642031D01*
X166413439Y-60650400D01*
X166395585Y-60662330D01*
X166195352Y-60962000D01*
X113284000Y-60962000D01*
X112993160Y-61019852D01*
X112746599Y-61184599D01*
X98998595Y-74932603D01*
X98999113Y-74930000D01*
X98997900Y-74923902D01*
X99470401Y-74451401D01*
X99635148Y-74204839D01*
X99693000Y-73914000D01*
X99693000Y-71501000D01*
X99635148Y-71210161D01*
X99635148Y-71210160D01*
X99470401Y-70963599D01*
X99089401Y-70582599D01*
X98866722Y-70433810D01*
X98889880Y-70399151D01*
X98999113Y-69850000D01*
X98889880Y-69300849D01*
X98578811Y-68835302D01*
X98282083Y-68637034D01*
X98238148Y-68416161D01*
X98238148Y-68416160D01*
X98073401Y-68169599D01*
X91596401Y-61692599D01*
X91349839Y-61527852D01*
X91235799Y-61505168D01*
X91338400Y-60989359D01*
X91338400Y-60930641D01*
X91224326Y-60357152D01*
X90899470Y-59870971D01*
X90628628Y-59690000D01*
X90899470Y-59509029D01*
X91224326Y-59022848D01*
X91338400Y-58449359D01*
X91338400Y-58390641D01*
X91224326Y-57817152D01*
X90899470Y-57330971D01*
X90628628Y-57150000D01*
X90899470Y-56969029D01*
X91224326Y-56482848D01*
X91338400Y-55909359D01*
X91338400Y-55850641D01*
X91224326Y-55277152D01*
X90899470Y-54790971D01*
X90628628Y-54610000D01*
X90899470Y-54429029D01*
X91224326Y-53942848D01*
X91338400Y-53369359D01*
X91338400Y-53310641D01*
X91224326Y-52737152D01*
X90899470Y-52250971D01*
X90413289Y-51926115D01*
X89839800Y-51812041D01*
X89266311Y-51926115D01*
X88780130Y-52250971D01*
X88770995Y-52264642D01*
X88766562Y-52241083D01*
X88627490Y-52024959D01*
X88415290Y-51879969D01*
X88163400Y-51828960D01*
X86436200Y-51828960D01*
X86200883Y-51873238D01*
X85984759Y-52012310D01*
X85839769Y-52224510D01*
X85788760Y-52476400D01*
X85496046Y-52476400D01*
X85496950Y-51441224D01*
X85014604Y-50273857D01*
X84122241Y-49379935D01*
X83135008Y-48970000D01*
X173889579Y-48970000D01*
X172905057Y-49376796D01*
X172905057Y-49376796D01*
G37*
X172905057Y-49376796D02*
X172011135Y-50269159D01*
X171526752Y-51435683D01*
X171525650Y-52698776D01*
X172007996Y-53866143D01*
X172900359Y-54760065D01*
X174066883Y-55244448D01*
X175329976Y-55245550D01*
X176497343Y-54763204D01*
X177391265Y-53870841D01*
X177801200Y-52883608D01*
X177801200Y-102032979D01*
X177394404Y-101048457D01*
X176502041Y-100154535D01*
X175335517Y-99670152D01*
X174072424Y-99669050D01*
X172905057Y-100151396D01*
X172011135Y-101043759D01*
X171526752Y-102210283D01*
X171525650Y-103473376D01*
X172007996Y-104640743D01*
X172900359Y-105534665D01*
X173948762Y-105970000D01*
X83133021Y-105970000D01*
X84117543Y-105563204D01*
X85011465Y-104670841D01*
X85495848Y-103504317D01*
X85496950Y-102241224D01*
X85014604Y-101073857D01*
X84122241Y-100179935D01*
X82955717Y-99695552D01*
X81692624Y-99694450D01*
X80525257Y-100176796D01*
X79631335Y-101069159D01*
X79221400Y-102056392D01*
X79221400Y-52881621D01*
X79628196Y-53866143D01*
X80520559Y-54760065D01*
X81687083Y-55244448D01*
X82950176Y-55245550D01*
X84117543Y-54763204D01*
X85011465Y-53870841D01*
X85495848Y-52704317D01*
X85496046Y-52476400D01*
X85788760Y-52476400D01*
X85788760Y-54203600D01*
X85833038Y-54438917D01*
X85972110Y-54655041D01*
X86184310Y-54800031D01*
X86281251Y-54819662D01*
X86092979Y-54991510D01*
X85844832Y-55520973D01*
X85965331Y-55753000D01*
X87172800Y-55753000D01*
X87172800Y-55733000D01*
X87426800Y-55733000D01*
X87426800Y-55753000D01*
X87446800Y-55753000D01*
X87446800Y-56007000D01*
X87426800Y-56007000D01*
X87426800Y-56027000D01*
X87172800Y-56027000D01*
X87172800Y-56007000D01*
X85965331Y-56007000D01*
X85844832Y-56239027D01*
X86092979Y-56768490D01*
X86510961Y-57150008D01*
X86240130Y-57330971D01*
X85915274Y-57817152D01*
X85801200Y-58390641D01*
X85801200Y-58449359D01*
X85915274Y-59022848D01*
X86240130Y-59509029D01*
X86510972Y-59690000D01*
X86240130Y-59870971D01*
X85915274Y-60357152D01*
X85801200Y-60930641D01*
X85801200Y-60989359D01*
X85915274Y-61562848D01*
X86240130Y-62049029D01*
X86510972Y-62230000D01*
X86240130Y-62410971D01*
X85915274Y-62897152D01*
X85801200Y-63470641D01*
X85801200Y-63529359D01*
X85915274Y-64102848D01*
X86240130Y-64589029D01*
X86510972Y-64770000D01*
X86240130Y-64950971D01*
X85915274Y-65437152D01*
X85801200Y-66010641D01*
X85801200Y-66069359D01*
X85915274Y-66642848D01*
X86240130Y-67129029D01*
X86510972Y-67310000D01*
X86240130Y-67490971D01*
X85915274Y-67977152D01*
X85801200Y-68550641D01*
X85801200Y-68609359D01*
X85915274Y-69182848D01*
X86240130Y-69669029D01*
X86510972Y-69850000D01*
X86240130Y-70030971D01*
X85915274Y-70517152D01*
X85801200Y-71090641D01*
X85801200Y-71149359D01*
X85915274Y-71722848D01*
X86240130Y-72209029D01*
X86510972Y-72390000D01*
X86240130Y-72570971D01*
X85915274Y-73057152D01*
X85801200Y-73630641D01*
X85801200Y-73689359D01*
X85915274Y-74262848D01*
X86240130Y-74749029D01*
X86510972Y-74930000D01*
X86240130Y-75110971D01*
X85915274Y-75597152D01*
X85801200Y-76170641D01*
X85801200Y-76229359D01*
X85915274Y-76802848D01*
X86240130Y-77289029D01*
X86510972Y-77470000D01*
X86240130Y-77650971D01*
X85915274Y-78137152D01*
X85801200Y-78710641D01*
X85801200Y-78769359D01*
X85915274Y-79342848D01*
X86240130Y-79829029D01*
X86510972Y-80010000D01*
X86240130Y-80190971D01*
X85915274Y-80677152D01*
X85801200Y-81250641D01*
X85801200Y-81309359D01*
X85915274Y-81882848D01*
X86240130Y-82369029D01*
X86510972Y-82550000D01*
X86240130Y-82730971D01*
X85915274Y-83217152D01*
X85801200Y-83790641D01*
X85801200Y-83849359D01*
X85915274Y-84422848D01*
X86240130Y-84909029D01*
X86510972Y-85090000D01*
X86240130Y-85270971D01*
X85915274Y-85757152D01*
X85801200Y-86330641D01*
X85801200Y-86389359D01*
X85915274Y-86962848D01*
X86240130Y-87449029D01*
X86510972Y-87630000D01*
X86240130Y-87810971D01*
X85915274Y-88297152D01*
X85801200Y-88870641D01*
X85801200Y-88929359D01*
X85915274Y-89502848D01*
X86240130Y-89989029D01*
X86510972Y-90170000D01*
X86240130Y-90350971D01*
X85915274Y-90837152D01*
X85801200Y-91410641D01*
X85801200Y-91469359D01*
X85915274Y-92042848D01*
X86240130Y-92529029D01*
X86510972Y-92710000D01*
X86240130Y-92890971D01*
X85915274Y-93377152D01*
X85801200Y-93950641D01*
X85801200Y-94009359D01*
X85915274Y-94582848D01*
X86240130Y-95069029D01*
X86510972Y-95250000D01*
X86240130Y-95430971D01*
X85915274Y-95917152D01*
X85801200Y-96490641D01*
X85801200Y-96549359D01*
X85915274Y-97122848D01*
X86240130Y-97609029D01*
X86510961Y-97789992D01*
X86092979Y-98171510D01*
X85844832Y-98700973D01*
X85965331Y-98933000D01*
X87172800Y-98933000D01*
X87172800Y-98913000D01*
X87426800Y-98913000D01*
X87426800Y-98933000D01*
X87446800Y-98933000D01*
X87446800Y-99187000D01*
X87426800Y-99187000D01*
X87426800Y-99207000D01*
X87172800Y-99207000D01*
X87172800Y-99187000D01*
X85965331Y-99187000D01*
X85844832Y-99419027D01*
X86092979Y-99948490D01*
X86510961Y-100330008D01*
X86240130Y-100510971D01*
X85915274Y-100997152D01*
X85801200Y-101570641D01*
X85801200Y-101629359D01*
X85915274Y-102202848D01*
X86240130Y-102689029D01*
X86726311Y-103013885D01*
X87299800Y-103127959D01*
X87873289Y-103013885D01*
X88359470Y-102689029D01*
X88569800Y-102374248D01*
X88780130Y-102689029D01*
X89266311Y-103013885D01*
X89839800Y-103127959D01*
X90413289Y-103013885D01*
X90899470Y-102689029D01*
X91224326Y-102202848D01*
X91338400Y-101629359D01*
X91338400Y-101570641D01*
X91224326Y-100997152D01*
X91200834Y-100961993D01*
X91342401Y-100867401D01*
X91879802Y-100330000D01*
X96072887Y-100330000D01*
X96182120Y-100879151D01*
X96493189Y-101344698D01*
X96875275Y-101600000D01*
X96493189Y-101855302D01*
X96182120Y-102320849D01*
X96072887Y-102870000D01*
X96182120Y-103419151D01*
X96493189Y-103884698D01*
X96958736Y-104195767D01*
X97507887Y-104305000D01*
X97564113Y-104305000D01*
X98113264Y-104195767D01*
X98578811Y-103884698D01*
X98889880Y-103419151D01*
X98999113Y-102870000D01*
X98889880Y-102320849D01*
X98578811Y-101855302D01*
X98196725Y-101600000D01*
X98578811Y-101344698D01*
X98889880Y-100879151D01*
X98999113Y-100330000D01*
X98889880Y-99780849D01*
X98578811Y-99315302D01*
X98174297Y-99045014D01*
X98391134Y-98942389D01*
X98767041Y-98527423D01*
X98927904Y-98139039D01*
X98805915Y-97917000D01*
X97663000Y-97917000D01*
X97663000Y-97937000D01*
X97409000Y-97937000D01*
X97409000Y-97917000D01*
X96266085Y-97917000D01*
X96144096Y-98139039D01*
X96304959Y-98527423D01*
X96680866Y-98942389D01*
X96897703Y-99045014D01*
X96493189Y-99315302D01*
X96182120Y-99780849D01*
X96072887Y-100330000D01*
X91879802Y-100330000D01*
X92231401Y-99978401D01*
X92396148Y-99731839D01*
X92454000Y-99441000D01*
X92454000Y-96707802D01*
X96135753Y-93026049D01*
X96182120Y-93259151D01*
X96493189Y-93724698D01*
X96875275Y-93980000D01*
X96493189Y-94235302D01*
X96182120Y-94700849D01*
X96072887Y-95250000D01*
X96182120Y-95799151D01*
X96493189Y-96264698D01*
X96897703Y-96534986D01*
X96680866Y-96637611D01*
X96304959Y-97052577D01*
X96144096Y-97440961D01*
X96266085Y-97663000D01*
X97409000Y-97663000D01*
X97409000Y-97643000D01*
X97663000Y-97643000D01*
X97663000Y-97663000D01*
X98805915Y-97663000D01*
X98927904Y-97440961D01*
X98767041Y-97052577D01*
X98391134Y-96637611D01*
X98174297Y-96534986D01*
X98578811Y-96264698D01*
X98889880Y-95799151D01*
X98999113Y-95250000D01*
X98889880Y-94700849D01*
X98578811Y-94235302D01*
X98196725Y-93980000D01*
X98578811Y-93724698D01*
X98748995Y-93470000D01*
X99060000Y-93470000D01*
X99350839Y-93412148D01*
X99597401Y-93247401D01*
X100994401Y-91850401D01*
X101159148Y-91603840D01*
X101217000Y-91313000D01*
X101217000Y-79250804D01*
X106047804Y-74420000D01*
X111414332Y-74420000D01*
X111312887Y-74930000D01*
X111404228Y-75389200D01*
X107307561Y-75389200D01*
X107190846Y-75272281D01*
X106810577Y-75114380D01*
X106398829Y-75114021D01*
X106018285Y-75271258D01*
X105726881Y-75562154D01*
X105568980Y-75942423D01*
X105568621Y-76354171D01*
X105725858Y-76734715D01*
X106016754Y-77026119D01*
X106397023Y-77184020D01*
X106808771Y-77184379D01*
X107189315Y-77027142D01*
X107307463Y-76909200D01*
X111429904Y-76909200D01*
X111422120Y-76920849D01*
X111312887Y-77470000D01*
X111422120Y-78019151D01*
X111733189Y-78484698D01*
X112115275Y-78740000D01*
X111733189Y-78995302D01*
X111422120Y-79460849D01*
X111312887Y-80010000D01*
X111422120Y-80559151D01*
X111733189Y-81024698D01*
X112115275Y-81280000D01*
X111733189Y-81535302D01*
X111422120Y-82000849D01*
X111312887Y-82550000D01*
X111422120Y-83099151D01*
X111733189Y-83564698D01*
X112115275Y-83820000D01*
X111733189Y-84075302D01*
X111422120Y-84540849D01*
X111312887Y-85090000D01*
X111422120Y-85639151D01*
X111733189Y-86104698D01*
X112115275Y-86360000D01*
X111733189Y-86615302D01*
X111422120Y-87080849D01*
X111312887Y-87630000D01*
X111422120Y-88179151D01*
X111733189Y-88644698D01*
X112115275Y-88900000D01*
X111733189Y-89155302D01*
X111422120Y-89620849D01*
X111312887Y-90170000D01*
X111422120Y-90719151D01*
X111733189Y-91184698D01*
X112115275Y-91440000D01*
X111733189Y-91695302D01*
X111422120Y-92160849D01*
X111312887Y-92710000D01*
X111422120Y-93259151D01*
X111733189Y-93724698D01*
X112115275Y-93980000D01*
X111733189Y-94235302D01*
X111422120Y-94700849D01*
X111312887Y-95250000D01*
X111422120Y-95799151D01*
X111733189Y-96264698D01*
X112115275Y-96520000D01*
X111733189Y-96775302D01*
X111422120Y-97240849D01*
X111312887Y-97790000D01*
X111422120Y-98339151D01*
X111733189Y-98804698D01*
X112115275Y-99060000D01*
X111733189Y-99315302D01*
X111422120Y-99780849D01*
X111312887Y-100330000D01*
X111422120Y-100879151D01*
X111733189Y-101344698D01*
X112115275Y-101600000D01*
X111733189Y-101855302D01*
X111422120Y-102320849D01*
X111312887Y-102870000D01*
X111422120Y-103419151D01*
X111733189Y-103884698D01*
X112198736Y-104195767D01*
X112747887Y-104305000D01*
X112804113Y-104305000D01*
X113353264Y-104195767D01*
X113818811Y-103884698D01*
X114129880Y-103419151D01*
X114239113Y-102870000D01*
X114129880Y-102320849D01*
X113818811Y-101855302D01*
X113436725Y-101600000D01*
X113818811Y-101344698D01*
X114129880Y-100879151D01*
X114138463Y-100836000D01*
X119926360Y-100836000D01*
X119926360Y-100925630D01*
X119970638Y-101160947D01*
X120109710Y-101377071D01*
X120321910Y-101522061D01*
X120573800Y-101573070D01*
X121772680Y-101573070D01*
X122007997Y-101528792D01*
X122224121Y-101389720D01*
X122324284Y-101243127D01*
X122702360Y-101495750D01*
X123174760Y-101589716D01*
X123647160Y-101495750D01*
X124047641Y-101228157D01*
X124315234Y-100827676D01*
X124409200Y-100355276D01*
X124409200Y-99796724D01*
X124315234Y-99324324D01*
X124047641Y-98923843D01*
X123647160Y-98656250D01*
X123174760Y-98562284D01*
X122702360Y-98656250D01*
X122323358Y-98909491D01*
X122236770Y-98774929D01*
X122024570Y-98629939D01*
X121772680Y-98578930D01*
X120573800Y-98578930D01*
X120338483Y-98623208D01*
X120122359Y-98762280D01*
X119977369Y-98974480D01*
X119926360Y-99226370D01*
X119926360Y-99316000D01*
X113819277Y-99316000D01*
X113818811Y-99315302D01*
X113436725Y-99060000D01*
X113818811Y-98804698D01*
X113988995Y-98550000D01*
X126685198Y-98550000D01*
X127304015Y-99168817D01*
X127292360Y-99226370D01*
X127292360Y-100925630D01*
X127336638Y-101160947D01*
X127475710Y-101377071D01*
X127687910Y-101522061D01*
X127939800Y-101573070D01*
X129138680Y-101573070D01*
X129373997Y-101528792D01*
X129590121Y-101389720D01*
X129690284Y-101243127D01*
X130068360Y-101495750D01*
X130540760Y-101589716D01*
X131013160Y-101495750D01*
X131413641Y-101228157D01*
X131681234Y-100827676D01*
X131775200Y-100355276D01*
X131775200Y-99796724D01*
X131681234Y-99324324D01*
X131413641Y-98923843D01*
X131013160Y-98656250D01*
X130540760Y-98562284D01*
X130068360Y-98656250D01*
X129689358Y-98909491D01*
X129602770Y-98774929D01*
X129390570Y-98629939D01*
X129138680Y-98578930D01*
X128863732Y-98578930D01*
X128326802Y-98042000D01*
X131892198Y-98042000D01*
X134463599Y-100613401D01*
X134658360Y-100743536D01*
X134658360Y-100925630D01*
X134702638Y-101160947D01*
X134841710Y-101377071D01*
X135053910Y-101522061D01*
X135305800Y-101573070D01*
X136504680Y-101573070D01*
X136739997Y-101528792D01*
X136956121Y-101389720D01*
X137056284Y-101243127D01*
X137434360Y-101495750D01*
X137906760Y-101589716D01*
X138379160Y-101495750D01*
X138779641Y-101228157D01*
X139047234Y-100827676D01*
X139141200Y-100355276D01*
X139141200Y-99796724D01*
X139047234Y-99324324D01*
X138779641Y-98923843D01*
X138379160Y-98656250D01*
X137906760Y-98562284D01*
X137434360Y-98656250D01*
X137055358Y-98909491D01*
X136968770Y-98774929D01*
X136756570Y-98629939D01*
X136504680Y-98578930D01*
X135305800Y-98578930D01*
X135070483Y-98623208D01*
X134854359Y-98762280D01*
X134816902Y-98817100D01*
X133533802Y-97534000D01*
X139639198Y-97534000D01*
X142024360Y-99919162D01*
X142024360Y-100925630D01*
X142068638Y-101160947D01*
X142207710Y-101377071D01*
X142419910Y-101522061D01*
X142671800Y-101573070D01*
X143870680Y-101573070D01*
X144105997Y-101528792D01*
X144322121Y-101389720D01*
X144422284Y-101243127D01*
X144800360Y-101495750D01*
X145272760Y-101589716D01*
X145745160Y-101495750D01*
X146145641Y-101228157D01*
X146413234Y-100827676D01*
X146507200Y-100355276D01*
X146507200Y-99796724D01*
X146413234Y-99324324D01*
X146145641Y-98923843D01*
X145745160Y-98656250D01*
X145272760Y-98562284D01*
X144800360Y-98656250D01*
X144421358Y-98909491D01*
X144334770Y-98774929D01*
X144122570Y-98629939D01*
X143870680Y-98578930D01*
X142833732Y-98578930D01*
X141280802Y-97026000D01*
X146497198Y-97026000D01*
X149390360Y-99919162D01*
X149390360Y-100925630D01*
X149434638Y-101160947D01*
X149573710Y-101377071D01*
X149785910Y-101522061D01*
X150037800Y-101573070D01*
X151236680Y-101573070D01*
X151471997Y-101528792D01*
X151688121Y-101389720D01*
X151788284Y-101243127D01*
X152166360Y-101495750D01*
X152638760Y-101589716D01*
X153111160Y-101495750D01*
X153511641Y-101228157D01*
X153779234Y-100827676D01*
X153873200Y-100355276D01*
X153873200Y-99796724D01*
X153779234Y-99324324D01*
X153511641Y-98923843D01*
X153111160Y-98656250D01*
X152638760Y-98562284D01*
X152166360Y-98656250D01*
X151787358Y-98909491D01*
X151700770Y-98774929D01*
X151488570Y-98629939D01*
X151236680Y-98578930D01*
X150199732Y-98578930D01*
X148196800Y-96575998D01*
X153540196Y-96575998D01*
X156756360Y-99792162D01*
X156756360Y-100925630D01*
X156800638Y-101160947D01*
X156939710Y-101377071D01*
X157151910Y-101522061D01*
X157403800Y-101573070D01*
X158602680Y-101573070D01*
X158837997Y-101528792D01*
X159054121Y-101389720D01*
X159154284Y-101243127D01*
X159532360Y-101495750D01*
X160004760Y-101589716D01*
X160477160Y-101495750D01*
X160877641Y-101228157D01*
X161145234Y-100827676D01*
X161239200Y-100355276D01*
X161239200Y-99796724D01*
X161145234Y-99324324D01*
X160877641Y-98923843D01*
X160477160Y-98656250D01*
X160004760Y-98562284D01*
X159532360Y-98656250D01*
X159153358Y-98909491D01*
X159066770Y-98774929D01*
X158854570Y-98629939D01*
X158602680Y-98578930D01*
X157692732Y-98578930D01*
X155239798Y-96125996D01*
X160344434Y-96125996D01*
X164122360Y-99903922D01*
X164122360Y-100925630D01*
X164166638Y-101160947D01*
X164305710Y-101377071D01*
X164517910Y-101522061D01*
X164769800Y-101573070D01*
X165968680Y-101573070D01*
X166203997Y-101528792D01*
X166420121Y-101389720D01*
X166520284Y-101243127D01*
X166898360Y-101495750D01*
X167370760Y-101589716D01*
X167843160Y-101495750D01*
X168243641Y-101228157D01*
X168511234Y-100827676D01*
X168605200Y-100355276D01*
X168605200Y-99796724D01*
X168511234Y-99324324D01*
X168243641Y-98923843D01*
X167843160Y-98656250D01*
X167370760Y-98562284D01*
X166898360Y-98656250D01*
X166519358Y-98909491D01*
X166432770Y-98774929D01*
X166220570Y-98629939D01*
X165968680Y-98578930D01*
X164946972Y-98578930D01*
X161196637Y-94828595D01*
X160950075Y-94663848D01*
X160659236Y-94605996D01*
X118286798Y-94605996D01*
X116076000Y-92395198D01*
X116076000Y-87630000D01*
X116018148Y-87339161D01*
X116018148Y-87339160D01*
X115853401Y-87092599D01*
X114174688Y-85413886D01*
X114239113Y-85090000D01*
X114129880Y-84540849D01*
X113818811Y-84075302D01*
X113436725Y-83820000D01*
X113614448Y-83701250D01*
X119926360Y-90013162D01*
X119926360Y-91019630D01*
X119970638Y-91254947D01*
X120109710Y-91471071D01*
X120321910Y-91616061D01*
X120573800Y-91667070D01*
X121772680Y-91667070D01*
X122007997Y-91622792D01*
X122224121Y-91483720D01*
X122324284Y-91337127D01*
X122702360Y-91589750D01*
X123174760Y-91683716D01*
X123647160Y-91589750D01*
X124047641Y-91322157D01*
X124315234Y-90921676D01*
X124409200Y-90449276D01*
X124409200Y-89890724D01*
X124315234Y-89418324D01*
X124047641Y-89017843D01*
X123647160Y-88750250D01*
X123174760Y-88656284D01*
X122702360Y-88750250D01*
X122323358Y-89003491D01*
X122236770Y-88868929D01*
X122024570Y-88723939D01*
X121772680Y-88672930D01*
X120735732Y-88672930D01*
X114146325Y-82083523D01*
X114129880Y-82000849D01*
X113818811Y-81535302D01*
X113436725Y-81280000D01*
X113818811Y-81024698D01*
X113988995Y-80770000D01*
X118176198Y-80770000D01*
X127292360Y-89886162D01*
X127292360Y-91019630D01*
X127336638Y-91254947D01*
X127475710Y-91471071D01*
X127687910Y-91616061D01*
X127939800Y-91667070D01*
X129138680Y-91667070D01*
X129373997Y-91622792D01*
X129590121Y-91483720D01*
X129690284Y-91337127D01*
X130068360Y-91589750D01*
X130540760Y-91683716D01*
X131013160Y-91589750D01*
X131413641Y-91322157D01*
X131681234Y-90921676D01*
X131775200Y-90449276D01*
X131775200Y-89890724D01*
X131681234Y-89418324D01*
X131413641Y-89017843D01*
X131013160Y-88750250D01*
X130540760Y-88656284D01*
X130068360Y-88750250D01*
X129689358Y-89003491D01*
X129602770Y-88868929D01*
X129390570Y-88723939D01*
X129138680Y-88672930D01*
X128228732Y-88672930D01*
X119028401Y-79472599D01*
X118781839Y-79307852D01*
X118491000Y-79250000D01*
X113988995Y-79250000D01*
X113818811Y-78995302D01*
X113436725Y-78740000D01*
X113818811Y-78484698D01*
X113988995Y-78230000D01*
X122875198Y-78230000D01*
X134658360Y-90013162D01*
X134658360Y-91019630D01*
X134702638Y-91254947D01*
X134841710Y-91471071D01*
X135053910Y-91616061D01*
X135305800Y-91667070D01*
X136504680Y-91667070D01*
X136739997Y-91622792D01*
X136956121Y-91483720D01*
X137056284Y-91337127D01*
X137434360Y-91589750D01*
X137906760Y-91683716D01*
X138379160Y-91589750D01*
X138779641Y-91322157D01*
X139047234Y-90921676D01*
X139141200Y-90449276D01*
X139141200Y-89890724D01*
X139047234Y-89418324D01*
X138981784Y-89320370D01*
X142024360Y-89320370D01*
X142024360Y-91019630D01*
X142068638Y-91254947D01*
X142207710Y-91471071D01*
X142419910Y-91616061D01*
X142671800Y-91667070D01*
X143870680Y-91667070D01*
X144105997Y-91622792D01*
X144322121Y-91483720D01*
X144422284Y-91337127D01*
X144800360Y-91589750D01*
X145272760Y-91683716D01*
X145745160Y-91589750D01*
X146145641Y-91322157D01*
X146413234Y-90921676D01*
X146507200Y-90449276D01*
X146507200Y-89890724D01*
X146413234Y-89418324D01*
X146145641Y-89017843D01*
X145745160Y-88750250D01*
X145272760Y-88656284D01*
X144800360Y-88750250D01*
X144421358Y-89003491D01*
X144334770Y-88868929D01*
X144122570Y-88723939D01*
X143870680Y-88672930D01*
X142671800Y-88672930D01*
X142436483Y-88717208D01*
X142220359Y-88856280D01*
X142075369Y-89068480D01*
X142024360Y-89320370D01*
X138981784Y-89320370D01*
X138779641Y-89017843D01*
X138379160Y-88750250D01*
X137906760Y-88656284D01*
X137434360Y-88750250D01*
X137055358Y-89003491D01*
X136968770Y-88868929D01*
X136756570Y-88723939D01*
X136504680Y-88672930D01*
X135467732Y-88672930D01*
X134455822Y-87661020D01*
X170476418Y-87661020D01*
X170551843Y-87773901D01*
X170741327Y-87900510D01*
X170551843Y-88027119D01*
X170284250Y-88427600D01*
X170190284Y-88900000D01*
X170284250Y-89372400D01*
X170536304Y-89749625D01*
X170402929Y-89835450D01*
X170257939Y-90047650D01*
X170206930Y-90299540D01*
X170206930Y-91498420D01*
X170251208Y-91733737D01*
X170390280Y-91949861D01*
X170602480Y-92094851D01*
X170854370Y-92145860D01*
X172553630Y-92145860D01*
X172788947Y-92101582D01*
X173005071Y-91962510D01*
X173150061Y-91750310D01*
X173201070Y-91498420D01*
X173201070Y-90299540D01*
X173156792Y-90064223D01*
X173017720Y-89848099D01*
X172872292Y-89748733D01*
X173123750Y-89372400D01*
X173217716Y-88900000D01*
X173123750Y-88427600D01*
X172856157Y-88027119D01*
X172666673Y-87900510D01*
X172856157Y-87773901D01*
X173123750Y-87373420D01*
X173217716Y-86901020D01*
X173123750Y-86428620D01*
X172856157Y-86028139D01*
X172455676Y-85760546D01*
X171983276Y-85666580D01*
X171424724Y-85666580D01*
X170952324Y-85760546D01*
X170551843Y-86028139D01*
X170476418Y-86141020D01*
X134739222Y-86141020D01*
X126609222Y-78011020D01*
X170190284Y-78011020D01*
X170284250Y-78483420D01*
X170551843Y-78883901D01*
X170741327Y-79010510D01*
X170551843Y-79137119D01*
X170284250Y-79537600D01*
X170190284Y-80010000D01*
X170284250Y-80482400D01*
X170536304Y-80859625D01*
X170402929Y-80945450D01*
X170257939Y-81157650D01*
X170206930Y-81409540D01*
X170206930Y-82608420D01*
X170251208Y-82843737D01*
X170390280Y-83059861D01*
X170602480Y-83204851D01*
X170854370Y-83255860D01*
X172553630Y-83255860D01*
X172788947Y-83211582D01*
X173005071Y-83072510D01*
X173150061Y-82860310D01*
X173201070Y-82608420D01*
X173201070Y-81409540D01*
X173156792Y-81174223D01*
X173017720Y-80958099D01*
X172872292Y-80858733D01*
X173123750Y-80482400D01*
X173217716Y-80010000D01*
X173123750Y-79537600D01*
X172856157Y-79137119D01*
X172666673Y-79010510D01*
X172856157Y-78883901D01*
X173123750Y-78483420D01*
X173217716Y-78011020D01*
X173123750Y-77538620D01*
X172856157Y-77138139D01*
X172455676Y-76870546D01*
X171983276Y-76776580D01*
X171424724Y-76776580D01*
X170952324Y-76870546D01*
X170551843Y-77138139D01*
X170284250Y-77538620D01*
X170190284Y-78011020D01*
X126609222Y-78011020D01*
X124210001Y-75611799D01*
X123963439Y-75447052D01*
X123672600Y-75389200D01*
X114147772Y-75389200D01*
X114239113Y-74930000D01*
X114129880Y-74380849D01*
X114028323Y-74228858D01*
X114075401Y-74197401D01*
X114393822Y-73878980D01*
X170237141Y-73878980D01*
X170251208Y-73953737D01*
X170390280Y-74169861D01*
X170602480Y-74314851D01*
X170854370Y-74365860D01*
X172553630Y-74365860D01*
X172788947Y-74321582D01*
X173005071Y-74182510D01*
X173150061Y-73970310D01*
X173201070Y-73718420D01*
X173201070Y-72519540D01*
X173156792Y-72284223D01*
X173017720Y-72068099D01*
X172872292Y-71968733D01*
X173123750Y-71592400D01*
X173217716Y-71120000D01*
X173123750Y-70647600D01*
X172856157Y-70247119D01*
X172666673Y-70120510D01*
X172856157Y-69993901D01*
X173123750Y-69593420D01*
X173217716Y-69121020D01*
X173123750Y-68648620D01*
X172856157Y-68248139D01*
X172455676Y-67980546D01*
X171983276Y-67886580D01*
X171424724Y-67886580D01*
X170952324Y-67980546D01*
X170551843Y-68248139D01*
X170476418Y-68361020D01*
X114749422Y-68361020D01*
X114481801Y-68093399D01*
X114235239Y-67928652D01*
X113944400Y-67870800D01*
X108210002Y-67870800D01*
X113598802Y-62482000D01*
X166195352Y-62482000D01*
X166395585Y-62781670D01*
X166710366Y-62992000D01*
X166395585Y-63202330D01*
X166070729Y-63688511D01*
X165956655Y-64262000D01*
X166070729Y-64835489D01*
X166395585Y-65321670D01*
X166881766Y-65646526D01*
X167455255Y-65760600D01*
X167824745Y-65760600D01*
X168398234Y-65646526D01*
X168884415Y-65321670D01*
X169209271Y-64835489D01*
X169323345Y-64262000D01*
X169209271Y-63688511D01*
X168884415Y-63202330D01*
X168569634Y-62992000D01*
X168884415Y-62781670D01*
X169209271Y-62295489D01*
X169323345Y-61722000D01*
X169209271Y-61148511D01*
X168884415Y-60662330D01*
X168870087Y-60652757D01*
X168891317Y-60648762D01*
X169107441Y-60509690D01*
X169252431Y-60297490D01*
X169303440Y-60045600D01*
X169303440Y-58318400D01*
X169259162Y-58083083D01*
X169120090Y-57866959D01*
X168907890Y-57721969D01*
X168656000Y-57670960D01*
X166624000Y-57670960D01*
X166388683Y-57715238D01*
X166172559Y-57854310D01*
X166027569Y-58066510D01*
X165976560Y-58318400D01*
X165976560Y-60045600D01*
X166020838Y-60280917D01*
X166159910Y-60497041D01*
X166372110Y-60642031D01*
X166413439Y-60650400D01*
X166395585Y-60662330D01*
X166195352Y-60962000D01*
X113284000Y-60962000D01*
X112993160Y-61019852D01*
X112746599Y-61184599D01*
X98998595Y-74932603D01*
X98999113Y-74930000D01*
X98997900Y-74923902D01*
X99470401Y-74451401D01*
X99635148Y-74204839D01*
X99693000Y-73914000D01*
X99693000Y-71501000D01*
X99635148Y-71210161D01*
X99635148Y-71210160D01*
X99470401Y-70963599D01*
X99089401Y-70582599D01*
X98866722Y-70433810D01*
X98889880Y-70399151D01*
X98999113Y-69850000D01*
X98889880Y-69300849D01*
X98578811Y-68835302D01*
X98282083Y-68637034D01*
X98238148Y-68416161D01*
X98238148Y-68416160D01*
X98073401Y-68169599D01*
X91596401Y-61692599D01*
X91349839Y-61527852D01*
X91235799Y-61505168D01*
X91338400Y-60989359D01*
X91338400Y-60930641D01*
X91224326Y-60357152D01*
X90899470Y-59870971D01*
X90628628Y-59690000D01*
X90899470Y-59509029D01*
X91224326Y-59022848D01*
X91338400Y-58449359D01*
X91338400Y-58390641D01*
X91224326Y-57817152D01*
X90899470Y-57330971D01*
X90628628Y-57150000D01*
X90899470Y-56969029D01*
X91224326Y-56482848D01*
X91338400Y-55909359D01*
X91338400Y-55850641D01*
X91224326Y-55277152D01*
X90899470Y-54790971D01*
X90628628Y-54610000D01*
X90899470Y-54429029D01*
X91224326Y-53942848D01*
X91338400Y-53369359D01*
X91338400Y-53310641D01*
X91224326Y-52737152D01*
X90899470Y-52250971D01*
X90413289Y-51926115D01*
X89839800Y-51812041D01*
X89266311Y-51926115D01*
X88780130Y-52250971D01*
X88770995Y-52264642D01*
X88766562Y-52241083D01*
X88627490Y-52024959D01*
X88415290Y-51879969D01*
X88163400Y-51828960D01*
X86436200Y-51828960D01*
X86200883Y-51873238D01*
X85984759Y-52012310D01*
X85839769Y-52224510D01*
X85788760Y-52476400D01*
X85496046Y-52476400D01*
X85496950Y-51441224D01*
X85014604Y-50273857D01*
X84122241Y-49379935D01*
X83135008Y-48970000D01*
X173889579Y-48970000D01*
X172905057Y-49376796D01*
M02*
